<?xml version="1.0" encoding="utf-8"?>
<!-- Generator: Adobe Illustrator 14.0.0, SVG Export Plug-In . SVG Version: 6.00 Build 43363)  -->
<!DOCTYPE svg PUBLIC "-//W3C//DTD SVG 1.1//EN" "http://www.w3.org/Graphics/SVG/1.1/DTD/svg11.dtd">
<svg version="1.1" id="Layer_1" xmlns="http://www.w3.org/2000/svg" xmlns:xlink="http://www.w3.org/1999/xlink" x="0px" y="0px"
	 width="32px" height="32px" viewBox="0 0 32 32" enable-background="new 0 0 32 32" xml:space="preserve">
<g>
	<g>
		<g>
			<circle fill="#E03F71" cx="26.646" cy="23.758" r="4.74"/>
			<path d="M26.646,28.926c-2.852,0-5.166-2.318-5.166-5.168s2.314-5.168,5.166-5.168c2.85,0,5.168,2.318,5.168,5.168
				S29.494,28.926,26.646,28.926L26.646,28.926z M26.646,19.445c-2.379,0-4.312,1.936-4.312,4.312c0,2.379,1.934,4.313,4.312,4.313
				c2.377,0,4.312-1.936,4.312-4.313C30.959,21.381,29.021,19.445,26.646,19.445L26.646,19.445z"/>
		</g>
		<g>
			<path d="M27.518,23.76l1.332-1.338c0.256-0.258,0.155-0.592-0.062-0.809c-0.246-0.247-0.585-0.277-0.808-0.059l-1.34,1.332
				l-1.356-1.332c-0.224-0.22-0.562-0.188-0.812,0.06c-0.217,0.216-0.314,0.55-0.058,0.808l1.358,1.332l-1.332,1.338
				c-0.26,0.26-0.158,0.594,0.057,0.809c0.249,0.248,0.589,0.279,0.809,0.06l1.338-1.334l1.36,1.334
				c0.224,0.22,0.56,0.188,0.81-0.06c0.215-0.215,0.316-0.549,0.06-0.809L27.518,23.76z"/>
		</g>
	</g>
	<g>
		<path fill="#F7981D" d="M19.559,25.84c1.098-0.877,1.25-2.689,0.821-4.164C19.891,20,15.781,8.62,15.781,8.62l-7.806,3.535
			c0,0,5.845,10.595,6.784,12.066c0.689,1.084,1.824,2.035,2.983,2.182l0.086,0.188c0.008-0.004,0.021-0.008,0.027-0.012
			c0.033,0.358,0.147,0.709,0.326,1.021c-0.494,0.438-1.02,0.961-1.1,1.575c-0.314,0.152-0.634,0.3-0.946,0.459
			c-0.113,0.062-0.269,0.132-0.424,0.218l0.013-0.035c-0.235-0.088-0.552-0.08-0.798-0.082c-0.151-0.002-0.324-0.008-0.499-0.002
			l0.028-0.029c-0.074-0.051-0.107-0.146-0.163-0.214c-0.139-0.165-0.355-0.308-0.542-0.407c-0.17-0.096-0.428-0.211-0.694-0.289
			c0.096-0.326-0.254-0.855-0.393-1.107c-0.172-0.316-0.381-0.615-0.646-0.862c-0.013-0.011-0.029-0.025-0.042-0.037l0.15-0.422
			c0.013,0.024,0.007,0.036-0.015,0.034c-0.135-0.145-0.479-0.834-0.889-1.492c0.007-0.467-0.402-1.03-0.643-1.383
			c-0.239-0.35-0.498-0.729-0.869-0.924l0.167-0.197c-0.209-0.438-0.95-0.549-1.367-0.573c-1.106-0.072-3.404,0.185-4.512,0.18
			c-0.678-0.002-1.355,0.033-2.007,0.229c-0.383,0.115-1.004,0.348-1.243,0.701c-0.141,0.209-0.092,0.604-0.08,0.858
			c0.022,0.396,0.595,0.332,0.898,0.365c0.598,0.067,1.158,0.045,1.747-0.104C4.15,23.85,6.15,23.311,7.012,23.21
			c0.448-0.052,0.924-0.045,1.363,0.069c0.054,0.015,0.144,0.035,0.237,0.062c0.066,0.39,0.263,0.785,0.646,0.888l0.267,0.1
			c0.004,0.037,0.007,0.078,0.013,0.109c0.097,0.559,0.443,1.067,0.763,1.521c0.1,0.142,0.218,0.267,0.326,0.397
			c-0.259,0.328,0.21,1.183,0.371,1.41c0.076,0.104,0.617,0.734,1.07,1.105c-0.172,0.225,0.001,0.611,0.152,0.814
			c0.253,0.348,0.784,0.688,1.27,0.696c0.024,0.168,0.134,0.328,0.3,0.438c0.422,0.287,0.936,0.253,1.393,0.088
			c0.254,0.226,0.783,0.259,1.048,0.257c0.732-0.011,1.242-0.399,1.516-1.058l-0.058-0.141c0.127,0.012,0.264-0.006,0.401-0.06
			c0.625-0.233,0.974-0.937,1.179-1.528c0.053-0.152,0.207-0.578,0.201-0.836l0.299-0.078c0.191-0.314,0.043-0.896-0.052-1.219
			C19.684,26.117,19.624,25.977,19.559,25.84z"/>
		<g id="g2994_8_">
			<path id="path2996_8_" fill="#FFFFFF" d="M10.838,10.881l2.233-1.009c1.389-0.63,2.241-2.034,2.441-3.707l-9.07,4.108
				C7.834,11.223,9.451,11.51,10.838,10.881z"/>
			<path id="path2998_8_" d="M7.491,11.358c-0.454-0.172-0.896-0.404-1.321-0.69l0,0l-0.7-0.48l10.62-4.81l-0.102,0.844
				c-0.06,0.502-0.178,0.987-0.348,1.448l0,0c-0.434,1.16-1.241,2.126-2.369,2.636l0,0l-2.236,1.011
				c-1.128,0.51-2.38,0.48-3.538,0.042l0,0C7.495,11.358,7.493,11.358,7.491,11.358L7.491,11.358z M7.83,10.462
				c0.967,0.361,1.943,0.372,2.81-0.019l0,0l2.233-1.011C13.74,9.037,14.377,8.3,14.742,7.33l0,0
				c0.042-0.111,0.08-0.226,0.115-0.343l0,0l-7.362,3.334C7.606,10.372,7.717,10.419,7.83,10.462L7.83,10.462z"/>
		</g>
		<path id="path3008_8_" fill="#FFFFFF" d="M15.492,3.65l-0.189-0.417c-1.074-2.369-3.887-3.407-6.29-2.32L6.782,1.926
			c-2.4,1.083-3.477,3.888-2.402,6.256l0.189,0.417C4.863,9.245,5.287,9.79,5.795,10.22l10.108-4.577
			C15.912,4.975,15.784,4.296,15.492,3.65z"/>
		<path d="M15.929,3.452h-0.002l-0.189-0.417c-0.583-1.296-1.646-2.231-2.885-2.698c-1.258-0.474-2.708-0.465-4.038,0.139
			L6.582,1.485c-1.328,0.603-2.29,1.686-2.764,2.943C3.354,5.667,3.354,7.082,3.943,8.381l0.19,0.417
			c0.322,0.713,0.793,1.313,1.351,1.789l0.231,0.196l10.664-4.831l0.004-0.301C16.394,4.915,16.255,4.165,15.929,3.452z
			 M5.886,9.655c-0.362-0.352-0.661-0.771-0.88-1.254L4.819,7.984C4.337,6.925,4.335,5.778,4.715,4.765
			c0.389-1.03,1.172-1.911,2.263-2.404l2.233-1.014c1.089-0.495,2.271-0.5,3.303-0.113c1.011,0.383,1.873,1.141,2.352,2.197
			l0.189,0.417h0.004c0.217,0.483,0.333,0.987,0.359,1.489L5.886,9.655z"/>
		<path d="M20.839,21.545c-0.504-1.725-4.606-13.076-4.61-13.085l-0.178-0.489L7.3,11.936l0.252,0.456
			c0.003,0.011,5.834,10.575,6.799,12.09c0.609,0.947,1.515,1.805,2.567,2.207c0.124,0.045,0.521,0.151,0.745,0.207
			c-0.013,0.227-0.046,0.449-0.121,0.66c-0.199,0.551-0.604,1.021-1.17,1.284c-0.567,0.265-1.188,0.271-1.737,0.07
			c-0.565-0.209-1.054-0.634-1.33-1.224l-1.3-2.795c-0.272-0.713-0.504-1.197-0.79-1.672c-0.688-1.154-1.529-1.9-2.835-2.096
			c-0.137-0.035-0.317-0.059-0.521-0.076c-1.645-0.146-6.394,0.514-7.453,1.143l-0.171,0.162c-0.014,0.025-0.113,0.199-0.183,0.467
			c-0.066,0.265-0.107,0.66,0.122,1.052c0.221,0.362,0.567,0.515,0.823,0.58c0.292,0.071,0.511,0.055,0.542,0.053l0.111-0.01
			l0.347-0.065c1.506-0.298,5.126-0.897,5.706-0.757c0.371,0.093,0.633,0.222,0.863,0.438c0.128,0.134,0.255,0.293,0.363,0.461
			c0.036,0.06,0.107,0.193,0.186,0.341l1.807,3.881c0.585,1.258,1.628,2.166,2.83,2.604c1.176,0.429,2.514,0.416,3.73-0.149
			c1.213-0.565,2.091-1.576,2.521-2.754c-0.002-0.004,0-0.006,0-0.007c0.298-0.811,0.366-1.696,0.203-2.577
			c0.155-0.228,0.502-0.752,0.601-1.005C21.195,23.855,21.146,22.621,20.839,21.545z M19.102,28.162
			c-0.349,0.949-1.049,1.758-2.025,2.215c-0.977,0.453-2.045,0.465-2.995,0.119c-0.97-0.355-1.817-1.088-2.291-2.105l-1.84-3.949
			c-0.143-0.305-0.585-1.396-2.01-1.699c-0.78-0.166-5.275,0.578-6.401,0.828c-0.429,0.193-1.007-0.459-0.396-0.687
			c1.143-0.424,5.968-1.141,6.886-0.909c0.572,0.145,1.067,0.362,1.507,0.696c0.424,0.361,0.798,0.929,1.054,1.472l1.839,3.953
			c0.386,0.829,1.074,1.43,1.869,1.723c0.778,0.279,1.665,0.271,2.468-0.103c0.807-0.377,1.387-1.049,1.668-1.823
			c0.226-0.613,0.244-1.009,0.143-1.732c-0.01,0.006-0.062-0.205-0.071-0.201l0.013-0.021c0,0-0.592,0.188-1.306-0.043
			c-0.802-0.264-1.535-1.123-2.039-1.928c-0.8-1.246-5.393-9.543-6.519-11.584l6.864-3.106c0.79,2.195,3.998,11.116,4.412,12.542
			c0.269,0.9,0.291,1.974-0.009,2.755c-0.159,0.418-0.401,0.735-0.724,0.963c-0.021,0.01-0.037,0.021-0.055,0.03
			c0.002,0.006,0.002,0.013,0.004,0.017c-0.006,0.004-0.008,0.01-0.015,0.015c0,0,0.017,0.012,0.021,0.014
			C19.413,26.467,19.393,27.359,19.102,28.162z"/>
	</g>
	<g>
		<path fill="#F7981D" d="M19.559,25.84c1.098-0.877,1.25-2.689,0.821-4.164C19.891,20,15.781,8.62,15.781,8.62l-7.806,3.535
			c0,0,5.845,10.595,6.784,12.066c0.689,1.084,1.824,2.035,2.983,2.182l0.086,0.188c0.008-0.004,0.021-0.008,0.027-0.012
			c0.033,0.358,0.147,0.709,0.326,1.021c-0.494,0.438-1.02,0.961-1.1,1.575c-0.314,0.152-0.634,0.3-0.946,0.459
			c-0.113,0.062-0.269,0.132-0.424,0.218l0.013-0.035c-0.235-0.088-0.552-0.08-0.798-0.082c-0.151-0.002-0.324-0.008-0.499-0.002
			l0.028-0.029c-0.074-0.051-0.107-0.146-0.163-0.214c-0.139-0.165-0.355-0.308-0.542-0.407c-0.17-0.096-0.428-0.211-0.694-0.289
			c0.096-0.326-0.254-0.855-0.393-1.107c-0.172-0.316-0.381-0.615-0.646-0.862c-0.013-0.011-0.029-0.025-0.042-0.037l0.15-0.422
			c0.013,0.024,0.007,0.036-0.015,0.034c-0.135-0.145-0.479-0.834-0.889-1.492c0.007-0.467-0.402-1.03-0.643-1.383
			c-0.239-0.35-0.498-0.729-0.869-0.924l0.167-0.197c-0.209-0.438-0.95-0.549-1.367-0.573c-1.106-0.072-3.404,0.185-4.512,0.18
			c-0.678-0.002-1.355,0.033-2.007,0.229c-0.383,0.115-1.004,0.348-1.243,0.701c-0.141,0.209-0.092,0.604-0.08,0.858
			c0.022,0.396,0.595,0.332,0.898,0.365c0.598,0.067,1.158,0.045,1.747-0.104C4.15,23.85,6.15,23.311,7.012,23.21
			c0.448-0.052,0.924-0.045,1.363,0.069c0.054,0.015,0.144,0.035,0.237,0.062c0.066,0.39,0.263,0.785,0.646,0.888l0.267,0.1
			c0.004,0.037,0.007,0.078,0.013,0.109c0.097,0.559,0.443,1.067,0.763,1.521c0.1,0.142,0.218,0.267,0.326,0.397
			c-0.259,0.328,0.21,1.183,0.371,1.41c0.076,0.104,0.617,0.734,1.07,1.105c-0.172,0.225,0.001,0.611,0.152,0.814
			c0.253,0.348,0.784,0.688,1.27,0.696c0.024,0.168,0.134,0.328,0.3,0.438c0.422,0.287,0.936,0.253,1.393,0.088
			c0.254,0.226,0.783,0.259,1.048,0.257c0.732-0.011,1.242-0.399,1.516-1.058l-0.058-0.141c0.127,0.012,0.264-0.006,0.401-0.06
			c0.625-0.233,0.974-0.937,1.179-1.528c0.053-0.152,0.207-0.578,0.201-0.836l0.299-0.078c0.191-0.314,0.043-0.896-0.052-1.219
			C19.684,26.117,19.624,25.977,19.559,25.84z"/>
		<g id="g2994_7_">
			<path id="path2996_7_" fill="#FFFFFF" d="M10.838,10.881l2.233-1.009c1.389-0.63,2.241-2.034,2.441-3.707l-9.07,4.108
				C7.834,11.223,9.451,11.51,10.838,10.881z"/>
			<path id="path2998_7_" d="M7.491,11.358c-0.454-0.172-0.896-0.404-1.321-0.69l0,0l-0.7-0.48l10.62-4.81l-0.102,0.844
				c-0.06,0.502-0.178,0.987-0.348,1.448l0,0c-0.434,1.16-1.241,2.126-2.369,2.636l0,0l-2.236,1.011
				c-1.128,0.51-2.38,0.48-3.538,0.042l0,0C7.495,11.358,7.493,11.358,7.491,11.358L7.491,11.358z M7.83,10.462
				c0.967,0.361,1.943,0.372,2.81-0.019l0,0l2.233-1.011C13.74,9.037,14.377,8.3,14.742,7.33l0,0
				c0.042-0.111,0.08-0.226,0.115-0.343l0,0l-7.362,3.334C7.606,10.372,7.717,10.419,7.83,10.462L7.83,10.462z"/>
		</g>
		<path id="path3008_7_" fill="#FFFFFF" d="M15.492,3.65l-0.189-0.417c-1.074-2.369-3.887-3.407-6.29-2.32L6.782,1.926
			c-2.4,1.083-3.477,3.888-2.402,6.256l0.189,0.417C4.863,9.245,5.287,9.79,5.795,10.22l10.108-4.577
			C15.912,4.975,15.784,4.296,15.492,3.65z"/>
		<path d="M15.929,3.452h-0.002l-0.189-0.417c-0.583-1.296-1.646-2.231-2.885-2.698c-1.258-0.474-2.708-0.465-4.038,0.139
			L6.582,1.485c-1.328,0.603-2.29,1.686-2.764,2.943C3.354,5.667,3.354,7.082,3.943,8.381l0.19,0.417
			c0.322,0.713,0.793,1.313,1.351,1.789l0.231,0.196l10.664-4.831l0.004-0.301C16.394,4.915,16.255,4.165,15.929,3.452z
			 M5.886,9.655c-0.362-0.352-0.661-0.771-0.88-1.254L4.819,7.984C4.337,6.925,4.335,5.778,4.715,4.765
			c0.389-1.03,1.172-1.911,2.263-2.404l2.233-1.014c1.089-0.495,2.271-0.5,3.303-0.113c1.011,0.383,1.873,1.141,2.352,2.197
			l0.189,0.417h0.004c0.217,0.483,0.333,0.987,0.359,1.489L5.886,9.655z"/>
		<path d="M20.839,21.545c-0.504-1.725-4.606-13.076-4.61-13.085l-0.178-0.489L7.3,11.936l0.252,0.456
			c0.003,0.011,5.834,10.575,6.799,12.09c0.609,0.947,1.515,1.805,2.567,2.207c0.124,0.045,0.521,0.151,0.745,0.207
			c-0.013,0.227-0.046,0.449-0.121,0.66c-0.199,0.551-0.604,1.021-1.17,1.284c-0.567,0.265-1.188,0.271-1.737,0.07
			c-0.565-0.209-1.054-0.634-1.33-1.224l-1.3-2.795c-0.272-0.713-0.504-1.197-0.79-1.672c-0.688-1.154-1.529-1.9-2.835-2.096
			c-0.137-0.035-0.317-0.059-0.521-0.076c-1.645-0.146-6.394,0.514-7.453,1.143l-0.171,0.162c-0.014,0.025-0.113,0.199-0.183,0.467
			c-0.066,0.265-0.107,0.66,0.122,1.052c0.221,0.362,0.567,0.515,0.823,0.58c0.292,0.071,0.511,0.055,0.542,0.053l0.111-0.01
			l0.347-0.065c1.506-0.298,5.126-0.897,5.706-0.757c0.371,0.093,0.633,0.222,0.863,0.438c0.128,0.134,0.255,0.293,0.363,0.461
			c0.036,0.06,0.107,0.193,0.186,0.341l1.807,3.881c0.585,1.258,1.628,2.166,2.83,2.604c1.176,0.429,2.514,0.416,3.73-0.149
			c1.213-0.565,2.091-1.576,2.521-2.754c-0.002-0.004,0-0.006,0-0.007c0.298-0.811,0.366-1.696,0.203-2.577
			c0.155-0.228,0.502-0.752,0.601-1.005C21.195,23.855,21.146,22.621,20.839,21.545z M19.102,28.162
			c-0.349,0.949-1.049,1.758-2.025,2.215c-0.977,0.453-2.045,0.465-2.995,0.119c-0.97-0.355-1.817-1.088-2.291-2.105l-1.84-3.949
			c-0.143-0.305-0.585-1.396-2.01-1.699c-0.78-0.166-5.275,0.578-6.401,0.828c-0.429,0.193-1.007-0.459-0.396-0.687
			c1.143-0.424,5.968-1.141,6.886-0.909c0.572,0.145,1.067,0.362,1.507,0.696c0.424,0.361,0.798,0.929,1.054,1.472l1.839,3.953
			c0.386,0.829,1.074,1.43,1.869,1.723c0.778,0.279,1.665,0.271,2.468-0.103c0.807-0.377,1.387-1.049,1.668-1.823
			c0.226-0.613,0.244-1.009,0.143-1.732c-0.01,0.006-0.062-0.205-0.071-0.201l0.013-0.021c0,0-0.592,0.188-1.306-0.043
			c-0.802-0.264-1.535-1.123-2.039-1.928c-0.8-1.246-5.393-9.543-6.519-11.584l6.864-3.106c0.79,2.195,3.998,11.116,4.412,12.542
			c0.269,0.9,0.291,1.974-0.009,2.755c-0.159,0.418-0.401,0.735-0.724,0.963c-0.021,0.01-0.037,0.021-0.055,0.03
			c0.002,0.006,0.002,0.013,0.004,0.017c-0.006,0.004-0.008,0.01-0.015,0.015c0,0,0.017,0.012,0.021,0.014
			C19.413,26.467,19.393,27.359,19.102,28.162z"/>
	</g>
	<g>
		<g>
			<path fill="#F7981D" d="M19.559,25.84c1.098-0.877,1.25-2.689,0.821-4.164C19.891,20,15.781,8.62,15.781,8.62l-7.806,3.535
				c0,0,5.845,10.595,6.784,12.066c0.689,1.084,1.824,2.035,2.983,2.182l0.086,0.188c0.008-0.004,0.021-0.008,0.027-0.012
				c0.033,0.358,0.147,0.709,0.326,1.021c-0.494,0.438-1.02,0.961-1.1,1.575c-0.314,0.152-0.634,0.3-0.946,0.459
				c-0.113,0.062-0.269,0.132-0.424,0.218l0.013-0.035c-0.235-0.088-0.552-0.08-0.798-0.082c-0.151-0.002-0.324-0.008-0.499-0.002
				l0.028-0.029c-0.074-0.051-0.107-0.146-0.163-0.214c-0.139-0.165-0.355-0.308-0.542-0.407c-0.17-0.096-0.428-0.211-0.694-0.289
				c0.096-0.326-0.254-0.855-0.393-1.107c-0.172-0.316-0.381-0.615-0.646-0.862c-0.013-0.011-0.029-0.025-0.042-0.037l0.15-0.422
				c0.013,0.024,0.007,0.036-0.015,0.034c-0.135-0.145-0.479-0.834-0.889-1.492c0.007-0.467-0.402-1.03-0.643-1.383
				c-0.239-0.35-0.498-0.729-0.869-0.924l0.167-0.197c-0.209-0.438-0.95-0.549-1.367-0.573c-1.106-0.072-3.404,0.185-4.512,0.18
				c-0.678-0.002-1.355,0.033-2.007,0.229c-0.383,0.115-1.004,0.348-1.243,0.701c-0.141,0.209-0.092,0.604-0.08,0.858
				c0.022,0.396,0.595,0.332,0.898,0.365c0.598,0.067,1.158,0.045,1.747-0.104C4.15,23.85,6.15,23.311,7.012,23.21
				c0.448-0.052,0.924-0.045,1.363,0.069c0.054,0.015,0.144,0.035,0.237,0.062c0.066,0.39,0.263,0.785,0.646,0.888l0.267,0.1
				c0.004,0.037,0.007,0.078,0.013,0.109c0.097,0.559,0.443,1.067,0.763,1.521c0.1,0.142,0.218,0.267,0.326,0.397
				c-0.259,0.328,0.21,1.183,0.371,1.41c0.076,0.104,0.617,0.734,1.07,1.105c-0.172,0.225,0.001,0.611,0.152,0.814
				c0.253,0.348,0.784,0.688,1.27,0.696c0.024,0.168,0.134,0.328,0.3,0.438c0.422,0.287,0.936,0.253,1.393,0.088
				c0.254,0.226,0.783,0.259,1.048,0.257c0.732-0.011,1.242-0.399,1.516-1.058l-0.058-0.141c0.127,0.012,0.264-0.006,0.401-0.06
				c0.625-0.233,0.974-0.937,1.179-1.528c0.053-0.152,0.207-0.578,0.201-0.836l0.299-0.078c0.191-0.314,0.043-0.896-0.052-1.219
				C19.684,26.117,19.624,25.977,19.559,25.84z"/>
			<g id="g2994_6_">
				<path id="path2996_6_" fill="#FFFFFF" d="M10.838,10.881l2.233-1.009c1.389-0.63,2.241-2.034,2.441-3.707l-9.07,4.108
					C7.834,11.223,9.451,11.51,10.838,10.881z"/>
				<path id="path2998_6_" d="M7.491,11.358c-0.454-0.172-0.896-0.404-1.321-0.69l0,0l-0.7-0.48l10.62-4.81l-0.102,0.844
					c-0.06,0.502-0.178,0.987-0.348,1.448l0,0c-0.434,1.16-1.241,2.126-2.369,2.636l0,0l-2.236,1.011
					c-1.128,0.51-2.38,0.48-3.538,0.042l0,0C7.495,11.358,7.493,11.358,7.491,11.358L7.491,11.358z M7.83,10.462
					c0.967,0.361,1.943,0.372,2.81-0.019l0,0l2.233-1.011C13.74,9.037,14.377,8.3,14.742,7.33l0,0
					c0.042-0.111,0.08-0.226,0.115-0.343l0,0l-7.362,3.334C7.606,10.372,7.717,10.419,7.83,10.462L7.83,10.462z"/>
			</g>
			<path id="path3008_6_" fill="#FFFFFF" d="M15.492,3.65l-0.189-0.417c-1.074-2.369-3.887-3.407-6.29-2.32L6.782,1.926
				c-2.4,1.083-3.477,3.888-2.402,6.256l0.189,0.417C4.863,9.245,5.287,9.79,5.795,10.22l10.108-4.577
				C15.912,4.975,15.784,4.296,15.492,3.65z"/>
			<path d="M15.929,3.452h-0.002l-0.189-0.417c-0.583-1.296-1.646-2.231-2.885-2.698c-1.258-0.474-2.708-0.465-4.038,0.139
				L6.582,1.485c-1.328,0.603-2.29,1.686-2.764,2.943C3.354,5.667,3.354,7.082,3.943,8.381l0.19,0.417
				c0.322,0.713,0.793,1.313,1.351,1.789l0.231,0.196l10.664-4.831l0.004-0.301C16.394,4.915,16.255,4.165,15.929,3.452z
				 M5.886,9.655c-0.362-0.352-0.661-0.771-0.88-1.254L4.819,7.984C4.337,6.925,4.335,5.778,4.715,4.765
				c0.389-1.03,1.172-1.911,2.263-2.404l2.233-1.014c1.089-0.495,2.271-0.5,3.303-0.113c1.011,0.383,1.873,1.141,2.352,2.197
				l0.189,0.417h0.004c0.217,0.483,0.333,0.987,0.359,1.489L5.886,9.655z"/>
			<path d="M20.839,21.545c-0.504-1.725-4.606-13.076-4.61-13.085l-0.178-0.489L7.3,11.936l0.252,0.456
				c0.003,0.011,5.834,10.575,6.799,12.09c0.609,0.947,1.515,1.805,2.567,2.207c0.124,0.045,0.521,0.151,0.745,0.207
				c-0.013,0.227-0.046,0.449-0.121,0.66c-0.199,0.551-0.604,1.021-1.17,1.284c-0.567,0.265-1.188,0.271-1.737,0.07
				c-0.565-0.209-1.054-0.634-1.33-1.224l-1.3-2.795c-0.272-0.713-0.504-1.197-0.79-1.672c-0.688-1.154-1.529-1.9-2.835-2.096
				c-0.137-0.035-0.317-0.059-0.521-0.076c-1.645-0.146-6.394,0.514-7.453,1.143l-0.171,0.162c-0.014,0.025-0.113,0.199-0.183,0.467
				c-0.066,0.265-0.107,0.66,0.122,1.052c0.221,0.362,0.567,0.515,0.823,0.58c0.292,0.071,0.511,0.055,0.542,0.053l0.111-0.01
				l0.347-0.065c1.506-0.298,5.126-0.897,5.706-0.757c0.371,0.093,0.633,0.222,0.863,0.438c0.128,0.134,0.255,0.293,0.363,0.461
				c0.036,0.06,0.107,0.193,0.186,0.341l1.807,3.881c0.585,1.258,1.628,2.166,2.83,2.604c1.176,0.429,2.514,0.416,3.73-0.149
				c1.213-0.565,2.091-1.576,2.521-2.754c-0.002-0.004,0-0.006,0-0.007c0.298-0.811,0.366-1.696,0.203-2.577
				c0.155-0.228,0.502-0.752,0.601-1.005C21.195,23.855,21.146,22.621,20.839,21.545z M19.102,28.162
				c-0.349,0.949-1.049,1.758-2.025,2.215c-0.977,0.453-2.045,0.465-2.995,0.119c-0.97-0.355-1.817-1.088-2.291-2.105l-1.84-3.949
				c-0.143-0.305-0.585-1.396-2.01-1.699c-0.78-0.166-5.275,0.578-6.401,0.828c-0.429,0.193-1.007-0.459-0.396-0.687
				c1.143-0.424,5.968-1.141,6.886-0.909c0.572,0.145,1.067,0.362,1.507,0.696c0.424,0.361,0.798,0.929,1.054,1.472l1.839,3.953
				c0.386,0.829,1.074,1.43,1.869,1.723c0.778,0.279,1.665,0.271,2.468-0.103c0.807-0.377,1.387-1.049,1.668-1.823
				c0.226-0.613,0.244-1.009,0.143-1.732c-0.01,0.006-0.062-0.205-0.071-0.201l0.013-0.021c0,0-0.592,0.188-1.306-0.043
				c-0.802-0.264-1.535-1.123-2.039-1.928c-0.8-1.246-5.393-9.543-6.519-11.584l6.864-3.106c0.79,2.195,3.998,11.116,4.412,12.542
				c0.269,0.9,0.291,1.974-0.009,2.755c-0.159,0.418-0.401,0.735-0.724,0.963c-0.021,0.01-0.037,0.021-0.055,0.03
				c0.002,0.006,0.002,0.013,0.004,0.017c-0.006,0.004-0.008,0.01-0.015,0.015c0,0,0.017,0.012,0.021,0.014
				C19.413,26.467,19.393,27.359,19.102,28.162z"/>
		</g>
	</g>
	<g>
		<g>
			<path fill="#F7981D" d="M19.559,25.84c1.098-0.877,1.25-2.689,0.821-4.164C19.891,20,15.781,8.62,15.781,8.62l-7.806,3.535
				c0,0,5.845,10.595,6.784,12.066c0.689,1.084,1.824,2.035,2.983,2.182l0.086,0.188c0.008-0.004,0.021-0.008,0.027-0.012
				c0.033,0.358,0.147,0.709,0.326,1.021c-0.494,0.438-1.02,0.961-1.1,1.575c-0.314,0.152-0.634,0.3-0.946,0.459
				c-0.113,0.062-0.269,0.132-0.424,0.218l0.013-0.035c-0.235-0.088-0.552-0.08-0.798-0.082c-0.151-0.002-0.324-0.008-0.499-0.002
				l0.028-0.029c-0.074-0.051-0.107-0.146-0.163-0.214c-0.139-0.165-0.355-0.308-0.542-0.407c-0.17-0.096-0.428-0.211-0.694-0.289
				c0.096-0.326-0.254-0.855-0.393-1.107c-0.172-0.316-0.381-0.615-0.646-0.862c-0.013-0.011-0.029-0.025-0.042-0.037l0.15-0.422
				c0.013,0.024,0.007,0.036-0.015,0.034c-0.135-0.145-0.479-0.834-0.889-1.492c0.007-0.467-0.402-1.03-0.643-1.383
				c-0.239-0.35-0.498-0.729-0.869-0.924l0.167-0.197c-0.209-0.438-0.95-0.549-1.367-0.573c-1.106-0.072-3.404,0.185-4.512,0.18
				c-0.678-0.002-1.355,0.033-2.007,0.229c-0.383,0.115-1.004,0.348-1.243,0.701c-0.141,0.209-0.092,0.604-0.08,0.858
				c0.022,0.396,0.595,0.332,0.898,0.365c0.598,0.067,1.158,0.045,1.747-0.104C4.15,23.85,6.15,23.311,7.012,23.21
				c0.448-0.052,0.924-0.045,1.363,0.069c0.054,0.015,0.144,0.035,0.237,0.062c0.066,0.39,0.263,0.785,0.646,0.888l0.267,0.1
				c0.004,0.037,0.007,0.078,0.013,0.109c0.097,0.559,0.443,1.067,0.763,1.521c0.1,0.142,0.218,0.267,0.326,0.397
				c-0.259,0.328,0.21,1.183,0.371,1.41c0.076,0.104,0.617,0.734,1.07,1.105c-0.172,0.225,0.001,0.611,0.152,0.814
				c0.253,0.348,0.784,0.688,1.27,0.696c0.024,0.168,0.134,0.328,0.3,0.438c0.422,0.287,0.936,0.253,1.393,0.088
				c0.254,0.226,0.783,0.259,1.048,0.257c0.732-0.011,1.242-0.399,1.516-1.058l-0.058-0.141c0.127,0.012,0.264-0.006,0.401-0.06
				c0.625-0.233,0.974-0.937,1.179-1.528c0.053-0.152,0.207-0.578,0.201-0.836l0.299-0.078c0.191-0.314,0.043-0.896-0.052-1.219
				C19.684,26.117,19.624,25.977,19.559,25.84z"/>
			<g id="g2994_5_">
				<path id="path2996_5_" fill="#FFFFFF" d="M10.838,10.881l2.233-1.009c1.389-0.63,2.241-2.034,2.441-3.707l-9.07,4.108
					C7.834,11.223,9.451,11.51,10.838,10.881z"/>
				<path id="path2998_5_" d="M7.491,11.358c-0.454-0.172-0.896-0.404-1.321-0.69l0,0l-0.7-0.48l10.62-4.81l-0.102,0.844
					c-0.06,0.502-0.178,0.987-0.348,1.448l0,0c-0.434,1.16-1.241,2.126-2.369,2.636l0,0l-2.236,1.011
					c-1.128,0.51-2.38,0.48-3.538,0.042l0,0C7.495,11.358,7.493,11.358,7.491,11.358L7.491,11.358z M7.83,10.462
					c0.967,0.361,1.943,0.372,2.81-0.019l0,0l2.233-1.011C13.74,9.037,14.377,8.3,14.742,7.33l0,0
					c0.042-0.111,0.08-0.226,0.115-0.343l0,0l-7.362,3.334C7.606,10.372,7.717,10.419,7.83,10.462L7.83,10.462z"/>
			</g>
			<path id="path3008_5_" fill="#FFFFFF" d="M15.492,3.65l-0.189-0.417c-1.074-2.369-3.887-3.407-6.29-2.32L6.782,1.926
				c-2.4,1.083-3.477,3.888-2.402,6.256l0.189,0.417C4.863,9.245,5.287,9.79,5.795,10.22l10.108-4.577
				C15.912,4.975,15.784,4.296,15.492,3.65z"/>
			<path d="M15.929,3.452h-0.002l-0.189-0.417c-0.583-1.296-1.646-2.231-2.885-2.698c-1.258-0.474-2.708-0.465-4.038,0.139
				L6.582,1.485c-1.328,0.603-2.29,1.686-2.764,2.943C3.354,5.667,3.354,7.082,3.943,8.381l0.19,0.417
				c0.322,0.713,0.793,1.313,1.351,1.789l0.231,0.196l10.664-4.831l0.004-0.301C16.394,4.915,16.255,4.165,15.929,3.452z
				 M5.886,9.655c-0.362-0.352-0.661-0.771-0.88-1.254L4.819,7.984C4.337,6.925,4.335,5.778,4.715,4.765
				c0.389-1.03,1.172-1.911,2.263-2.404l2.233-1.014c1.089-0.495,2.271-0.5,3.303-0.113c1.011,0.383,1.873,1.141,2.352,2.197
				l0.189,0.417h0.004c0.217,0.483,0.333,0.987,0.359,1.489L5.886,9.655z"/>
			<path d="M20.839,21.545c-0.504-1.725-4.606-13.076-4.61-13.085l-0.178-0.489L7.3,11.936l0.252,0.456
				c0.003,0.011,5.834,10.575,6.799,12.09c0.609,0.947,1.515,1.805,2.567,2.207c0.124,0.045,0.521,0.151,0.745,0.207
				c-0.013,0.227-0.046,0.449-0.121,0.66c-0.199,0.551-0.604,1.021-1.17,1.284c-0.567,0.265-1.188,0.271-1.737,0.07
				c-0.565-0.209-1.054-0.634-1.33-1.224l-1.3-2.795c-0.272-0.713-0.504-1.197-0.79-1.672c-0.688-1.154-1.529-1.9-2.835-2.096
				c-0.137-0.035-0.317-0.059-0.521-0.076c-1.645-0.146-6.394,0.514-7.453,1.143l-0.171,0.162c-0.014,0.025-0.113,0.199-0.183,0.467
				c-0.066,0.265-0.107,0.66,0.122,1.052c0.221,0.362,0.567,0.515,0.823,0.58c0.292,0.071,0.511,0.055,0.542,0.053l0.111-0.01
				l0.347-0.065c1.506-0.298,5.126-0.897,5.706-0.757c0.371,0.093,0.633,0.222,0.863,0.438c0.128,0.134,0.255,0.293,0.363,0.461
				c0.036,0.06,0.107,0.193,0.186,0.341l1.807,3.881c0.585,1.258,1.628,2.166,2.83,2.604c1.176,0.429,2.514,0.416,3.73-0.149
				c1.213-0.565,2.091-1.576,2.521-2.754c-0.002-0.004,0-0.006,0-0.007c0.298-0.811,0.366-1.696,0.203-2.577
				c0.155-0.228,0.502-0.752,0.601-1.005C21.195,23.855,21.146,22.621,20.839,21.545z M19.102,28.162
				c-0.349,0.949-1.049,1.758-2.025,2.215c-0.977,0.453-2.045,0.465-2.995,0.119c-0.97-0.355-1.817-1.088-2.291-2.105l-1.84-3.949
				c-0.143-0.305-0.585-1.396-2.01-1.699c-0.78-0.166-5.275,0.578-6.401,0.828c-0.429,0.193-1.007-0.459-0.396-0.687
				c1.143-0.424,5.968-1.141,6.886-0.909c0.572,0.145,1.067,0.362,1.507,0.696c0.424,0.361,0.798,0.929,1.054,1.472l1.839,3.953
				c0.386,0.829,1.074,1.43,1.869,1.723c0.778,0.279,1.665,0.271,2.468-0.103c0.807-0.377,1.387-1.049,1.668-1.823
				c0.226-0.613,0.244-1.009,0.143-1.732c-0.01,0.006-0.062-0.205-0.071-0.201l0.013-0.021c0,0-0.592,0.188-1.306-0.043
				c-0.802-0.264-1.535-1.123-2.039-1.928c-0.8-1.246-5.393-9.543-6.519-11.584l6.864-3.106c0.79,2.195,3.998,11.116,4.412,12.542
				c0.269,0.9,0.291,1.974-0.009,2.755c-0.159,0.418-0.401,0.735-0.724,0.963c-0.021,0.01-0.037,0.021-0.055,0.03
				c0.002,0.006,0.002,0.013,0.004,0.017c-0.006,0.004-0.008,0.01-0.015,0.015c0,0,0.017,0.012,0.021,0.014
				C19.413,26.467,19.393,27.359,19.102,28.162z"/>
		</g>
	</g>
	<g>
		<g>
			<path fill="#F7981D" d="M19.559,25.84c1.098-0.877,1.25-2.689,0.821-4.164C19.891,20,15.781,8.62,15.781,8.62l-7.806,3.535
				c0,0,5.845,10.595,6.784,12.066c0.689,1.084,1.824,2.035,2.983,2.182l0.086,0.188c0.008-0.004,0.021-0.008,0.027-0.012
				c0.033,0.358,0.147,0.709,0.326,1.021c-0.494,0.438-1.02,0.961-1.1,1.575c-0.314,0.152-0.634,0.3-0.946,0.459
				c-0.113,0.062-0.269,0.132-0.424,0.218l0.013-0.035c-0.235-0.088-0.552-0.08-0.798-0.082c-0.151-0.002-0.324-0.008-0.499-0.002
				l0.028-0.029c-0.074-0.051-0.107-0.146-0.163-0.214c-0.139-0.165-0.355-0.308-0.542-0.407c-0.17-0.096-0.428-0.211-0.694-0.289
				c0.096-0.326-0.254-0.855-0.393-1.107c-0.172-0.316-0.381-0.615-0.646-0.862c-0.013-0.011-0.029-0.025-0.042-0.037l0.15-0.422
				c0.013,0.024,0.007,0.036-0.015,0.034c-0.135-0.145-0.479-0.834-0.889-1.492c0.007-0.467-0.402-1.03-0.643-1.383
				c-0.239-0.35-0.498-0.729-0.869-0.924l0.167-0.197c-0.209-0.438-0.95-0.549-1.367-0.573c-1.106-0.072-3.404,0.185-4.512,0.18
				c-0.678-0.002-1.355,0.033-2.007,0.229c-0.383,0.115-1.004,0.348-1.243,0.701c-0.141,0.209-0.092,0.604-0.08,0.858
				c0.022,0.396,0.595,0.332,0.898,0.365c0.598,0.067,1.158,0.045,1.747-0.104C4.15,23.85,6.15,23.311,7.012,23.21
				c0.448-0.052,0.924-0.045,1.363,0.069c0.054,0.015,0.144,0.035,0.237,0.062c0.066,0.39,0.263,0.785,0.646,0.888l0.267,0.1
				c0.004,0.037,0.007,0.078,0.013,0.109c0.097,0.559,0.443,1.067,0.763,1.521c0.1,0.142,0.218,0.267,0.326,0.397
				c-0.259,0.328,0.21,1.183,0.371,1.41c0.076,0.104,0.617,0.734,1.07,1.105c-0.172,0.225,0.001,0.611,0.152,0.814
				c0.253,0.348,0.784,0.688,1.27,0.696c0.024,0.168,0.134,0.328,0.3,0.438c0.422,0.287,0.936,0.253,1.393,0.088
				c0.254,0.226,0.783,0.259,1.048,0.257c0.732-0.011,1.242-0.399,1.516-1.058l-0.058-0.141c0.127,0.012,0.264-0.006,0.401-0.06
				c0.625-0.233,0.974-0.937,1.179-1.528c0.053-0.152,0.207-0.578,0.201-0.836l0.299-0.078c0.191-0.314,0.043-0.896-0.052-1.219
				C19.684,26.117,19.624,25.977,19.559,25.84z"/>
			<g id="g2994_4_">
				<path id="path2996_4_" fill="#FFFFFF" d="M10.838,10.881l2.233-1.009c1.389-0.63,2.241-2.034,2.441-3.707l-9.07,4.108
					C7.834,11.223,9.451,11.51,10.838,10.881z"/>
				<path id="path2998_4_" d="M7.491,11.358c-0.454-0.172-0.896-0.404-1.321-0.69l0,0l-0.7-0.48l10.62-4.81l-0.102,0.844
					c-0.06,0.502-0.178,0.987-0.348,1.448l0,0c-0.434,1.16-1.241,2.126-2.369,2.636l0,0l-2.236,1.011
					c-1.128,0.51-2.38,0.48-3.538,0.042l0,0C7.495,11.358,7.493,11.358,7.491,11.358L7.491,11.358z M7.83,10.462
					c0.967,0.361,1.943,0.372,2.81-0.019l0,0l2.233-1.011C13.74,9.037,14.377,8.3,14.742,7.33l0,0
					c0.042-0.111,0.08-0.226,0.115-0.343l0,0l-7.362,3.334C7.606,10.372,7.717,10.419,7.83,10.462L7.83,10.462z"/>
			</g>
			<path id="path3008_4_" fill="#FFFFFF" d="M15.492,3.65l-0.189-0.417c-1.074-2.369-3.887-3.407-6.29-2.32L6.782,1.926
				c-2.4,1.083-3.477,3.888-2.402,6.256l0.189,0.417C4.863,9.245,5.287,9.79,5.795,10.22l10.108-4.577
				C15.912,4.975,15.784,4.296,15.492,3.65z"/>
			<path d="M15.929,3.452h-0.002l-0.189-0.417c-0.583-1.296-1.646-2.231-2.885-2.698c-1.258-0.474-2.708-0.465-4.038,0.139
				L6.582,1.485c-1.328,0.603-2.29,1.686-2.764,2.943C3.354,5.667,3.354,7.082,3.943,8.381l0.19,0.417
				c0.322,0.713,0.793,1.313,1.351,1.789l0.231,0.196l10.664-4.831l0.004-0.301C16.394,4.915,16.255,4.165,15.929,3.452z
				 M5.886,9.655c-0.362-0.352-0.661-0.771-0.88-1.254L4.819,7.984C4.337,6.925,4.335,5.778,4.715,4.765
				c0.389-1.03,1.172-1.911,2.263-2.404l2.233-1.014c1.089-0.495,2.271-0.5,3.303-0.113c1.011,0.383,1.873,1.141,2.352,2.197
				l0.189,0.417h0.004c0.217,0.483,0.333,0.987,0.359,1.489L5.886,9.655z"/>
			<path d="M20.839,21.545c-0.504-1.725-4.606-13.076-4.61-13.085l-0.178-0.489L7.3,11.936l0.252,0.456
				c0.003,0.011,5.834,10.575,6.799,12.09c0.609,0.947,1.515,1.805,2.567,2.207c0.124,0.045,0.521,0.151,0.745,0.207
				c-0.013,0.227-0.046,0.449-0.121,0.66c-0.199,0.551-0.604,1.021-1.17,1.284c-0.567,0.265-1.188,0.271-1.737,0.07
				c-0.565-0.209-1.054-0.634-1.33-1.224l-1.3-2.795c-0.272-0.713-0.504-1.197-0.79-1.672c-0.688-1.154-1.529-1.9-2.835-2.096
				c-0.137-0.035-0.317-0.059-0.521-0.076c-1.645-0.146-6.394,0.514-7.453,1.143l-0.171,0.162c-0.014,0.025-0.113,0.199-0.183,0.467
				c-0.066,0.265-0.107,0.66,0.122,1.052c0.221,0.362,0.567,0.515,0.823,0.58c0.292,0.071,0.511,0.055,0.542,0.053l0.111-0.01
				l0.347-0.065c1.506-0.298,5.126-0.897,5.706-0.757c0.371,0.093,0.633,0.222,0.863,0.438c0.128,0.134,0.255,0.293,0.363,0.461
				c0.036,0.06,0.107,0.193,0.186,0.341l1.807,3.881c0.585,1.258,1.628,2.166,2.83,2.604c1.176,0.429,2.514,0.416,3.73-0.149
				c1.213-0.565,2.091-1.576,2.521-2.754c-0.002-0.004,0-0.006,0-0.007c0.298-0.811,0.366-1.696,0.203-2.577
				c0.155-0.228,0.502-0.752,0.601-1.005C21.195,23.855,21.146,22.621,20.839,21.545z M19.102,28.162
				c-0.349,0.949-1.049,1.758-2.025,2.215c-0.977,0.453-2.045,0.465-2.995,0.119c-0.97-0.355-1.817-1.088-2.291-2.105l-1.84-3.949
				c-0.143-0.305-0.585-1.396-2.01-1.699c-0.78-0.166-5.275,0.578-6.401,0.828c-0.429,0.193-1.007-0.459-0.396-0.687
				c1.143-0.424,5.968-1.141,6.886-0.909c0.572,0.145,1.067,0.362,1.507,0.696c0.424,0.361,0.798,0.929,1.054,1.472l1.839,3.953
				c0.386,0.829,1.074,1.43,1.869,1.723c0.778,0.279,1.665,0.271,2.468-0.103c0.807-0.377,1.387-1.049,1.668-1.823
				c0.226-0.613,0.244-1.009,0.143-1.732c-0.01,0.006-0.062-0.205-0.071-0.201l0.013-0.021c0,0-0.592,0.188-1.306-0.043
				c-0.802-0.264-1.535-1.123-2.039-1.928c-0.8-1.246-5.393-9.543-6.519-11.584l6.864-3.106c0.79,2.195,3.998,11.116,4.412,12.542
				c0.269,0.9,0.291,1.974-0.009,2.755c-0.159,0.418-0.401,0.735-0.724,0.963c-0.021,0.01-0.037,0.021-0.055,0.03
				c0.002,0.006,0.002,0.013,0.004,0.017c-0.006,0.004-0.008,0.01-0.015,0.015c0,0,0.017,0.012,0.021,0.014
				C19.413,26.467,19.393,27.359,19.102,28.162z"/>
		</g>
	</g>
	<g>
		<g>
			<path fill="#F7981D" d="M19.559,25.84c1.098-0.877,1.25-2.689,0.821-4.164C19.891,20,15.781,8.62,15.781,8.62l-7.806,3.535
				c0,0,5.845,10.595,6.784,12.066c0.689,1.084,1.824,2.035,2.983,2.182l0.086,0.188c0.008-0.004,0.021-0.008,0.027-0.012
				c0.033,0.358,0.147,0.709,0.326,1.021c-0.494,0.438-1.02,0.961-1.1,1.575c-0.314,0.152-0.634,0.3-0.946,0.459
				c-0.113,0.062-0.269,0.132-0.424,0.218l0.013-0.035c-0.235-0.088-0.552-0.08-0.798-0.082c-0.151-0.002-0.324-0.008-0.499-0.002
				l0.028-0.029c-0.074-0.051-0.107-0.146-0.163-0.214c-0.139-0.165-0.355-0.308-0.542-0.407c-0.17-0.096-0.428-0.211-0.694-0.289
				c0.096-0.326-0.254-0.855-0.393-1.107c-0.172-0.316-0.381-0.615-0.646-0.862c-0.013-0.011-0.029-0.025-0.042-0.037l0.15-0.422
				c0.013,0.024,0.007,0.036-0.015,0.034c-0.135-0.145-0.479-0.834-0.889-1.492c0.007-0.467-0.402-1.03-0.643-1.383
				c-0.239-0.35-0.498-0.729-0.869-0.924l0.167-0.197c-0.209-0.438-0.95-0.549-1.367-0.573c-1.106-0.072-3.404,0.185-4.512,0.18
				c-0.678-0.002-1.355,0.033-2.007,0.229c-0.383,0.115-1.004,0.348-1.243,0.701c-0.141,0.209-0.092,0.604-0.08,0.858
				c0.022,0.396,0.595,0.332,0.898,0.365c0.598,0.067,1.158,0.045,1.747-0.104C4.15,23.85,6.15,23.311,7.012,23.21
				c0.448-0.052,0.924-0.045,1.363,0.069c0.054,0.015,0.144,0.035,0.237,0.062c0.066,0.39,0.263,0.785,0.646,0.888l0.267,0.1
				c0.004,0.037,0.007,0.078,0.013,0.109c0.097,0.559,0.443,1.067,0.763,1.521c0.1,0.142,0.218,0.267,0.326,0.397
				c-0.259,0.328,0.21,1.183,0.371,1.41c0.076,0.104,0.617,0.734,1.07,1.105c-0.172,0.225,0.001,0.611,0.152,0.814
				c0.253,0.348,0.784,0.688,1.27,0.696c0.024,0.168,0.134,0.328,0.3,0.438c0.422,0.287,0.936,0.253,1.393,0.088
				c0.254,0.226,0.783,0.259,1.048,0.257c0.732-0.011,1.242-0.399,1.516-1.058l-0.058-0.141c0.127,0.012,0.264-0.006,0.401-0.06
				c0.625-0.233,0.974-0.937,1.179-1.528c0.053-0.152,0.207-0.578,0.201-0.836l0.299-0.078c0.191-0.314,0.043-0.896-0.052-1.219
				C19.684,26.117,19.624,25.977,19.559,25.84z"/>
			<g id="g2994_3_">
				<path id="path2996_3_" fill="#FFFFFF" d="M10.838,10.881l2.233-1.009c1.389-0.63,2.241-2.034,2.441-3.707l-9.07,4.108
					C7.834,11.223,9.451,11.51,10.838,10.881z"/>
				<path id="path2998_3_" d="M7.491,11.358c-0.454-0.172-0.896-0.404-1.321-0.69l0,0l-0.7-0.48l10.62-4.81l-0.102,0.844
					c-0.06,0.502-0.178,0.987-0.348,1.448l0,0c-0.434,1.16-1.241,2.126-2.369,2.636l0,0l-2.236,1.011
					c-1.128,0.51-2.38,0.48-3.538,0.042l0,0C7.495,11.358,7.493,11.358,7.491,11.358L7.491,11.358z M7.83,10.462
					c0.967,0.361,1.943,0.372,2.81-0.019l0,0l2.233-1.011C13.74,9.037,14.377,8.3,14.742,7.33l0,0
					c0.042-0.111,0.08-0.226,0.115-0.343l0,0l-7.362,3.334C7.606,10.372,7.717,10.419,7.83,10.462L7.83,10.462z"/>
			</g>
			<path id="path3008_3_" fill="#FFFFFF" d="M15.492,3.65l-0.189-0.417c-1.074-2.369-3.887-3.407-6.29-2.32L6.782,1.926
				c-2.4,1.083-3.477,3.888-2.402,6.256l0.189,0.417C4.863,9.245,5.287,9.79,5.795,10.22l10.108-4.577
				C15.912,4.975,15.784,4.296,15.492,3.65z"/>
			<path d="M15.929,3.452h-0.002l-0.189-0.417c-0.583-1.296-1.646-2.231-2.885-2.698c-1.258-0.474-2.708-0.465-4.038,0.139
				L6.582,1.485c-1.328,0.603-2.29,1.686-2.764,2.943C3.354,5.667,3.354,7.082,3.943,8.381l0.19,0.417
				c0.322,0.713,0.793,1.313,1.351,1.789l0.231,0.196l10.664-4.831l0.004-0.301C16.394,4.915,16.255,4.165,15.929,3.452z
				 M5.886,9.655c-0.362-0.352-0.661-0.771-0.88-1.254L4.819,7.984C4.337,6.925,4.335,5.778,4.715,4.765
				c0.389-1.03,1.172-1.911,2.263-2.404l2.233-1.014c1.089-0.495,2.271-0.5,3.303-0.113c1.011,0.383,1.873,1.141,2.352,2.197
				l0.189,0.417h0.004c0.217,0.483,0.333,0.987,0.359,1.489L5.886,9.655z"/>
			<path d="M20.839,21.545c-0.504-1.725-4.606-13.076-4.61-13.085l-0.178-0.489L7.3,11.936l0.252,0.456
				c0.003,0.011,5.834,10.575,6.799,12.09c0.609,0.947,1.515,1.805,2.567,2.207c0.124,0.045,0.521,0.151,0.745,0.207
				c-0.013,0.227-0.046,0.449-0.121,0.66c-0.199,0.551-0.604,1.021-1.17,1.284c-0.567,0.265-1.188,0.271-1.737,0.07
				c-0.565-0.209-1.054-0.634-1.33-1.224l-1.3-2.795c-0.272-0.713-0.504-1.197-0.79-1.672c-0.688-1.154-1.529-1.9-2.835-2.096
				c-0.137-0.035-0.317-0.059-0.521-0.076c-1.645-0.146-6.394,0.514-7.453,1.143l-0.171,0.162c-0.014,0.025-0.113,0.199-0.183,0.467
				c-0.066,0.265-0.107,0.66,0.122,1.052c0.221,0.362,0.567,0.515,0.823,0.58c0.292,0.071,0.511,0.055,0.542,0.053l0.111-0.01
				l0.347-0.065c1.506-0.298,5.126-0.897,5.706-0.757c0.371,0.093,0.633,0.222,0.863,0.438c0.128,0.134,0.255,0.293,0.363,0.461
				c0.036,0.06,0.107,0.193,0.186,0.341l1.807,3.881c0.585,1.258,1.628,2.166,2.83,2.604c1.176,0.429,2.514,0.416,3.73-0.149
				c1.213-0.565,2.091-1.576,2.521-2.754c-0.002-0.004,0-0.006,0-0.007c0.298-0.811,0.366-1.696,0.203-2.577
				c0.155-0.228,0.502-0.752,0.601-1.005C21.195,23.855,21.146,22.621,20.839,21.545z M19.102,28.162
				c-0.349,0.949-1.049,1.758-2.025,2.215c-0.977,0.453-2.045,0.465-2.995,0.119c-0.97-0.355-1.817-1.088-2.291-2.105l-1.84-3.949
				c-0.143-0.305-0.585-1.396-2.01-1.699c-0.78-0.166-5.275,0.578-6.401,0.828c-0.429,0.193-1.007-0.459-0.396-0.687
				c1.143-0.424,5.968-1.141,6.886-0.909c0.572,0.145,1.067,0.362,1.507,0.696c0.424,0.361,0.798,0.929,1.054,1.472l1.839,3.953
				c0.386,0.829,1.074,1.43,1.869,1.723c0.778,0.279,1.665,0.271,2.468-0.103c0.807-0.377,1.387-1.049,1.668-1.823
				c0.226-0.613,0.244-1.009,0.143-1.732c-0.01,0.006-0.062-0.205-0.071-0.201l0.013-0.021c0,0-0.592,0.188-1.306-0.043
				c-0.802-0.264-1.535-1.123-2.039-1.928c-0.8-1.246-5.393-9.543-6.519-11.584l6.864-3.106c0.79,2.195,3.998,11.116,4.412,12.542
				c0.269,0.9,0.291,1.974-0.009,2.755c-0.159,0.418-0.401,0.735-0.724,0.963c-0.021,0.01-0.037,0.021-0.055,0.03
				c0.002,0.006,0.002,0.013,0.004,0.017c-0.006,0.004-0.008,0.01-0.015,0.015c0,0,0.017,0.012,0.021,0.014
				C19.413,26.467,19.393,27.359,19.102,28.162z"/>
		</g>
	</g>
	<g>
		<g>
			<path fill="#F7981D" d="M19.559,25.84c1.098-0.877,1.25-2.689,0.821-4.164C19.891,20,15.781,8.62,15.781,8.62l-7.806,3.535
				c0,0,5.845,10.595,6.784,12.066c0.689,1.084,1.824,2.035,2.983,2.182l0.086,0.188c0.008-0.004,0.021-0.008,0.027-0.012
				c0.033,0.358,0.147,0.709,0.326,1.021c-0.494,0.438-1.02,0.961-1.1,1.575c-0.314,0.152-0.634,0.3-0.946,0.459
				c-0.113,0.062-0.269,0.132-0.424,0.218l0.013-0.035c-0.235-0.088-0.552-0.08-0.798-0.082c-0.151-0.002-0.324-0.008-0.499-0.002
				l0.028-0.029c-0.074-0.051-0.107-0.146-0.163-0.214c-0.139-0.165-0.355-0.308-0.542-0.407c-0.17-0.096-0.428-0.211-0.694-0.289
				c0.096-0.326-0.254-0.855-0.393-1.107c-0.172-0.316-0.381-0.615-0.646-0.862c-0.013-0.011-0.029-0.025-0.042-0.037l0.15-0.422
				c0.013,0.024,0.007,0.036-0.015,0.034c-0.135-0.145-0.479-0.834-0.889-1.492c0.007-0.467-0.402-1.03-0.643-1.383
				c-0.239-0.35-0.498-0.729-0.869-0.924l0.167-0.197c-0.209-0.438-0.95-0.549-1.367-0.573c-1.106-0.072-3.404,0.185-4.512,0.18
				c-0.678-0.002-1.355,0.033-2.007,0.229c-0.383,0.115-1.004,0.348-1.243,0.701c-0.141,0.209-0.092,0.604-0.08,0.858
				c0.022,0.396,0.595,0.332,0.898,0.365c0.598,0.067,1.158,0.045,1.747-0.104C4.15,23.85,6.15,23.311,7.012,23.21
				c0.448-0.052,0.924-0.045,1.363,0.069c0.054,0.015,0.144,0.035,0.237,0.062c0.066,0.39,0.263,0.785,0.646,0.888l0.267,0.1
				c0.004,0.037,0.007,0.078,0.013,0.109c0.097,0.559,0.443,1.067,0.763,1.521c0.1,0.142,0.218,0.267,0.326,0.397
				c-0.259,0.328,0.21,1.183,0.371,1.41c0.076,0.104,0.617,0.734,1.07,1.105c-0.172,0.225,0.001,0.611,0.152,0.814
				c0.253,0.348,0.784,0.688,1.27,0.696c0.024,0.168,0.134,0.328,0.3,0.438c0.422,0.287,0.936,0.253,1.393,0.088
				c0.254,0.226,0.783,0.259,1.048,0.257c0.732-0.011,1.242-0.399,1.516-1.058l-0.058-0.141c0.127,0.012,0.264-0.006,0.401-0.06
				c0.625-0.233,0.974-0.937,1.179-1.528c0.053-0.152,0.207-0.578,0.201-0.836l0.299-0.078c0.191-0.314,0.043-0.896-0.052-1.219
				C19.684,26.117,19.624,25.977,19.559,25.84z"/>
			<g id="g2994_2_">
				<path id="path2996_2_" fill="#FFFFFF" d="M10.838,10.881l2.233-1.009c1.389-0.63,2.241-2.034,2.441-3.707l-9.07,4.108
					C7.834,11.223,9.451,11.51,10.838,10.881z"/>
				<path id="path2998_2_" d="M7.491,11.358c-0.454-0.172-0.896-0.404-1.321-0.69l0,0l-0.7-0.48l10.62-4.81l-0.102,0.844
					c-0.06,0.502-0.178,0.987-0.348,1.448l0,0c-0.434,1.16-1.241,2.126-2.369,2.636l0,0l-2.236,1.011
					c-1.128,0.51-2.38,0.48-3.538,0.042l0,0C7.495,11.358,7.493,11.358,7.491,11.358L7.491,11.358z M7.83,10.462
					c0.967,0.361,1.943,0.372,2.81-0.019l0,0l2.233-1.011C13.74,9.037,14.377,8.3,14.742,7.33l0,0
					c0.042-0.111,0.08-0.226,0.115-0.343l0,0l-7.362,3.334C7.606,10.372,7.717,10.419,7.83,10.462L7.83,10.462z"/>
			</g>
			<path id="path3008_2_" fill="#FFFFFF" d="M15.492,3.65l-0.189-0.417c-1.074-2.369-3.887-3.407-6.29-2.32L6.782,1.926
				c-2.4,1.083-3.477,3.888-2.402,6.256l0.189,0.417C4.863,9.245,5.287,9.79,5.795,10.22l10.108-4.577
				C15.912,4.975,15.784,4.296,15.492,3.65z"/>
			<path d="M15.929,3.452h-0.002l-0.189-0.417c-0.583-1.296-1.646-2.231-2.885-2.698c-1.258-0.474-2.708-0.465-4.038,0.139
				L6.582,1.485c-1.328,0.603-2.29,1.686-2.764,2.943C3.354,5.667,3.354,7.082,3.943,8.381l0.19,0.417
				c0.322,0.713,0.793,1.313,1.351,1.789l0.231,0.196l10.664-4.831l0.004-0.301C16.394,4.915,16.255,4.165,15.929,3.452z
				 M5.886,9.655c-0.362-0.352-0.661-0.771-0.88-1.254L4.819,7.984C4.337,6.925,4.335,5.778,4.715,4.765
				c0.389-1.03,1.172-1.911,2.263-2.404l2.233-1.014c1.089-0.495,2.271-0.5,3.303-0.113c1.011,0.383,1.873,1.141,2.352,2.197
				l0.189,0.417h0.004c0.217,0.483,0.333,0.987,0.359,1.489L5.886,9.655z"/>
			<path d="M20.839,21.545c-0.504-1.725-4.606-13.076-4.61-13.085l-0.178-0.489L7.3,11.936l0.252,0.456
				c0.003,0.011,5.834,10.575,6.799,12.09c0.609,0.947,1.515,1.805,2.567,2.207c0.124,0.045,0.521,0.151,0.745,0.207
				c-0.013,0.227-0.046,0.449-0.121,0.66c-0.199,0.551-0.604,1.021-1.17,1.284c-0.567,0.265-1.188,0.271-1.737,0.07
				c-0.565-0.209-1.054-0.634-1.33-1.224l-1.3-2.795c-0.272-0.713-0.504-1.197-0.79-1.672c-0.688-1.154-1.529-1.9-2.835-2.096
				c-0.137-0.035-0.317-0.059-0.521-0.076c-1.645-0.146-6.394,0.514-7.453,1.143l-0.171,0.162c-0.014,0.025-0.113,0.199-0.183,0.467
				c-0.066,0.265-0.107,0.66,0.122,1.052c0.221,0.362,0.567,0.515,0.823,0.58c0.292,0.071,0.511,0.055,0.542,0.053l0.111-0.01
				l0.347-0.065c1.506-0.298,5.126-0.897,5.706-0.757c0.371,0.093,0.633,0.222,0.863,0.438c0.128,0.134,0.255,0.293,0.363,0.461
				c0.036,0.06,0.107,0.193,0.186,0.341l1.807,3.881c0.585,1.258,1.628,2.166,2.83,2.604c1.176,0.429,2.514,0.416,3.73-0.149
				c1.213-0.565,2.091-1.576,2.521-2.754c-0.002-0.004,0-0.006,0-0.007c0.298-0.811,0.366-1.696,0.203-2.577
				c0.155-0.228,0.502-0.752,0.601-1.005C21.195,23.855,21.146,22.621,20.839,21.545z M19.102,28.162
				c-0.349,0.949-1.049,1.758-2.025,2.215c-0.977,0.453-2.045,0.465-2.995,0.119c-0.97-0.355-1.817-1.088-2.291-2.105l-1.84-3.949
				c-0.143-0.305-0.585-1.396-2.01-1.699c-0.78-0.166-5.275,0.578-6.401,0.828c-0.429,0.193-1.007-0.459-0.396-0.687
				c1.143-0.424,5.968-1.141,6.886-0.909c0.572,0.145,1.067,0.362,1.507,0.696c0.424,0.361,0.798,0.929,1.054,1.472l1.839,3.953
				c0.386,0.829,1.074,1.43,1.869,1.723c0.778,0.279,1.665,0.271,2.468-0.103c0.807-0.377,1.387-1.049,1.668-1.823
				c0.226-0.613,0.244-1.009,0.143-1.732c-0.01,0.006-0.062-0.205-0.071-0.201l0.013-0.021c0,0-0.592,0.188-1.306-0.043
				c-0.802-0.264-1.535-1.123-2.039-1.928c-0.8-1.246-5.393-9.543-6.519-11.584l6.864-3.106c0.79,2.195,3.998,11.116,4.412,12.542
				c0.269,0.9,0.291,1.974-0.009,2.755c-0.159,0.418-0.401,0.735-0.724,0.963c-0.021,0.01-0.037,0.021-0.055,0.03
				c0.002,0.006,0.002,0.013,0.004,0.017c-0.006,0.004-0.008,0.01-0.015,0.015c0,0,0.017,0.012,0.021,0.014
				C19.413,26.467,19.393,27.359,19.102,28.162z"/>
		</g>
	</g>
	<g>
		<g>
			<path fill="#F7981D" d="M19.559,25.84c1.098-0.877,1.25-2.689,0.821-4.164C19.891,20,15.781,8.62,15.781,8.62l-7.806,3.535
				c0,0,5.845,10.595,6.784,12.066c0.689,1.084,1.824,2.035,2.983,2.182l0.086,0.188c0.008-0.004,0.021-0.008,0.027-0.012
				c0.033,0.358,0.147,0.709,0.326,1.021c-0.494,0.438-1.02,0.961-1.1,1.575c-0.314,0.152-0.634,0.3-0.946,0.459
				c-0.113,0.062-0.269,0.132-0.424,0.218l0.013-0.035c-0.235-0.088-0.552-0.08-0.798-0.082c-0.151-0.002-0.324-0.008-0.499-0.002
				l0.028-0.029c-0.074-0.051-0.107-0.146-0.163-0.214c-0.139-0.165-0.355-0.308-0.542-0.407c-0.17-0.096-0.428-0.211-0.694-0.289
				c0.096-0.326-0.254-0.855-0.393-1.107c-0.172-0.316-0.381-0.615-0.646-0.862c-0.013-0.011-0.029-0.025-0.042-0.037l0.15-0.422
				c0.013,0.024,0.007,0.036-0.015,0.034c-0.135-0.145-0.479-0.834-0.889-1.492c0.007-0.467-0.402-1.03-0.643-1.383
				c-0.239-0.35-0.498-0.729-0.869-0.924l0.167-0.197c-0.209-0.438-0.95-0.549-1.367-0.573c-1.106-0.072-3.404,0.185-4.512,0.18
				c-0.678-0.002-1.355,0.033-2.007,0.229c-0.383,0.115-1.004,0.348-1.243,0.701c-0.141,0.209-0.092,0.604-0.08,0.858
				c0.022,0.396,0.595,0.332,0.898,0.365c0.598,0.067,1.158,0.045,1.747-0.104C4.15,23.85,6.15,23.311,7.012,23.21
				c0.448-0.052,0.924-0.045,1.363,0.069c0.054,0.015,0.144,0.035,0.237,0.062c0.066,0.39,0.263,0.785,0.646,0.888l0.267,0.1
				c0.004,0.037,0.007,0.078,0.013,0.109c0.097,0.559,0.443,1.067,0.763,1.521c0.1,0.142,0.218,0.267,0.326,0.397
				c-0.259,0.328,0.21,1.183,0.371,1.41c0.076,0.104,0.617,0.734,1.07,1.105c-0.172,0.225,0.001,0.611,0.152,0.814
				c0.253,0.348,0.784,0.688,1.27,0.696c0.024,0.168,0.134,0.328,0.3,0.438c0.422,0.287,0.936,0.253,1.393,0.088
				c0.254,0.226,0.783,0.259,1.048,0.257c0.732-0.011,1.242-0.399,1.516-1.058l-0.058-0.141c0.127,0.012,0.264-0.006,0.401-0.06
				c0.625-0.233,0.974-0.937,1.179-1.528c0.053-0.152,0.207-0.578,0.201-0.836l0.299-0.078c0.191-0.314,0.043-0.896-0.052-1.219
				C19.684,26.117,19.624,25.977,19.559,25.84z"/>
			<g id="g2994_1_">
				<path id="path2996_1_" fill="#FFFFFF" d="M10.838,10.881l2.233-1.009c1.389-0.63,2.241-2.034,2.441-3.707l-9.07,4.108
					C7.834,11.223,9.451,11.51,10.838,10.881z"/>
				<path id="path2998_1_" d="M7.491,11.358c-0.454-0.172-0.896-0.404-1.321-0.69l0,0l-0.7-0.48l10.62-4.81l-0.102,0.844
					c-0.06,0.502-0.178,0.987-0.348,1.448l0,0c-0.434,1.16-1.241,2.126-2.369,2.636l0,0l-2.236,1.011
					c-1.128,0.51-2.38,0.48-3.538,0.042l0,0C7.495,11.358,7.493,11.358,7.491,11.358L7.491,11.358z M7.83,10.462
					c0.967,0.361,1.943,0.372,2.81-0.019l0,0l2.233-1.011C13.74,9.037,14.377,8.3,14.742,7.33l0,0
					c0.042-0.111,0.08-0.226,0.115-0.343l0,0l-7.362,3.334C7.606,10.372,7.717,10.419,7.83,10.462L7.83,10.462z"/>
			</g>
			<path id="path3008_1_" fill="#FFFFFF" d="M15.492,3.65l-0.189-0.417c-1.074-2.369-3.887-3.407-6.29-2.32L6.782,1.926
				c-2.4,1.083-3.477,3.888-2.402,6.256l0.189,0.417C4.863,9.245,5.287,9.79,5.795,10.22l10.108-4.577
				C15.912,4.975,15.784,4.296,15.492,3.65z"/>
			<path d="M15.929,3.452h-0.002l-0.189-0.417c-0.583-1.296-1.646-2.231-2.885-2.698c-1.258-0.474-2.708-0.465-4.038,0.139
				L6.582,1.485c-1.328,0.603-2.29,1.686-2.764,2.943C3.354,5.667,3.354,7.082,3.943,8.381l0.19,0.417
				c0.322,0.713,0.793,1.313,1.351,1.789l0.231,0.196l10.664-4.831l0.004-0.301C16.394,4.915,16.255,4.165,15.929,3.452z
				 M5.886,9.655c-0.362-0.352-0.661-0.771-0.88-1.254L4.819,7.984C4.337,6.925,4.335,5.778,4.715,4.765
				c0.389-1.03,1.172-1.911,2.263-2.404l2.233-1.014c1.089-0.495,2.271-0.5,3.303-0.113c1.011,0.383,1.873,1.141,2.352,2.197
				l0.189,0.417h0.004c0.217,0.483,0.333,0.987,0.359,1.489L5.886,9.655z"/>
			<path d="M20.839,21.545c-0.504-1.725-4.606-13.076-4.61-13.085l-0.178-0.489L7.3,11.936l0.252,0.456
				c0.003,0.011,5.834,10.575,6.799,12.09c0.609,0.947,1.515,1.805,2.567,2.207c0.124,0.045,0.521,0.151,0.745,0.207
				c-0.013,0.227-0.046,0.449-0.121,0.66c-0.199,0.551-0.604,1.021-1.17,1.284c-0.567,0.265-1.188,0.271-1.737,0.07
				c-0.565-0.209-1.054-0.634-1.33-1.224l-1.3-2.795c-0.272-0.713-0.504-1.197-0.79-1.672c-0.688-1.154-1.529-1.9-2.835-2.096
				c-0.137-0.035-0.317-0.059-0.521-0.076c-1.645-0.146-6.394,0.514-7.453,1.143l-0.171,0.162c-0.014,0.025-0.113,0.199-0.183,0.467
				c-0.066,0.265-0.107,0.66,0.122,1.052c0.221,0.362,0.567,0.515,0.823,0.58c0.292,0.071,0.511,0.055,0.542,0.053l0.111-0.01
				l0.347-0.065c1.506-0.298,5.126-0.897,5.706-0.757c0.371,0.093,0.633,0.222,0.863,0.438c0.128,0.134,0.255,0.293,0.363,0.461
				c0.036,0.06,0.107,0.193,0.186,0.341l1.807,3.881c0.585,1.258,1.628,2.166,2.83,2.604c1.176,0.429,2.514,0.416,3.73-0.149
				c1.213-0.565,2.091-1.576,2.521-2.754c-0.002-0.004,0-0.006,0-0.007c0.298-0.811,0.366-1.696,0.203-2.577
				c0.155-0.228,0.502-0.752,0.601-1.005C21.195,23.855,21.146,22.621,20.839,21.545z M19.102,28.162
				c-0.349,0.949-1.049,1.758-2.025,2.215c-0.977,0.453-2.045,0.465-2.995,0.119c-0.97-0.355-1.817-1.088-2.291-2.105l-1.84-3.949
				c-0.143-0.305-0.585-1.396-2.01-1.699c-0.78-0.166-5.275,0.578-6.401,0.828c-0.429,0.193-1.007-0.459-0.396-0.687
				c1.143-0.424,5.968-1.141,6.886-0.909c0.572,0.145,1.067,0.362,1.507,0.696c0.424,0.361,0.798,0.929,1.054,1.472l1.839,3.953
				c0.386,0.829,1.074,1.43,1.869,1.723c0.778,0.279,1.665,0.271,2.468-0.103c0.807-0.377,1.387-1.049,1.668-1.823
				c0.226-0.613,0.244-1.009,0.143-1.732c-0.01,0.006-0.062-0.205-0.071-0.201l0.013-0.021c0,0-0.592,0.188-1.306-0.043
				c-0.802-0.264-1.535-1.123-2.039-1.928c-0.8-1.246-5.393-9.543-6.519-11.584l6.864-3.106c0.79,2.195,3.998,11.116,4.412,12.542
				c0.269,0.9,0.291,1.974-0.009,2.755c-0.159,0.418-0.401,0.735-0.724,0.963c-0.021,0.01-0.037,0.021-0.055,0.03
				c0.002,0.006,0.002,0.013,0.004,0.017c-0.006,0.004-0.008,0.01-0.015,0.015c0,0,0.017,0.012,0.021,0.014
				C19.413,26.467,19.393,27.359,19.102,28.162z"/>
		</g>
	</g>
	<g>
		<g>
			<path fill="#FFE600" d="M29.945,2.666l-2.854,0.523l-1.5-1.675l0,0L25.26,1.146c-0.228-0.255-0.449-0.196-0.516,0.144
				l-0.229,1.206l0,0l-0.281,1.489l-2.37,1.046L21.7,5.102c-0.313,0.141-0.322,0.347-0.021,0.513l0.285,0.157l2.146,1.172
				l0.119,1.152l0.155,1.557c0.033,0.344,0.271,0.43,0.521,0.195l0.213-0.2h0.002l1.053-0.994l0.049-0.046l0.668-0.63l2.773,0.757
				C30,8.808,30.206,8.59,30.061,8.278l-1.328-2.621l1.551-2.512C30.454,2.846,30.287,2.624,29.945,2.666z"/>
			<path d="M24.636,10.407c-0.3,0-0.626-0.22-0.674-0.713l-0.254-2.483l-2.233-1.222c-0.396-0.219-0.447-0.506-0.439-0.657
				c0.005-0.151,0.076-0.433,0.49-0.619l2.334-1.028l0.469-2.475c0.089-0.478,0.4-0.649,0.663-0.649c0.146,0,0.366,0.052,0.589,0.3
				l1.67,1.864l2.779-0.492c0.291,0,0.531,0.127,0.66,0.349c0.131,0.227,0.117,0.509-0.039,0.776l-1.432,2.319l1.221,2.407
				c0.129,0.274,0.123,0.548-0.015,0.762c-0.166,0.262-0.495,0.382-0.854,0.305l-2.564-0.7l-1.811,1.707
				C24.979,10.363,24.771,10.407,24.636,10.407L24.636,10.407z M22.134,5.377l2.376,1.299l0.275,2.695l1.982-1.87l2.803,0.766
				l-1.328-2.631l1.544-2.501l-2.854,0.516L25.12,1.627l-0.506,2.657L22.134,5.377L22.134,5.377z"/>
		</g>
	</g>
</g>
</svg>
