<?xml version="1.0" encoding="utf-8"?>
<!-- Generator: Adobe Illustrator 14.0.0, SVG Export Plug-In . SVG Version: 6.00 Build 43363)  -->
<!DOCTYPE svg PUBLIC "-//W3C//DTD SVG 1.1//EN" "http://www.w3.org/Graphics/SVG/1.1/DTD/svg11.dtd">
<svg version="1.1" id="audio" xmlns="http://www.w3.org/2000/svg" xmlns:xlink="http://www.w3.org/1999/xlink" x="0px" y="0px"
	 width="32px" height="32px" viewBox="0 0 32 32" enable-background="new 0 0 32 32" xml:space="preserve">
<g>
	<path fill="#F7981D" d="M19.556,26.109c1.099-0.876,1.251-2.689,0.823-4.163C19.888,20.27,15.78,8.889,15.78,8.889l-7.806,3.535
		c0,0,5.845,10.596,6.784,12.066c0.689,1.084,1.824,2.036,2.983,2.182l0.086,0.188c0.008-0.004,0.02-0.009,0.028-0.013
		c0.033,0.36,0.148,0.709,0.326,1.021c-0.494,0.437-1.019,0.961-1.099,1.575c-0.314,0.152-0.634,0.299-0.946,0.46
		c-0.113,0.06-0.269,0.131-0.424,0.217l0.013-0.036c-0.235-0.088-0.552-0.079-0.798-0.081C14.776,30,14.603,29.995,14.428,30
		l0.028-0.029c-0.074-0.051-0.107-0.146-0.163-0.214c-0.139-0.165-0.355-0.307-0.542-0.408c-0.17-0.095-0.428-0.21-0.694-0.288
		c0.096-0.326-0.254-0.857-0.393-1.108c-0.172-0.317-0.381-0.615-0.646-0.863c-0.013-0.011-0.029-0.025-0.042-0.037l0.15-0.422
		c0.013,0.025,0.007,0.036-0.015,0.034c-0.135-0.144-0.479-0.833-0.889-1.492c0.007-0.467-0.402-1.03-0.643-1.382
		c-0.239-0.35-0.498-0.728-0.869-0.924l0.167-0.198c-0.209-0.436-0.95-0.549-1.367-0.574c-1.106-0.072-3.404,0.185-4.512,0.18
		c-0.678-0.002-1.355,0.033-2.007,0.229c-0.383,0.115-1.004,0.347-1.243,0.702c-0.141,0.209-0.092,0.605-0.08,0.859
		c0.022,0.395,0.595,0.332,0.898,0.364c0.598,0.069,1.158,0.045,1.747-0.104c0.837-0.209,2.837-0.748,3.699-0.848
		c0.448-0.052,0.924-0.045,1.363,0.07c0.054,0.013,0.144,0.035,0.237,0.061c0.066,0.388,0.263,0.784,0.646,0.886l0.267,0.1
		c0.004,0.037,0.007,0.078,0.013,0.109c0.097,0.559,0.443,1.069,0.763,1.521c0.1,0.142,0.218,0.266,0.326,0.398
		c-0.259,0.328,0.21,1.182,0.371,1.41c0.076,0.105,0.617,0.736,1.07,1.106c-0.172,0.225,0.001,0.613,0.152,0.815
		c0.253,0.348,0.784,0.69,1.27,0.698c0.024,0.167,0.134,0.328,0.3,0.438c0.422,0.287,0.936,0.253,1.393,0.088
		c0.254,0.226,0.783,0.259,1.048,0.257c0.732-0.01,1.241-0.401,1.516-1.058l-0.057-0.139c0.126,0.011,0.263-0.007,0.402-0.06
		c0.625-0.233,0.973-0.937,1.178-1.529c0.052-0.152,0.207-0.578,0.201-0.835l0.298-0.078c0.193-0.315,0.043-0.898-0.05-1.219
		C19.681,26.387,19.623,26.246,19.556,26.109z"/>
	<g id="g2994_8_">
		<path id="path2996_8_" fill="#CCCBCB" d="M10.837,11.15l2.233-1.009c1.389-0.63,2.241-2.034,2.441-3.707l-9.07,4.108
			C7.833,11.492,9.45,11.779,10.837,11.15z"/>
		<path id="path2998_8_" d="M7.49,11.627c-0.454-0.172-0.896-0.404-1.321-0.69l0,0l-0.7-0.48l10.62-4.81l-0.102,0.844
			c-0.06,0.502-0.178,0.987-0.348,1.448l0,0c-0.434,1.16-1.241,2.126-2.369,2.636l0,0l-2.236,1.011
			c-1.128,0.51-2.38,0.48-3.538,0.042l0,0C7.494,11.627,7.492,11.627,7.49,11.627L7.49,11.627z M7.829,10.731
			c0.967,0.361,1.943,0.372,2.81-0.019l0,0l2.233-1.011c0.867-0.395,1.504-1.132,1.869-2.102l0,0
			c0.042-0.111,0.08-0.226,0.115-0.343l0,0l-7.362,3.334C7.605,10.641,7.716,10.688,7.829,10.731L7.829,10.731z"/>
	</g>
	<path id="path3008_8_" fill="#CCCBCB" d="M15.491,3.919l-0.189-0.417c-1.074-2.369-3.887-3.407-6.29-2.32L6.781,2.195
		c-2.4,1.083-3.477,3.888-2.402,6.256l0.189,0.417c0.294,0.646,0.718,1.191,1.226,1.621l10.108-4.577
		C15.911,5.244,15.783,4.565,15.491,3.919z"/>
	<path d="M15.928,3.721h-0.002l-0.189-0.417c-0.583-1.296-1.646-2.231-2.885-2.698c-1.258-0.474-2.708-0.465-4.038,0.139
		L6.581,1.754c-1.328,0.603-2.29,1.686-2.764,2.943C3.353,5.936,3.353,7.351,3.942,8.65l0.19,0.417
		c0.322,0.713,0.793,1.313,1.351,1.789l0.231,0.196l10.664-4.831l0.004-0.301C16.393,5.184,16.254,4.434,15.928,3.721z M5.885,9.924
		C5.523,9.572,5.224,9.153,5.005,8.67L4.818,8.253C4.336,7.194,4.334,6.047,4.714,5.034c0.389-1.03,1.172-1.911,2.263-2.404
		L9.21,1.616c1.089-0.495,2.271-0.5,3.303-0.113c1.011,0.383,1.873,1.141,2.352,2.197l0.189,0.417h0.004
		c0.217,0.483,0.333,0.987,0.359,1.489L5.885,9.924z"/>
	<path d="M20.838,21.814c-0.504-1.723-4.606-13.076-4.61-13.085L16.05,8.24l-8.751,3.965l0.252,0.456
		c0.003,0.011,5.834,10.575,6.799,12.092c0.609,0.946,1.515,1.804,2.567,2.206c0.124,0.045,0.521,0.152,0.745,0.208
		c-0.012,0.226-0.046,0.449-0.121,0.66c-0.199,0.551-0.605,1.021-1.17,1.285c-0.567,0.263-1.188,0.269-1.737,0.069
		c-0.565-0.209-1.054-0.632-1.33-1.223l-1.3-2.795c-0.272-0.712-0.504-1.197-0.79-1.672c-0.688-1.154-1.529-1.9-2.835-2.095
		c-0.137-0.034-0.317-0.058-0.521-0.076c-1.645-0.145-6.394,0.514-7.453,1.143l-0.171,0.162c-0.014,0.026-0.113,0.199-0.183,0.466
		c-0.066,0.265-0.107,0.66,0.122,1.052c0.221,0.362,0.567,0.514,0.823,0.579c0.292,0.073,0.511,0.056,0.542,0.054l0.111-0.01
		l0.347-0.067c1.506-0.296,5.126-0.897,5.706-0.756c0.371,0.093,0.633,0.221,0.863,0.439c0.128,0.133,0.255,0.294,0.363,0.461
		c0.036,0.06,0.107,0.193,0.186,0.341l1.807,3.88c0.585,1.258,1.628,2.166,2.83,2.606c1.176,0.428,2.514,0.415,3.731-0.15
		c1.213-0.566,2.09-1.577,2.52-2.754c-0.002-0.004,0-0.006,0-0.007c0.298-0.81,0.366-1.696,0.203-2.577
		c0.157-0.227,0.502-0.752,0.599-1.005C21.195,24.126,21.145,22.891,20.838,21.814z M19.099,28.432
		c-0.347,0.949-1.047,1.757-2.025,2.215c-0.977,0.452-2.045,0.465-2.995,0.119c-0.97-0.356-1.817-1.088-2.291-2.106l-1.839-3.948
		c-0.143-0.305-0.585-1.396-2.01-1.7c-0.78-0.167-5.275,0.578-6.401,0.829c-0.429,0.192-1.007-0.459-0.396-0.687
		c1.143-0.424,5.968-1.14,6.886-0.909c0.572,0.144,1.067,0.362,1.507,0.696c0.424,0.362,0.798,0.928,1.054,1.472l1.839,3.952
		c0.386,0.83,1.074,1.431,1.869,1.723c0.778,0.28,1.665,0.271,2.466-0.102c0.808-0.376,1.387-1.048,1.669-1.824
		c0.225-0.612,0.245-1.008,0.142-1.733c-0.01,0.006-0.063-0.205-0.071-0.2l0.012-0.022c0,0-0.591,0.188-1.305-0.044
		c-0.802-0.263-1.535-1.122-2.039-1.926c-0.8-1.247-5.393-9.544-6.519-11.585l6.864-3.106c0.79,2.195,3.998,11.115,4.412,12.541
		c0.268,0.901,0.29,1.974-0.009,2.755c-0.159,0.418-0.401,0.736-0.724,0.963c-0.02,0.01-0.037,0.02-0.054,0.03
		c0.002,0.006,0.002,0.012,0.004,0.017c-0.006,0.004-0.008,0.009-0.014,0.013c0,0,0.015,0.012,0.019,0.014
		C19.412,26.737,19.391,27.63,19.099,28.432z"/>
</g>
<g>
	<path fill="#F7981D" d="M19.556,26.109c1.099-0.876,1.251-2.689,0.823-4.163C19.888,20.27,15.78,8.889,15.78,8.889l-7.806,3.535
		c0,0,5.845,10.596,6.784,12.066c0.689,1.084,1.824,2.036,2.983,2.182l0.086,0.188c0.008-0.004,0.02-0.009,0.028-0.013
		c0.033,0.36,0.148,0.709,0.326,1.021c-0.494,0.437-1.019,0.961-1.099,1.575c-0.314,0.152-0.634,0.299-0.946,0.46
		c-0.113,0.06-0.269,0.131-0.424,0.217l0.013-0.036c-0.235-0.088-0.552-0.079-0.798-0.081C14.776,30,14.603,29.995,14.428,30
		l0.028-0.029c-0.074-0.051-0.107-0.146-0.163-0.214c-0.139-0.165-0.355-0.307-0.542-0.408c-0.17-0.095-0.428-0.21-0.694-0.288
		c0.096-0.326-0.254-0.857-0.393-1.108c-0.172-0.317-0.381-0.615-0.646-0.863c-0.013-0.011-0.029-0.025-0.042-0.037l0.15-0.422
		c0.013,0.025,0.007,0.036-0.015,0.034c-0.135-0.144-0.479-0.833-0.889-1.492c0.007-0.467-0.402-1.03-0.643-1.382
		c-0.239-0.35-0.498-0.728-0.869-0.924l0.167-0.198c-0.209-0.436-0.95-0.549-1.367-0.574c-1.106-0.072-3.404,0.185-4.512,0.18
		c-0.678-0.002-1.355,0.033-2.007,0.229c-0.383,0.115-1.004,0.347-1.243,0.702c-0.141,0.209-0.092,0.605-0.08,0.859
		c0.022,0.395,0.595,0.332,0.898,0.364c0.598,0.069,1.158,0.045,1.747-0.104c0.837-0.209,2.837-0.748,3.699-0.848
		c0.448-0.052,0.924-0.045,1.363,0.07c0.054,0.013,0.144,0.035,0.237,0.061c0.066,0.388,0.263,0.784,0.646,0.886l0.267,0.1
		c0.004,0.037,0.007,0.078,0.013,0.109c0.097,0.559,0.443,1.069,0.763,1.521c0.1,0.142,0.218,0.266,0.326,0.398
		c-0.259,0.328,0.21,1.182,0.371,1.41c0.076,0.105,0.617,0.736,1.07,1.106c-0.172,0.225,0.001,0.613,0.152,0.815
		c0.253,0.348,0.784,0.69,1.27,0.698c0.024,0.167,0.134,0.328,0.3,0.438c0.422,0.287,0.936,0.253,1.393,0.088
		c0.254,0.226,0.783,0.259,1.048,0.257c0.732-0.01,1.241-0.401,1.516-1.058l-0.057-0.139c0.126,0.011,0.263-0.007,0.402-0.06
		c0.625-0.233,0.973-0.937,1.178-1.529c0.052-0.152,0.207-0.578,0.201-0.835l0.298-0.078c0.193-0.315,0.043-0.898-0.05-1.219
		C19.681,26.387,19.623,26.246,19.556,26.109z"/>
	<g id="g2994_7_">
		<path id="path2996_7_" fill="#CCCBCB" d="M10.837,11.15l2.233-1.009c1.389-0.63,2.241-2.034,2.441-3.707l-9.07,4.108
			C7.833,11.492,9.45,11.779,10.837,11.15z"/>
		<path id="path2998_7_" d="M7.49,11.627c-0.454-0.172-0.896-0.404-1.321-0.69l0,0l-0.7-0.48l10.62-4.81l-0.102,0.844
			c-0.06,0.502-0.178,0.987-0.348,1.448l0,0c-0.434,1.16-1.241,2.126-2.369,2.636l0,0l-2.236,1.011
			c-1.128,0.51-2.38,0.48-3.538,0.042l0,0C7.494,11.627,7.492,11.627,7.49,11.627L7.49,11.627z M7.829,10.731
			c0.967,0.361,1.943,0.372,2.81-0.019l0,0l2.233-1.011c0.867-0.395,1.504-1.132,1.869-2.102l0,0
			c0.042-0.111,0.08-0.226,0.115-0.343l0,0l-7.362,3.334C7.605,10.641,7.716,10.688,7.829,10.731L7.829,10.731z"/>
	</g>
	<path id="path3008_7_" fill="#CCCBCB" d="M15.491,3.919l-0.189-0.417c-1.074-2.369-3.887-3.407-6.29-2.32L6.781,2.195
		c-2.4,1.083-3.477,3.888-2.402,6.256l0.189,0.417c0.294,0.646,0.718,1.191,1.226,1.621l10.108-4.577
		C15.911,5.244,15.783,4.565,15.491,3.919z"/>
	<path d="M15.928,3.721h-0.002l-0.189-0.417c-0.583-1.296-1.646-2.231-2.885-2.698c-1.258-0.474-2.708-0.465-4.038,0.139
		L6.581,1.754c-1.328,0.603-2.29,1.686-2.764,2.943C3.353,5.936,3.353,7.351,3.942,8.65l0.19,0.417
		c0.322,0.713,0.793,1.313,1.351,1.789l0.231,0.196l10.664-4.831l0.004-0.301C16.393,5.184,16.254,4.434,15.928,3.721z M5.885,9.924
		C5.523,9.572,5.224,9.153,5.005,8.67L4.818,8.253C4.336,7.194,4.334,6.047,4.714,5.034c0.389-1.03,1.172-1.911,2.263-2.404
		L9.21,1.616c1.089-0.495,2.271-0.5,3.303-0.113c1.011,0.383,1.873,1.141,2.352,2.197l0.189,0.417h0.004
		c0.217,0.483,0.333,0.987,0.359,1.489L5.885,9.924z"/>
	<path d="M20.838,21.814c-0.504-1.723-4.606-13.076-4.61-13.085L16.05,8.24l-8.751,3.965l0.252,0.456
		c0.003,0.011,5.834,10.575,6.799,12.092c0.609,0.946,1.515,1.804,2.567,2.206c0.124,0.045,0.521,0.152,0.745,0.208
		c-0.012,0.226-0.046,0.449-0.121,0.66c-0.199,0.551-0.605,1.021-1.17,1.285c-0.567,0.263-1.188,0.269-1.737,0.069
		c-0.565-0.209-1.054-0.632-1.33-1.223l-1.3-2.795c-0.272-0.712-0.504-1.197-0.79-1.672c-0.688-1.154-1.529-1.9-2.835-2.095
		c-0.137-0.034-0.317-0.058-0.521-0.076c-1.645-0.145-6.394,0.514-7.453,1.143l-0.171,0.162c-0.014,0.026-0.113,0.199-0.183,0.466
		c-0.066,0.265-0.107,0.66,0.122,1.052c0.221,0.362,0.567,0.514,0.823,0.579c0.292,0.073,0.511,0.056,0.542,0.054l0.111-0.01
		l0.347-0.067c1.506-0.296,5.126-0.897,5.706-0.756c0.371,0.093,0.633,0.221,0.863,0.439c0.128,0.133,0.255,0.294,0.363,0.461
		c0.036,0.06,0.107,0.193,0.186,0.341l1.807,3.88c0.585,1.258,1.628,2.166,2.83,2.606c1.176,0.428,2.514,0.415,3.731-0.15
		c1.213-0.566,2.09-1.577,2.52-2.754c-0.002-0.004,0-0.006,0-0.007c0.298-0.81,0.366-1.696,0.203-2.577
		c0.157-0.227,0.502-0.752,0.599-1.005C21.195,24.126,21.145,22.891,20.838,21.814z M19.099,28.432
		c-0.347,0.949-1.047,1.757-2.025,2.215c-0.977,0.452-2.045,0.465-2.995,0.119c-0.97-0.356-1.817-1.088-2.291-2.106l-1.839-3.948
		c-0.143-0.305-0.585-1.396-2.01-1.7c-0.78-0.167-5.275,0.578-6.401,0.829c-0.429,0.192-1.007-0.459-0.396-0.687
		c1.143-0.424,5.968-1.14,6.886-0.909c0.572,0.144,1.067,0.362,1.507,0.696c0.424,0.362,0.798,0.928,1.054,1.472l1.839,3.952
		c0.386,0.83,1.074,1.431,1.869,1.723c0.778,0.28,1.665,0.271,2.466-0.102c0.808-0.376,1.387-1.048,1.669-1.824
		c0.225-0.612,0.245-1.008,0.142-1.733c-0.01,0.006-0.063-0.205-0.071-0.2l0.012-0.022c0,0-0.591,0.188-1.305-0.044
		c-0.802-0.263-1.535-1.122-2.039-1.926c-0.8-1.247-5.393-9.544-6.519-11.585l6.864-3.106c0.79,2.195,3.998,11.115,4.412,12.541
		c0.268,0.901,0.29,1.974-0.009,2.755c-0.159,0.418-0.401,0.736-0.724,0.963c-0.02,0.01-0.037,0.02-0.054,0.03
		c0.002,0.006,0.002,0.012,0.004,0.017c-0.006,0.004-0.008,0.009-0.014,0.013c0,0,0.015,0.012,0.019,0.014
		C19.412,26.737,19.391,27.63,19.099,28.432z"/>
</g>
<g>
	<g>
		<path fill="#F7981D" d="M19.556,26.109c1.099-0.876,1.251-2.689,0.823-4.163C19.888,20.27,15.78,8.889,15.78,8.889l-7.806,3.535
			c0,0,5.845,10.596,6.784,12.066c0.689,1.084,1.824,2.036,2.983,2.182l0.086,0.188c0.008-0.004,0.02-0.009,0.028-0.013
			c0.033,0.36,0.148,0.709,0.326,1.021c-0.494,0.437-1.019,0.961-1.099,1.575c-0.314,0.152-0.634,0.299-0.946,0.46
			c-0.113,0.06-0.269,0.131-0.424,0.217l0.013-0.036c-0.235-0.088-0.552-0.079-0.798-0.081C14.776,30,14.603,29.995,14.428,30
			l0.028-0.029c-0.074-0.051-0.107-0.146-0.163-0.214c-0.139-0.165-0.355-0.307-0.542-0.408c-0.17-0.095-0.428-0.21-0.694-0.288
			c0.096-0.326-0.254-0.857-0.393-1.108c-0.172-0.317-0.381-0.615-0.646-0.863c-0.013-0.011-0.029-0.025-0.042-0.037l0.15-0.422
			c0.013,0.025,0.007,0.036-0.015,0.034c-0.135-0.144-0.479-0.833-0.889-1.492c0.007-0.467-0.402-1.03-0.643-1.382
			c-0.239-0.35-0.498-0.728-0.869-0.924l0.167-0.198c-0.209-0.436-0.95-0.549-1.367-0.574c-1.106-0.072-3.404,0.185-4.512,0.18
			c-0.678-0.002-1.355,0.033-2.007,0.229c-0.383,0.115-1.004,0.347-1.243,0.702c-0.141,0.209-0.092,0.605-0.08,0.859
			c0.022,0.395,0.595,0.332,0.898,0.364c0.598,0.069,1.158,0.045,1.747-0.104c0.837-0.209,2.837-0.748,3.699-0.848
			c0.448-0.052,0.924-0.045,1.363,0.07c0.054,0.013,0.144,0.035,0.237,0.061c0.066,0.388,0.263,0.784,0.646,0.886l0.267,0.1
			c0.004,0.037,0.007,0.078,0.013,0.109c0.097,0.559,0.443,1.069,0.763,1.521c0.1,0.142,0.218,0.266,0.326,0.398
			c-0.259,0.328,0.21,1.182,0.371,1.41c0.076,0.105,0.617,0.736,1.07,1.106c-0.172,0.225,0.001,0.613,0.152,0.815
			c0.253,0.348,0.784,0.69,1.27,0.698c0.024,0.167,0.134,0.328,0.3,0.438c0.422,0.287,0.936,0.253,1.393,0.088
			c0.254,0.226,0.783,0.259,1.048,0.257c0.732-0.01,1.241-0.401,1.516-1.058l-0.057-0.139c0.126,0.011,0.263-0.007,0.402-0.06
			c0.625-0.233,0.973-0.937,1.178-1.529c0.052-0.152,0.207-0.578,0.201-0.835l0.298-0.078c0.193-0.315,0.043-0.898-0.05-1.219
			C19.681,26.387,19.623,26.246,19.556,26.109z"/>
		<g id="g2994_6_">
			<path id="path2996_6_" fill="#CCCBCB" d="M10.837,11.15l2.233-1.009c1.389-0.63,2.241-2.034,2.441-3.707l-9.07,4.108
				C7.833,11.492,9.45,11.779,10.837,11.15z"/>
			<path id="path2998_6_" d="M7.49,11.627c-0.454-0.172-0.896-0.404-1.321-0.69l0,0l-0.7-0.48l10.62-4.81l-0.102,0.844
				c-0.06,0.502-0.178,0.987-0.348,1.448l0,0c-0.434,1.16-1.241,2.126-2.369,2.636l0,0l-2.236,1.011
				c-1.128,0.51-2.38,0.48-3.538,0.042l0,0C7.494,11.627,7.492,11.627,7.49,11.627L7.49,11.627z M7.829,10.731
				c0.967,0.361,1.943,0.372,2.81-0.019l0,0l2.233-1.011c0.867-0.395,1.504-1.132,1.869-2.102l0,0
				c0.042-0.111,0.08-0.226,0.115-0.343l0,0l-7.362,3.334C7.605,10.641,7.716,10.688,7.829,10.731L7.829,10.731z"/>
		</g>
		<path id="path3008_6_" fill="#CCCBCB" d="M15.491,3.919l-0.189-0.417c-1.074-2.369-3.887-3.407-6.29-2.32L6.781,2.195
			c-2.4,1.083-3.477,3.888-2.402,6.256l0.189,0.417c0.294,0.646,0.718,1.191,1.226,1.621l10.108-4.577
			C15.911,5.244,15.783,4.565,15.491,3.919z"/>
		<path d="M15.928,3.721h-0.002l-0.189-0.417c-0.583-1.296-1.646-2.231-2.885-2.698c-1.258-0.474-2.708-0.465-4.038,0.139
			L6.581,1.754c-1.328,0.603-2.29,1.686-2.764,2.943C3.353,5.936,3.353,7.351,3.942,8.65l0.19,0.417
			c0.322,0.713,0.793,1.313,1.351,1.789l0.231,0.196l10.664-4.831l0.004-0.301C16.393,5.184,16.254,4.434,15.928,3.721z
			 M5.885,9.924C5.523,9.572,5.224,9.153,5.005,8.67L4.818,8.253C4.336,7.194,4.334,6.047,4.714,5.034
			c0.389-1.03,1.172-1.911,2.263-2.404L9.21,1.616c1.089-0.495,2.271-0.5,3.303-0.113c1.011,0.383,1.873,1.141,2.352,2.197
			l0.189,0.417h0.004c0.217,0.483,0.333,0.987,0.359,1.489L5.885,9.924z"/>
		<path d="M20.838,21.814c-0.504-1.723-4.606-13.076-4.61-13.085L16.05,8.24l-8.751,3.965l0.252,0.456
			c0.003,0.011,5.834,10.575,6.799,12.092c0.609,0.946,1.515,1.804,2.567,2.206c0.124,0.045,0.521,0.152,0.745,0.208
			c-0.012,0.226-0.046,0.449-0.121,0.66c-0.199,0.551-0.605,1.021-1.17,1.285c-0.567,0.263-1.188,0.269-1.737,0.069
			c-0.565-0.209-1.054-0.632-1.33-1.223l-1.3-2.795c-0.272-0.712-0.504-1.197-0.79-1.672c-0.688-1.154-1.529-1.9-2.835-2.095
			c-0.137-0.034-0.317-0.058-0.521-0.076c-1.645-0.145-6.394,0.514-7.453,1.143l-0.171,0.162c-0.014,0.026-0.113,0.199-0.183,0.466
			c-0.066,0.265-0.107,0.66,0.122,1.052c0.221,0.362,0.567,0.514,0.823,0.579c0.292,0.073,0.511,0.056,0.542,0.054l0.111-0.01
			l0.347-0.067c1.506-0.296,5.126-0.897,5.706-0.756c0.371,0.093,0.633,0.221,0.863,0.439c0.128,0.133,0.255,0.294,0.363,0.461
			c0.036,0.06,0.107,0.193,0.186,0.341l1.807,3.88c0.585,1.258,1.628,2.166,2.83,2.606c1.176,0.428,2.514,0.415,3.731-0.15
			c1.213-0.566,2.09-1.577,2.52-2.754c-0.002-0.004,0-0.006,0-0.007c0.298-0.81,0.366-1.696,0.203-2.577
			c0.157-0.227,0.502-0.752,0.599-1.005C21.195,24.126,21.145,22.891,20.838,21.814z M19.099,28.432
			c-0.347,0.949-1.047,1.757-2.025,2.215c-0.977,0.452-2.045,0.465-2.995,0.119c-0.97-0.356-1.817-1.088-2.291-2.106l-1.839-3.948
			c-0.143-0.305-0.585-1.396-2.01-1.7c-0.78-0.167-5.275,0.578-6.401,0.829c-0.429,0.192-1.007-0.459-0.396-0.687
			c1.143-0.424,5.968-1.14,6.886-0.909c0.572,0.144,1.067,0.362,1.507,0.696c0.424,0.362,0.798,0.928,1.054,1.472l1.839,3.952
			c0.386,0.83,1.074,1.431,1.869,1.723c0.778,0.28,1.665,0.271,2.466-0.102c0.808-0.376,1.387-1.048,1.669-1.824
			c0.225-0.612,0.245-1.008,0.142-1.733c-0.01,0.006-0.063-0.205-0.071-0.2l0.012-0.022c0,0-0.591,0.188-1.305-0.044
			c-0.802-0.263-1.535-1.122-2.039-1.926c-0.8-1.247-5.393-9.544-6.519-11.585l6.864-3.106c0.79,2.195,3.998,11.115,4.412,12.541
			c0.268,0.901,0.29,1.974-0.009,2.755c-0.159,0.418-0.401,0.736-0.724,0.963c-0.02,0.01-0.037,0.02-0.054,0.03
			c0.002,0.006,0.002,0.012,0.004,0.017c-0.006,0.004-0.008,0.009-0.014,0.013c0,0,0.015,0.012,0.019,0.014
			C19.412,26.737,19.391,27.63,19.099,28.432z"/>
	</g>
</g>
<g>
	<g>
		<path fill="#F7981D" d="M19.556,26.109c1.099-0.876,1.251-2.689,0.823-4.163C19.888,20.27,15.78,8.889,15.78,8.889l-7.806,3.535
			c0,0,5.845,10.596,6.784,12.066c0.689,1.084,1.824,2.036,2.983,2.182l0.086,0.188c0.008-0.004,0.02-0.009,0.028-0.013
			c0.033,0.36,0.148,0.709,0.326,1.021c-0.494,0.437-1.019,0.961-1.099,1.575c-0.314,0.152-0.634,0.299-0.946,0.46
			c-0.113,0.06-0.269,0.131-0.424,0.217l0.013-0.036c-0.235-0.088-0.552-0.079-0.798-0.081C14.776,30,14.603,29.995,14.428,30
			l0.028-0.029c-0.074-0.051-0.107-0.146-0.163-0.214c-0.139-0.165-0.355-0.307-0.542-0.408c-0.17-0.095-0.428-0.21-0.694-0.288
			c0.096-0.326-0.254-0.857-0.393-1.108c-0.172-0.317-0.381-0.615-0.646-0.863c-0.013-0.011-0.029-0.025-0.042-0.037l0.15-0.422
			c0.013,0.025,0.007,0.036-0.015,0.034c-0.135-0.144-0.479-0.833-0.889-1.492c0.007-0.467-0.402-1.03-0.643-1.382
			c-0.239-0.35-0.498-0.728-0.869-0.924l0.167-0.198c-0.209-0.436-0.95-0.549-1.367-0.574c-1.106-0.072-3.404,0.185-4.512,0.18
			c-0.678-0.002-1.355,0.033-2.007,0.229c-0.383,0.115-1.004,0.347-1.243,0.702c-0.141,0.209-0.092,0.605-0.08,0.859
			c0.022,0.395,0.595,0.332,0.898,0.364c0.598,0.069,1.158,0.045,1.747-0.104c0.837-0.209,2.837-0.748,3.699-0.848
			c0.448-0.052,0.924-0.045,1.363,0.07c0.054,0.013,0.144,0.035,0.237,0.061c0.066,0.388,0.263,0.784,0.646,0.886l0.267,0.1
			c0.004,0.037,0.007,0.078,0.013,0.109c0.097,0.559,0.443,1.069,0.763,1.521c0.1,0.142,0.218,0.266,0.326,0.398
			c-0.259,0.328,0.21,1.182,0.371,1.41c0.076,0.105,0.617,0.736,1.07,1.106c-0.172,0.225,0.001,0.613,0.152,0.815
			c0.253,0.348,0.784,0.69,1.27,0.698c0.024,0.167,0.134,0.328,0.3,0.438c0.422,0.287,0.936,0.253,1.393,0.088
			c0.254,0.226,0.783,0.259,1.048,0.257c0.732-0.01,1.241-0.401,1.516-1.058l-0.057-0.139c0.126,0.011,0.263-0.007,0.402-0.06
			c0.625-0.233,0.973-0.937,1.178-1.529c0.052-0.152,0.207-0.578,0.201-0.835l0.298-0.078c0.193-0.315,0.043-0.898-0.05-1.219
			C19.681,26.387,19.623,26.246,19.556,26.109z"/>
		<g id="g2994_5_">
			<path id="path2996_5_" fill="#CCCBCB" d="M10.837,11.15l2.233-1.009c1.389-0.63,2.241-2.034,2.441-3.707l-9.07,4.108
				C7.833,11.492,9.45,11.779,10.837,11.15z"/>
			<path id="path2998_5_" d="M7.49,11.627c-0.454-0.172-0.896-0.404-1.321-0.69l0,0l-0.7-0.48l10.62-4.81l-0.102,0.844
				c-0.06,0.502-0.178,0.987-0.348,1.448l0,0c-0.434,1.16-1.241,2.126-2.369,2.636l0,0l-2.236,1.011
				c-1.128,0.51-2.38,0.48-3.538,0.042l0,0C7.494,11.627,7.492,11.627,7.49,11.627L7.49,11.627z M7.829,10.731
				c0.967,0.361,1.943,0.372,2.81-0.019l0,0l2.233-1.011c0.867-0.395,1.504-1.132,1.869-2.102l0,0
				c0.042-0.111,0.08-0.226,0.115-0.343l0,0l-7.362,3.334C7.605,10.641,7.716,10.688,7.829,10.731L7.829,10.731z"/>
		</g>
		<path id="path3008_5_" fill="#CCCBCB" d="M15.491,3.919l-0.189-0.417c-1.074-2.369-3.887-3.407-6.29-2.32L6.781,2.195
			c-2.4,1.083-3.477,3.888-2.402,6.256l0.189,0.417c0.294,0.646,0.718,1.191,1.226,1.621l10.108-4.577
			C15.911,5.244,15.783,4.565,15.491,3.919z"/>
		<path d="M15.928,3.721h-0.002l-0.189-0.417c-0.583-1.296-1.646-2.231-2.885-2.698c-1.258-0.474-2.708-0.465-4.038,0.139
			L6.581,1.754c-1.328,0.603-2.29,1.686-2.764,2.943C3.353,5.936,3.353,7.351,3.942,8.65l0.19,0.417
			c0.322,0.713,0.793,1.313,1.351,1.789l0.231,0.196l10.664-4.831l0.004-0.301C16.393,5.184,16.254,4.434,15.928,3.721z
			 M5.885,9.924C5.523,9.572,5.224,9.153,5.005,8.67L4.818,8.253C4.336,7.194,4.334,6.047,4.714,5.034
			c0.389-1.03,1.172-1.911,2.263-2.404L9.21,1.616c1.089-0.495,2.271-0.5,3.303-0.113c1.011,0.383,1.873,1.141,2.352,2.197
			l0.189,0.417h0.004c0.217,0.483,0.333,0.987,0.359,1.489L5.885,9.924z"/>
		<path d="M20.838,21.814c-0.504-1.723-4.606-13.076-4.61-13.085L16.05,8.24l-8.751,3.965l0.252,0.456
			c0.003,0.011,5.834,10.575,6.799,12.092c0.609,0.946,1.515,1.804,2.567,2.206c0.124,0.045,0.521,0.152,0.745,0.208
			c-0.012,0.226-0.046,0.449-0.121,0.66c-0.199,0.551-0.605,1.021-1.17,1.285c-0.567,0.263-1.188,0.269-1.737,0.069
			c-0.565-0.209-1.054-0.632-1.33-1.223l-1.3-2.795c-0.272-0.712-0.504-1.197-0.79-1.672c-0.688-1.154-1.529-1.9-2.835-2.095
			c-0.137-0.034-0.317-0.058-0.521-0.076c-1.645-0.145-6.394,0.514-7.453,1.143l-0.171,0.162c-0.014,0.026-0.113,0.199-0.183,0.466
			c-0.066,0.265-0.107,0.66,0.122,1.052c0.221,0.362,0.567,0.514,0.823,0.579c0.292,0.073,0.511,0.056,0.542,0.054l0.111-0.01
			l0.347-0.067c1.506-0.296,5.126-0.897,5.706-0.756c0.371,0.093,0.633,0.221,0.863,0.439c0.128,0.133,0.255,0.294,0.363,0.461
			c0.036,0.06,0.107,0.193,0.186,0.341l1.807,3.88c0.585,1.258,1.628,2.166,2.83,2.606c1.176,0.428,2.514,0.415,3.731-0.15
			c1.213-0.566,2.09-1.577,2.52-2.754c-0.002-0.004,0-0.006,0-0.007c0.298-0.81,0.366-1.696,0.203-2.577
			c0.157-0.227,0.502-0.752,0.599-1.005C21.195,24.126,21.145,22.891,20.838,21.814z M19.099,28.432
			c-0.347,0.949-1.047,1.757-2.025,2.215c-0.977,0.452-2.045,0.465-2.995,0.119c-0.97-0.356-1.817-1.088-2.291-2.106l-1.839-3.948
			c-0.143-0.305-0.585-1.396-2.01-1.7c-0.78-0.167-5.275,0.578-6.401,0.829c-0.429,0.192-1.007-0.459-0.396-0.687
			c1.143-0.424,5.968-1.14,6.886-0.909c0.572,0.144,1.067,0.362,1.507,0.696c0.424,0.362,0.798,0.928,1.054,1.472l1.839,3.952
			c0.386,0.83,1.074,1.431,1.869,1.723c0.778,0.28,1.665,0.271,2.466-0.102c0.808-0.376,1.387-1.048,1.669-1.824
			c0.225-0.612,0.245-1.008,0.142-1.733c-0.01,0.006-0.063-0.205-0.071-0.2l0.012-0.022c0,0-0.591,0.188-1.305-0.044
			c-0.802-0.263-1.535-1.122-2.039-1.926c-0.8-1.247-5.393-9.544-6.519-11.585l6.864-3.106c0.79,2.195,3.998,11.115,4.412,12.541
			c0.268,0.901,0.29,1.974-0.009,2.755c-0.159,0.418-0.401,0.736-0.724,0.963c-0.02,0.01-0.037,0.02-0.054,0.03
			c0.002,0.006,0.002,0.012,0.004,0.017c-0.006,0.004-0.008,0.009-0.014,0.013c0,0,0.015,0.012,0.019,0.014
			C19.412,26.737,19.391,27.63,19.099,28.432z"/>
	</g>
</g>
<g>
	<g>
		<path fill="#F7981D" d="M19.556,26.109c1.099-0.876,1.251-2.689,0.823-4.163C19.888,20.27,15.78,8.889,15.78,8.889l-7.806,3.535
			c0,0,5.845,10.596,6.784,12.066c0.689,1.084,1.824,2.036,2.983,2.182l0.086,0.188c0.008-0.004,0.02-0.009,0.028-0.013
			c0.033,0.36,0.148,0.709,0.326,1.021c-0.494,0.437-1.019,0.961-1.099,1.575c-0.314,0.152-0.634,0.299-0.946,0.46
			c-0.113,0.06-0.269,0.131-0.424,0.217l0.013-0.036c-0.235-0.088-0.552-0.079-0.798-0.081C14.776,30,14.603,29.995,14.428,30
			l0.028-0.029c-0.074-0.051-0.107-0.146-0.163-0.214c-0.139-0.165-0.355-0.307-0.542-0.408c-0.17-0.095-0.428-0.21-0.694-0.288
			c0.096-0.326-0.254-0.857-0.393-1.108c-0.172-0.317-0.381-0.615-0.646-0.863c-0.013-0.011-0.029-0.025-0.042-0.037l0.15-0.422
			c0.013,0.025,0.007,0.036-0.015,0.034c-0.135-0.144-0.479-0.833-0.889-1.492c0.007-0.467-0.402-1.03-0.643-1.382
			c-0.239-0.35-0.498-0.728-0.869-0.924l0.167-0.198c-0.209-0.436-0.95-0.549-1.367-0.574c-1.106-0.072-3.404,0.185-4.512,0.18
			c-0.678-0.002-1.355,0.033-2.007,0.229c-0.383,0.115-1.004,0.347-1.243,0.702c-0.141,0.209-0.092,0.605-0.08,0.859
			c0.022,0.395,0.595,0.332,0.898,0.364c0.598,0.069,1.158,0.045,1.747-0.104c0.837-0.209,2.837-0.748,3.699-0.848
			c0.448-0.052,0.924-0.045,1.363,0.07c0.054,0.013,0.144,0.035,0.237,0.061c0.066,0.388,0.263,0.784,0.646,0.886l0.267,0.1
			c0.004,0.037,0.007,0.078,0.013,0.109c0.097,0.559,0.443,1.069,0.763,1.521c0.1,0.142,0.218,0.266,0.326,0.398
			c-0.259,0.328,0.21,1.182,0.371,1.41c0.076,0.105,0.617,0.736,1.07,1.106c-0.172,0.225,0.001,0.613,0.152,0.815
			c0.253,0.348,0.784,0.69,1.27,0.698c0.024,0.167,0.134,0.328,0.3,0.438c0.422,0.287,0.936,0.253,1.393,0.088
			c0.254,0.226,0.783,0.259,1.048,0.257c0.732-0.01,1.241-0.401,1.516-1.058l-0.057-0.139c0.126,0.011,0.263-0.007,0.402-0.06
			c0.625-0.233,0.973-0.937,1.178-1.529c0.052-0.152,0.207-0.578,0.201-0.835l0.298-0.078c0.193-0.315,0.043-0.898-0.05-1.219
			C19.681,26.387,19.623,26.246,19.556,26.109z"/>
		<g id="g2994_4_">
			<path id="path2996_4_" fill="#CCCBCB" d="M10.837,11.15l2.233-1.009c1.389-0.63,2.241-2.034,2.441-3.707l-9.07,4.108
				C7.833,11.492,9.45,11.779,10.837,11.15z"/>
			<path id="path2998_4_" d="M7.49,11.627c-0.454-0.172-0.896-0.404-1.321-0.69l0,0l-0.7-0.48l10.62-4.81l-0.102,0.844
				c-0.06,0.502-0.178,0.987-0.348,1.448l0,0c-0.434,1.16-1.241,2.126-2.369,2.636l0,0l-2.236,1.011
				c-1.128,0.51-2.38,0.48-3.538,0.042l0,0C7.494,11.627,7.492,11.627,7.49,11.627L7.49,11.627z M7.829,10.731
				c0.967,0.361,1.943,0.372,2.81-0.019l0,0l2.233-1.011c0.867-0.395,1.504-1.132,1.869-2.102l0,0
				c0.042-0.111,0.08-0.226,0.115-0.343l0,0l-7.362,3.334C7.605,10.641,7.716,10.688,7.829,10.731L7.829,10.731z"/>
		</g>
		<path id="path3008_4_" fill="#CCCBCB" d="M15.491,3.919l-0.189-0.417c-1.074-2.369-3.887-3.407-6.29-2.32L6.781,2.195
			c-2.4,1.083-3.477,3.888-2.402,6.256l0.189,0.417c0.294,0.646,0.718,1.191,1.226,1.621l10.108-4.577
			C15.911,5.244,15.783,4.565,15.491,3.919z"/>
		<path d="M15.928,3.721h-0.002l-0.189-0.417c-0.583-1.296-1.646-2.231-2.885-2.698c-1.258-0.474-2.708-0.465-4.038,0.139
			L6.581,1.754c-1.328,0.603-2.29,1.686-2.764,2.943C3.353,5.936,3.353,7.351,3.942,8.65l0.19,0.417
			c0.322,0.713,0.793,1.313,1.351,1.789l0.231,0.196l10.664-4.831l0.004-0.301C16.393,5.184,16.254,4.434,15.928,3.721z
			 M5.885,9.924C5.523,9.572,5.224,9.153,5.005,8.67L4.818,8.253C4.336,7.194,4.334,6.047,4.714,5.034
			c0.389-1.03,1.172-1.911,2.263-2.404L9.21,1.616c1.089-0.495,2.271-0.5,3.303-0.113c1.011,0.383,1.873,1.141,2.352,2.197
			l0.189,0.417h0.004c0.217,0.483,0.333,0.987,0.359,1.489L5.885,9.924z"/>
		<path d="M20.838,21.814c-0.504-1.723-4.606-13.076-4.61-13.085L16.05,8.24l-8.751,3.965l0.252,0.456
			c0.003,0.011,5.834,10.575,6.799,12.092c0.609,0.946,1.515,1.804,2.567,2.206c0.124,0.045,0.521,0.152,0.745,0.208
			c-0.012,0.226-0.046,0.449-0.121,0.66c-0.199,0.551-0.605,1.021-1.17,1.285c-0.567,0.263-1.188,0.269-1.737,0.069
			c-0.565-0.209-1.054-0.632-1.33-1.223l-1.3-2.795c-0.272-0.712-0.504-1.197-0.79-1.672c-0.688-1.154-1.529-1.9-2.835-2.095
			c-0.137-0.034-0.317-0.058-0.521-0.076c-1.645-0.145-6.394,0.514-7.453,1.143l-0.171,0.162c-0.014,0.026-0.113,0.199-0.183,0.466
			c-0.066,0.265-0.107,0.66,0.122,1.052c0.221,0.362,0.567,0.514,0.823,0.579c0.292,0.073,0.511,0.056,0.542,0.054l0.111-0.01
			l0.347-0.067c1.506-0.296,5.126-0.897,5.706-0.756c0.371,0.093,0.633,0.221,0.863,0.439c0.128,0.133,0.255,0.294,0.363,0.461
			c0.036,0.06,0.107,0.193,0.186,0.341l1.807,3.88c0.585,1.258,1.628,2.166,2.83,2.606c1.176,0.428,2.514,0.415,3.731-0.15
			c1.213-0.566,2.09-1.577,2.52-2.754c-0.002-0.004,0-0.006,0-0.007c0.298-0.81,0.366-1.696,0.203-2.577
			c0.157-0.227,0.502-0.752,0.599-1.005C21.195,24.126,21.145,22.891,20.838,21.814z M19.099,28.432
			c-0.347,0.949-1.047,1.757-2.025,2.215c-0.977,0.452-2.045,0.465-2.995,0.119c-0.97-0.356-1.817-1.088-2.291-2.106l-1.839-3.948
			c-0.143-0.305-0.585-1.396-2.01-1.7c-0.78-0.167-5.275,0.578-6.401,0.829c-0.429,0.192-1.007-0.459-0.396-0.687
			c1.143-0.424,5.968-1.14,6.886-0.909c0.572,0.144,1.067,0.362,1.507,0.696c0.424,0.362,0.798,0.928,1.054,1.472l1.839,3.952
			c0.386,0.83,1.074,1.431,1.869,1.723c0.778,0.28,1.665,0.271,2.466-0.102c0.808-0.376,1.387-1.048,1.669-1.824
			c0.225-0.612,0.245-1.008,0.142-1.733c-0.01,0.006-0.063-0.205-0.071-0.2l0.012-0.022c0,0-0.591,0.188-1.305-0.044
			c-0.802-0.263-1.535-1.122-2.039-1.926c-0.8-1.247-5.393-9.544-6.519-11.585l6.864-3.106c0.79,2.195,3.998,11.115,4.412,12.541
			c0.268,0.901,0.29,1.974-0.009,2.755c-0.159,0.418-0.401,0.736-0.724,0.963c-0.02,0.01-0.037,0.02-0.054,0.03
			c0.002,0.006,0.002,0.012,0.004,0.017c-0.006,0.004-0.008,0.009-0.014,0.013c0,0,0.015,0.012,0.019,0.014
			C19.412,26.737,19.391,27.63,19.099,28.432z"/>
	</g>
</g>
<g>
	<g>
		<path fill="#F7981D" d="M19.556,26.109c1.099-0.876,1.251-2.689,0.823-4.163C19.888,20.27,15.78,8.889,15.78,8.889l-7.806,3.535
			c0,0,5.845,10.596,6.784,12.066c0.689,1.084,1.824,2.036,2.983,2.182l0.086,0.188c0.008-0.004,0.02-0.009,0.028-0.013
			c0.033,0.36,0.148,0.709,0.326,1.021c-0.494,0.437-1.019,0.961-1.099,1.575c-0.314,0.152-0.634,0.299-0.946,0.46
			c-0.113,0.06-0.269,0.131-0.424,0.217l0.013-0.036c-0.235-0.088-0.552-0.079-0.798-0.081C14.776,30,14.603,29.995,14.428,30
			l0.028-0.029c-0.074-0.051-0.107-0.146-0.163-0.214c-0.139-0.165-0.355-0.307-0.542-0.408c-0.17-0.095-0.428-0.21-0.694-0.288
			c0.096-0.326-0.254-0.857-0.393-1.108c-0.172-0.317-0.381-0.615-0.646-0.863c-0.013-0.011-0.029-0.025-0.042-0.037l0.15-0.422
			c0.013,0.025,0.007,0.036-0.015,0.034c-0.135-0.144-0.479-0.833-0.889-1.492c0.007-0.467-0.402-1.03-0.643-1.382
			c-0.239-0.35-0.498-0.728-0.869-0.924l0.167-0.198c-0.209-0.436-0.95-0.549-1.367-0.574c-1.106-0.072-3.404,0.185-4.512,0.18
			c-0.678-0.002-1.355,0.033-2.007,0.229c-0.383,0.115-1.004,0.347-1.243,0.702c-0.141,0.209-0.092,0.605-0.08,0.859
			c0.022,0.395,0.595,0.332,0.898,0.364c0.598,0.069,1.158,0.045,1.747-0.104c0.837-0.209,2.837-0.748,3.699-0.848
			c0.448-0.052,0.924-0.045,1.363,0.07c0.054,0.013,0.144,0.035,0.237,0.061c0.066,0.388,0.263,0.784,0.646,0.886l0.267,0.1
			c0.004,0.037,0.007,0.078,0.013,0.109c0.097,0.559,0.443,1.069,0.763,1.521c0.1,0.142,0.218,0.266,0.326,0.398
			c-0.259,0.328,0.21,1.182,0.371,1.41c0.076,0.105,0.617,0.736,1.07,1.106c-0.172,0.225,0.001,0.613,0.152,0.815
			c0.253,0.348,0.784,0.69,1.27,0.698c0.024,0.167,0.134,0.328,0.3,0.438c0.422,0.287,0.936,0.253,1.393,0.088
			c0.254,0.226,0.783,0.259,1.048,0.257c0.732-0.01,1.241-0.401,1.516-1.058l-0.057-0.139c0.126,0.011,0.263-0.007,0.402-0.06
			c0.625-0.233,0.973-0.937,1.178-1.529c0.052-0.152,0.207-0.578,0.201-0.835l0.298-0.078c0.193-0.315,0.043-0.898-0.05-1.219
			C19.681,26.387,19.623,26.246,19.556,26.109z"/>
		<g id="g2994_3_">
			<path id="path2996_3_" fill="#CCCBCB" d="M10.837,11.15l2.233-1.009c1.389-0.63,2.241-2.034,2.441-3.707l-9.07,4.108
				C7.833,11.492,9.45,11.779,10.837,11.15z"/>
			<path id="path2998_3_" d="M7.49,11.627c-0.454-0.172-0.896-0.404-1.321-0.69l0,0l-0.7-0.48l10.62-4.81l-0.102,0.844
				c-0.06,0.502-0.178,0.987-0.348,1.448l0,0c-0.434,1.16-1.241,2.126-2.369,2.636l0,0l-2.236,1.011
				c-1.128,0.51-2.38,0.48-3.538,0.042l0,0C7.494,11.627,7.492,11.627,7.49,11.627L7.49,11.627z M7.829,10.731
				c0.967,0.361,1.943,0.372,2.81-0.019l0,0l2.233-1.011c0.867-0.395,1.504-1.132,1.869-2.102l0,0
				c0.042-0.111,0.08-0.226,0.115-0.343l0,0l-7.362,3.334C7.605,10.641,7.716,10.688,7.829,10.731L7.829,10.731z"/>
		</g>
		<path id="path3008_3_" fill="#CCCBCB" d="M15.491,3.919l-0.189-0.417c-1.074-2.369-3.887-3.407-6.29-2.32L6.781,2.195
			c-2.4,1.083-3.477,3.888-2.402,6.256l0.189,0.417c0.294,0.646,0.718,1.191,1.226,1.621l10.108-4.577
			C15.911,5.244,15.783,4.565,15.491,3.919z"/>
		<path d="M15.928,3.721h-0.002l-0.189-0.417c-0.583-1.296-1.646-2.231-2.885-2.698c-1.258-0.474-2.708-0.465-4.038,0.139
			L6.581,1.754c-1.328,0.603-2.29,1.686-2.764,2.943C3.353,5.936,3.353,7.351,3.942,8.65l0.19,0.417
			c0.322,0.713,0.793,1.313,1.351,1.789l0.231,0.196l10.664-4.831l0.004-0.301C16.393,5.184,16.254,4.434,15.928,3.721z
			 M5.885,9.924C5.523,9.572,5.224,9.153,5.005,8.67L4.818,8.253C4.336,7.194,4.334,6.047,4.714,5.034
			c0.389-1.03,1.172-1.911,2.263-2.404L9.21,1.616c1.089-0.495,2.271-0.5,3.303-0.113c1.011,0.383,1.873,1.141,2.352,2.197
			l0.189,0.417h0.004c0.217,0.483,0.333,0.987,0.359,1.489L5.885,9.924z"/>
		<path d="M20.838,21.814c-0.504-1.723-4.606-13.076-4.61-13.085L16.05,8.24l-8.751,3.965l0.252,0.456
			c0.003,0.011,5.834,10.575,6.799,12.092c0.609,0.946,1.515,1.804,2.567,2.206c0.124,0.045,0.521,0.152,0.745,0.208
			c-0.012,0.226-0.046,0.449-0.121,0.66c-0.199,0.551-0.605,1.021-1.17,1.285c-0.567,0.263-1.188,0.269-1.737,0.069
			c-0.565-0.209-1.054-0.632-1.33-1.223l-1.3-2.795c-0.272-0.712-0.504-1.197-0.79-1.672c-0.688-1.154-1.529-1.9-2.835-2.095
			c-0.137-0.034-0.317-0.058-0.521-0.076c-1.645-0.145-6.394,0.514-7.453,1.143l-0.171,0.162c-0.014,0.026-0.113,0.199-0.183,0.466
			c-0.066,0.265-0.107,0.66,0.122,1.052c0.221,0.362,0.567,0.514,0.823,0.579c0.292,0.073,0.511,0.056,0.542,0.054l0.111-0.01
			l0.347-0.067c1.506-0.296,5.126-0.897,5.706-0.756c0.371,0.093,0.633,0.221,0.863,0.439c0.128,0.133,0.255,0.294,0.363,0.461
			c0.036,0.06,0.107,0.193,0.186,0.341l1.807,3.88c0.585,1.258,1.628,2.166,2.83,2.606c1.176,0.428,2.514,0.415,3.731-0.15
			c1.213-0.566,2.09-1.577,2.52-2.754c-0.002-0.004,0-0.006,0-0.007c0.298-0.81,0.366-1.696,0.203-2.577
			c0.157-0.227,0.502-0.752,0.599-1.005C21.195,24.126,21.145,22.891,20.838,21.814z M19.099,28.432
			c-0.347,0.949-1.047,1.757-2.025,2.215c-0.977,0.452-2.045,0.465-2.995,0.119c-0.97-0.356-1.817-1.088-2.291-2.106l-1.839-3.948
			c-0.143-0.305-0.585-1.396-2.01-1.7c-0.78-0.167-5.275,0.578-6.401,0.829c-0.429,0.192-1.007-0.459-0.396-0.687
			c1.143-0.424,5.968-1.14,6.886-0.909c0.572,0.144,1.067,0.362,1.507,0.696c0.424,0.362,0.798,0.928,1.054,1.472l1.839,3.952
			c0.386,0.83,1.074,1.431,1.869,1.723c0.778,0.28,1.665,0.271,2.466-0.102c0.808-0.376,1.387-1.048,1.669-1.824
			c0.225-0.612,0.245-1.008,0.142-1.733c-0.01,0.006-0.063-0.205-0.071-0.2l0.012-0.022c0,0-0.591,0.188-1.305-0.044
			c-0.802-0.263-1.535-1.122-2.039-1.926c-0.8-1.247-5.393-9.544-6.519-11.585l6.864-3.106c0.79,2.195,3.998,11.115,4.412,12.541
			c0.268,0.901,0.29,1.974-0.009,2.755c-0.159,0.418-0.401,0.736-0.724,0.963c-0.02,0.01-0.037,0.02-0.054,0.03
			c0.002,0.006,0.002,0.012,0.004,0.017c-0.006,0.004-0.008,0.009-0.014,0.013c0,0,0.015,0.012,0.019,0.014
			C19.412,26.737,19.391,27.63,19.099,28.432z"/>
	</g>
</g>
<g>
	<g>
		<path fill="#F7981D" d="M19.556,26.109c1.099-0.876,1.251-2.689,0.823-4.163C19.888,20.27,15.78,8.889,15.78,8.889l-7.806,3.535
			c0,0,5.845,10.596,6.784,12.066c0.689,1.084,1.824,2.036,2.983,2.182l0.086,0.188c0.008-0.004,0.02-0.009,0.028-0.013
			c0.033,0.36,0.148,0.709,0.326,1.021c-0.494,0.437-1.019,0.961-1.099,1.575c-0.314,0.152-0.634,0.299-0.946,0.46
			c-0.113,0.06-0.269,0.131-0.424,0.217l0.013-0.036c-0.235-0.088-0.552-0.079-0.798-0.081C14.776,30,14.603,29.995,14.428,30
			l0.028-0.029c-0.074-0.051-0.107-0.146-0.163-0.214c-0.139-0.165-0.355-0.307-0.542-0.408c-0.17-0.095-0.428-0.21-0.694-0.288
			c0.096-0.326-0.254-0.857-0.393-1.108c-0.172-0.317-0.381-0.615-0.646-0.863c-0.013-0.011-0.029-0.025-0.042-0.037l0.15-0.422
			c0.013,0.025,0.007,0.036-0.015,0.034c-0.135-0.144-0.479-0.833-0.889-1.492c0.007-0.467-0.402-1.03-0.643-1.382
			c-0.239-0.35-0.498-0.728-0.869-0.924l0.167-0.198c-0.209-0.436-0.95-0.549-1.367-0.574c-1.106-0.072-3.404,0.185-4.512,0.18
			c-0.678-0.002-1.355,0.033-2.007,0.229c-0.383,0.115-1.004,0.347-1.243,0.702c-0.141,0.209-0.092,0.605-0.08,0.859
			c0.022,0.395,0.595,0.332,0.898,0.364c0.598,0.069,1.158,0.045,1.747-0.104c0.837-0.209,2.837-0.748,3.699-0.848
			c0.448-0.052,0.924-0.045,1.363,0.07c0.054,0.013,0.144,0.035,0.237,0.061c0.066,0.388,0.263,0.784,0.646,0.886l0.267,0.1
			c0.004,0.037,0.007,0.078,0.013,0.109c0.097,0.559,0.443,1.069,0.763,1.521c0.1,0.142,0.218,0.266,0.326,0.398
			c-0.259,0.328,0.21,1.182,0.371,1.41c0.076,0.105,0.617,0.736,1.07,1.106c-0.172,0.225,0.001,0.613,0.152,0.815
			c0.253,0.348,0.784,0.69,1.27,0.698c0.024,0.167,0.134,0.328,0.3,0.438c0.422,0.287,0.936,0.253,1.393,0.088
			c0.254,0.226,0.783,0.259,1.048,0.257c0.732-0.01,1.241-0.401,1.516-1.058l-0.057-0.139c0.126,0.011,0.263-0.007,0.402-0.06
			c0.625-0.233,0.973-0.937,1.178-1.529c0.052-0.152,0.207-0.578,0.201-0.835l0.298-0.078c0.193-0.315,0.043-0.898-0.05-1.219
			C19.681,26.387,19.623,26.246,19.556,26.109z"/>
		<g id="g2994_2_">
			<path id="path2996_2_" fill="#CCCBCB" d="M10.837,11.15l2.233-1.009c1.389-0.63,2.241-2.034,2.441-3.707l-9.07,4.108
				C7.833,11.492,9.45,11.779,10.837,11.15z"/>
			<path id="path2998_2_" d="M7.49,11.627c-0.454-0.172-0.896-0.404-1.321-0.69l0,0l-0.7-0.48l10.62-4.81l-0.102,0.844
				c-0.06,0.502-0.178,0.987-0.348,1.448l0,0c-0.434,1.16-1.241,2.126-2.369,2.636l0,0l-2.236,1.011
				c-1.128,0.51-2.38,0.48-3.538,0.042l0,0C7.494,11.627,7.492,11.627,7.49,11.627L7.49,11.627z M7.829,10.731
				c0.967,0.361,1.943,0.372,2.81-0.019l0,0l2.233-1.011c0.867-0.395,1.504-1.132,1.869-2.102l0,0
				c0.042-0.111,0.08-0.226,0.115-0.343l0,0l-7.362,3.334C7.605,10.641,7.716,10.688,7.829,10.731L7.829,10.731z"/>
		</g>
		<path id="path3008_2_" fill="#CCCBCB" d="M15.491,3.919l-0.189-0.417c-1.074-2.369-3.887-3.407-6.29-2.32L6.781,2.195
			c-2.4,1.083-3.477,3.888-2.402,6.256l0.189,0.417c0.294,0.646,0.718,1.191,1.226,1.621l10.108-4.577
			C15.911,5.244,15.783,4.565,15.491,3.919z"/>
		<path d="M15.928,3.721h-0.002l-0.189-0.417c-0.583-1.296-1.646-2.231-2.885-2.698c-1.258-0.474-2.708-0.465-4.038,0.139
			L6.581,1.754c-1.328,0.603-2.29,1.686-2.764,2.943C3.353,5.936,3.353,7.351,3.942,8.65l0.19,0.417
			c0.322,0.713,0.793,1.313,1.351,1.789l0.231,0.196l10.664-4.831l0.004-0.301C16.393,5.184,16.254,4.434,15.928,3.721z
			 M5.885,9.924C5.523,9.572,5.224,9.153,5.005,8.67L4.818,8.253C4.336,7.194,4.334,6.047,4.714,5.034
			c0.389-1.03,1.172-1.911,2.263-2.404L9.21,1.616c1.089-0.495,2.271-0.5,3.303-0.113c1.011,0.383,1.873,1.141,2.352,2.197
			l0.189,0.417h0.004c0.217,0.483,0.333,0.987,0.359,1.489L5.885,9.924z"/>
		<path d="M20.838,21.814c-0.504-1.723-4.606-13.076-4.61-13.085L16.05,8.24l-8.751,3.965l0.252,0.456
			c0.003,0.011,5.834,10.575,6.799,12.092c0.609,0.946,1.515,1.804,2.567,2.206c0.124,0.045,0.521,0.152,0.745,0.208
			c-0.012,0.226-0.046,0.449-0.121,0.66c-0.199,0.551-0.605,1.021-1.17,1.285c-0.567,0.263-1.188,0.269-1.737,0.069
			c-0.565-0.209-1.054-0.632-1.33-1.223l-1.3-2.795c-0.272-0.712-0.504-1.197-0.79-1.672c-0.688-1.154-1.529-1.9-2.835-2.095
			c-0.137-0.034-0.317-0.058-0.521-0.076c-1.645-0.145-6.394,0.514-7.453,1.143l-0.171,0.162c-0.014,0.026-0.113,0.199-0.183,0.466
			c-0.066,0.265-0.107,0.66,0.122,1.052c0.221,0.362,0.567,0.514,0.823,0.579c0.292,0.073,0.511,0.056,0.542,0.054l0.111-0.01
			l0.347-0.067c1.506-0.296,5.126-0.897,5.706-0.756c0.371,0.093,0.633,0.221,0.863,0.439c0.128,0.133,0.255,0.294,0.363,0.461
			c0.036,0.06,0.107,0.193,0.186,0.341l1.807,3.88c0.585,1.258,1.628,2.166,2.83,2.606c1.176,0.428,2.514,0.415,3.731-0.15
			c1.213-0.566,2.09-1.577,2.52-2.754c-0.002-0.004,0-0.006,0-0.007c0.298-0.81,0.366-1.696,0.203-2.577
			c0.157-0.227,0.502-0.752,0.599-1.005C21.195,24.126,21.145,22.891,20.838,21.814z M19.099,28.432
			c-0.347,0.949-1.047,1.757-2.025,2.215c-0.977,0.452-2.045,0.465-2.995,0.119c-0.97-0.356-1.817-1.088-2.291-2.106l-1.839-3.948
			c-0.143-0.305-0.585-1.396-2.01-1.7c-0.78-0.167-5.275,0.578-6.401,0.829c-0.429,0.192-1.007-0.459-0.396-0.687
			c1.143-0.424,5.968-1.14,6.886-0.909c0.572,0.144,1.067,0.362,1.507,0.696c0.424,0.362,0.798,0.928,1.054,1.472l1.839,3.952
			c0.386,0.83,1.074,1.431,1.869,1.723c0.778,0.28,1.665,0.271,2.466-0.102c0.808-0.376,1.387-1.048,1.669-1.824
			c0.225-0.612,0.245-1.008,0.142-1.733c-0.01,0.006-0.063-0.205-0.071-0.2l0.012-0.022c0,0-0.591,0.188-1.305-0.044
			c-0.802-0.263-1.535-1.122-2.039-1.926c-0.8-1.247-5.393-9.544-6.519-11.585l6.864-3.106c0.79,2.195,3.998,11.115,4.412,12.541
			c0.268,0.901,0.29,1.974-0.009,2.755c-0.159,0.418-0.401,0.736-0.724,0.963c-0.02,0.01-0.037,0.02-0.054,0.03
			c0.002,0.006,0.002,0.012,0.004,0.017c-0.006,0.004-0.008,0.009-0.014,0.013c0,0,0.015,0.012,0.019,0.014
			C19.412,26.737,19.391,27.63,19.099,28.432z"/>
	</g>
</g>
<g>
	<g>
		<path fill="#F7981D" d="M19.556,26.109c1.099-0.876,1.251-2.689,0.823-4.163C19.888,20.27,15.78,8.889,15.78,8.889l-7.806,3.535
			c0,0,5.845,10.596,6.784,12.066c0.689,1.084,1.824,2.036,2.983,2.182l0.086,0.188c0.008-0.004,0.02-0.009,0.028-0.013
			c0.033,0.36,0.148,0.709,0.326,1.021c-0.494,0.437-1.019,0.961-1.099,1.575c-0.314,0.152-0.634,0.299-0.946,0.46
			c-0.113,0.06-0.269,0.131-0.424,0.217l0.013-0.036c-0.235-0.088-0.552-0.079-0.798-0.081C14.776,30,14.603,29.995,14.428,30
			l0.028-0.029c-0.074-0.051-0.107-0.146-0.163-0.214c-0.139-0.165-0.355-0.307-0.542-0.408c-0.17-0.095-0.428-0.21-0.694-0.288
			c0.096-0.326-0.254-0.857-0.393-1.108c-0.172-0.317-0.381-0.615-0.646-0.863c-0.013-0.011-0.029-0.025-0.042-0.037l0.15-0.422
			c0.013,0.025,0.007,0.036-0.015,0.034c-0.135-0.144-0.479-0.833-0.889-1.492c0.007-0.467-0.402-1.03-0.643-1.382
			c-0.239-0.35-0.498-0.728-0.869-0.924l0.167-0.198c-0.209-0.436-0.95-0.549-1.367-0.574c-1.106-0.072-3.404,0.185-4.512,0.18
			c-0.678-0.002-1.355,0.033-2.007,0.229c-0.383,0.115-1.004,0.347-1.243,0.702c-0.141,0.209-0.092,0.605-0.08,0.859
			c0.022,0.395,0.595,0.332,0.898,0.364c0.598,0.069,1.158,0.045,1.747-0.104c0.837-0.209,2.837-0.748,3.699-0.848
			c0.448-0.052,0.924-0.045,1.363,0.07c0.054,0.013,0.144,0.035,0.237,0.061c0.066,0.388,0.263,0.784,0.646,0.886l0.267,0.1
			c0.004,0.037,0.007,0.078,0.013,0.109c0.097,0.559,0.443,1.069,0.763,1.521c0.1,0.142,0.218,0.266,0.326,0.398
			c-0.259,0.328,0.21,1.182,0.371,1.41c0.076,0.105,0.617,0.736,1.07,1.106c-0.172,0.225,0.001,0.613,0.152,0.815
			c0.253,0.348,0.784,0.69,1.27,0.698c0.024,0.167,0.134,0.328,0.3,0.438c0.422,0.287,0.936,0.253,1.393,0.088
			c0.254,0.226,0.783,0.259,1.048,0.257c0.732-0.01,1.241-0.401,1.516-1.058l-0.057-0.139c0.126,0.011,0.263-0.007,0.402-0.06
			c0.625-0.233,0.973-0.937,1.178-1.529c0.052-0.152,0.207-0.578,0.201-0.835l0.298-0.078c0.193-0.315,0.043-0.898-0.05-1.219
			C19.681,26.387,19.623,26.246,19.556,26.109z"/>
		<g id="g2994_1_">
			<path id="path2996_1_" fill="#CCCBCB" d="M10.837,11.15l2.233-1.009c1.389-0.63,2.241-2.034,2.441-3.707l-9.07,4.108
				C7.833,11.492,9.45,11.779,10.837,11.15z"/>
			<path id="path2998_1_" d="M7.49,11.627c-0.454-0.172-0.896-0.404-1.321-0.69l0,0l-0.7-0.48l10.62-4.81l-0.102,0.844
				c-0.06,0.502-0.178,0.987-0.348,1.448l0,0c-0.434,1.16-1.241,2.126-2.369,2.636l0,0l-2.236,1.011
				c-1.128,0.51-2.38,0.48-3.538,0.042l0,0C7.494,11.627,7.492,11.627,7.49,11.627L7.49,11.627z M7.829,10.731
				c0.967,0.361,1.943,0.372,2.81-0.019l0,0l2.233-1.011c0.867-0.395,1.504-1.132,1.869-2.102l0,0
				c0.042-0.111,0.08-0.226,0.115-0.343l0,0l-7.362,3.334C7.605,10.641,7.716,10.688,7.829,10.731L7.829,10.731z"/>
		</g>
		<path id="path3008_1_" fill="#CCCBCB" d="M15.491,3.919l-0.189-0.417c-1.074-2.369-3.887-3.407-6.29-2.32L6.781,2.195
			c-2.4,1.083-3.477,3.888-2.402,6.256l0.189,0.417c0.294,0.646,0.718,1.191,1.226,1.621l10.108-4.577
			C15.911,5.244,15.783,4.565,15.491,3.919z"/>
		<path d="M15.928,3.721h-0.002l-0.189-0.417c-0.583-1.296-1.646-2.231-2.885-2.698c-1.258-0.474-2.708-0.465-4.038,0.139
			L6.581,1.754c-1.328,0.603-2.29,1.686-2.764,2.943C3.353,5.936,3.353,7.351,3.942,8.65l0.19,0.417
			c0.322,0.713,0.793,1.313,1.351,1.789l0.231,0.196l10.664-4.831l0.004-0.301C16.393,5.184,16.254,4.434,15.928,3.721z
			 M5.885,9.924C5.523,9.572,5.224,9.153,5.005,8.67L4.818,8.253C4.336,7.194,4.334,6.047,4.714,5.034
			c0.389-1.03,1.172-1.911,2.263-2.404L9.21,1.616c1.089-0.495,2.271-0.5,3.303-0.113c1.011,0.383,1.873,1.141,2.352,2.197
			l0.189,0.417h0.004c0.217,0.483,0.333,0.987,0.359,1.489L5.885,9.924z"/>
		<path d="M20.838,21.814c-0.504-1.723-4.606-13.076-4.61-13.085L16.05,8.24l-8.751,3.965l0.252,0.456
			c0.003,0.011,5.834,10.575,6.799,12.092c0.609,0.946,1.515,1.804,2.567,2.206c0.124,0.045,0.521,0.152,0.745,0.208
			c-0.012,0.226-0.046,0.449-0.121,0.66c-0.199,0.551-0.605,1.021-1.17,1.285c-0.567,0.263-1.188,0.269-1.737,0.069
			c-0.565-0.209-1.054-0.632-1.33-1.223l-1.3-2.795c-0.272-0.712-0.504-1.197-0.79-1.672c-0.688-1.154-1.529-1.9-2.835-2.095
			c-0.137-0.034-0.317-0.058-0.521-0.076c-1.645-0.145-6.394,0.514-7.453,1.143l-0.171,0.162c-0.014,0.026-0.113,0.199-0.183,0.466
			c-0.066,0.265-0.107,0.66,0.122,1.052c0.221,0.362,0.567,0.514,0.823,0.579c0.292,0.073,0.511,0.056,0.542,0.054l0.111-0.01
			l0.347-0.067c1.506-0.296,5.126-0.897,5.706-0.756c0.371,0.093,0.633,0.221,0.863,0.439c0.128,0.133,0.255,0.294,0.363,0.461
			c0.036,0.06,0.107,0.193,0.186,0.341l1.807,3.88c0.585,1.258,1.628,2.166,2.83,2.606c1.176,0.428,2.514,0.415,3.731-0.15
			c1.213-0.566,2.09-1.577,2.52-2.754c-0.002-0.004,0-0.006,0-0.007c0.298-0.81,0.366-1.696,0.203-2.577
			c0.157-0.227,0.502-0.752,0.599-1.005C21.195,24.126,21.145,22.891,20.838,21.814z M19.099,28.432
			c-0.347,0.949-1.047,1.757-2.025,2.215c-0.977,0.452-2.045,0.465-2.995,0.119c-0.97-0.356-1.817-1.088-2.291-2.106l-1.839-3.948
			c-0.143-0.305-0.585-1.396-2.01-1.7c-0.78-0.167-5.275,0.578-6.401,0.829c-0.429,0.192-1.007-0.459-0.396-0.687
			c1.143-0.424,5.968-1.14,6.886-0.909c0.572,0.144,1.067,0.362,1.507,0.696c0.424,0.362,0.798,0.928,1.054,1.472l1.839,3.952
			c0.386,0.83,1.074,1.431,1.869,1.723c0.778,0.28,1.665,0.271,2.466-0.102c0.808-0.376,1.387-1.048,1.669-1.824
			c0.225-0.612,0.245-1.008,0.142-1.733c-0.01,0.006-0.063-0.205-0.071-0.2l0.012-0.022c0,0-0.591,0.188-1.305-0.044
			c-0.802-0.263-1.535-1.122-2.039-1.926c-0.8-1.247-5.393-9.544-6.519-11.585l6.864-3.106c0.79,2.195,3.998,11.115,4.412,12.541
			c0.268,0.901,0.29,1.974-0.009,2.755c-0.159,0.418-0.401,0.736-0.724,0.963c-0.02,0.01-0.037,0.02-0.054,0.03
			c0.002,0.006,0.002,0.012,0.004,0.017c-0.006,0.004-0.008,0.009-0.014,0.013c0,0,0.015,0.012,0.019,0.014
			C19.412,26.737,19.391,27.63,19.099,28.432z"/>
	</g>
</g>
</svg>
