<?xml version="1.0" encoding="utf-8"?>
<!-- Generator: Adobe Illustrator 14.0.0, SVG Export Plug-In . SVG Version: 6.00 Build 43363)  -->
<!DOCTYPE svg PUBLIC "-//W3C//DTD SVG 1.1//EN" "http://www.w3.org/Graphics/SVG/1.1/DTD/svg11.dtd">
<svg version="1.1" id="Feed" xmlns="http://www.w3.org/2000/svg" xmlns:xlink="http://www.w3.org/1999/xlink" x="0px" y="0px"
	 width="32px" height="32px" viewBox="0 0 32 32" enable-background="new 0 0 32 32" xml:space="preserve">
<path fill="#FFFFFF" d="M22.541,1H9.458C4.794,1,1,4.794,1,9.458v13.083C1,27.205,4.794,31,9.458,31h13.083
	C27.205,31,31,27.206,31,22.542V9.458C31,4.794,27.205,1,22.541,1z"/>
<g>
	<path fill="#F7991F" d="M9.458,0C4.256,0,0,4.256,0,9.458v13.083C0,27.744,4.256,32,9.458,32h13.083C27.743,32,32,27.744,32,22.542
		V9.458C32,4.256,27.743,0,22.541,0H9.458z M8.294,26.947c-1.312,0-2.376-1.062-2.376-2.375c0-1.313,1.064-2.375,2.376-2.375
		s2.375,1.062,2.375,2.375C10.669,25.885,9.605,26.947,8.294,26.947z M17.852,27.374c-0.972,0-1.759-0.787-1.759-1.758
		c0-2.368-0.923-4.597-2.599-6.272c-1.676-1.676-3.904-2.6-6.273-2.6c0,0-0.001,0-0.003,0c-0.971,0-1.739-0.789-1.757-1.759
		c-0.026-1.461,1.432-1.729,1.76-1.757c0.328-0.029,0.367,0.003,0.548,0.011c3.103,0.135,5.999,1.408,8.208,3.62
		c2.339,2.339,3.628,5.449,3.628,8.758C19.607,26.587,18.82,27.374,17.852,27.374z M24.786,27.374c-0.972,0-1.759-0.787-1.759-1.758
		c0-4.222-1.645-8.189-4.631-11.176c-2.984-2.984-6.954-4.63-11.176-4.63c-0.973,0-1.758-0.785-1.758-1.757
		c0-0.969,0.785-1.756,1.758-1.756c5.162,0,10.014,2.01,13.658,5.658c3.651,3.647,5.661,8.501,5.66,13.662
		C26.54,26.587,25.756,27.374,24.786,27.374z"/>
</g>
</svg>
