<?xml version="1.0" encoding="utf-8"?>
<!-- Generator: Adobe Illustrator 14.0.0, SVG Export Plug-In . SVG Version: 6.00 Build 43363)  -->
<!DOCTYPE svg PUBLIC "-//W3C//DTD SVG 1.1//EN" "http://www.w3.org/Graphics/SVG/1.1/DTD/svg11.dtd">
<svg version="1.1" id="Layer_1" xmlns="http://www.w3.org/2000/svg" xmlns:xlink="http://www.w3.org/1999/xlink" x="0px" y="0px"
	 width="32px" height="32px" viewBox="0 0 32 32" enable-background="new 0 0 32 32" xml:space="preserve">
<g id="video">
	<g>
		<g>
			<g>
				<path fill="#FFFFFF" d="M16.091,17.361c0,4.312-3.495,7.81-7.807,7.81c-4.313,0-7.81-3.496-7.81-7.81
					c0-4.304,3.496-7.8,7.81-7.8C12.596,9.561,16.091,13.057,16.091,17.361z"/>
				<path d="M8.284,25.645C3.716,25.645,0,21.93,0,17.361c0-4.562,3.716-8.274,8.284-8.274c4.565,0,8.28,3.712,8.28,8.274
					C16.564,21.93,12.85,25.645,8.284,25.645L8.284,25.645z M8.284,10.035c-4.045,0-7.335,3.287-7.335,7.326
					c0,4.043,3.29,7.334,7.335,7.334c4.044,0,7.333-3.291,7.333-7.334C15.617,13.322,12.328,10.035,8.284,10.035L8.284,10.035z"/>
			</g>
			<g>
				<path d="M4.054,17.596c-0.97,0-1.759-0.789-1.759-1.755c0-0.969,0.79-1.757,1.759-1.757c0.97,0,1.759,0.788,1.759,1.757
					C5.813,16.807,5.024,17.596,4.054,17.596L4.054,17.596z M4.054,15.031c-0.447,0-0.811,0.363-0.811,0.809
					c0,0.445,0.363,0.809,0.811,0.809c0.448,0,0.811-0.362,0.811-0.809C4.865,15.394,4.501,15.031,4.054,15.031L4.054,15.031z"/>
			</g>
			<g>
				<path d="M5.312,22.6c-0.969,0-1.758-0.789-1.758-1.761s0.789-1.762,1.758-1.762c0.971,0,1.76,0.79,1.76,1.762
					S6.282,22.6,5.312,22.6L5.312,22.6z M5.312,20.027c-0.447,0-0.81,0.361-0.81,0.812c0,0.447,0.363,0.812,0.81,0.812
					c0.448,0,0.812-0.362,0.812-0.812C6.124,20.391,5.76,20.027,5.312,20.027L5.312,20.027z"/>
			</g>
			<g>
				<path d="M10.778,22.973c-0.971,0-1.76-0.789-1.76-1.761c0-0.971,0.79-1.76,1.76-1.76c0.969,0,1.758,0.789,1.758,1.76
					C12.536,22.184,11.747,22.973,10.778,22.973L10.778,22.973z M10.778,20.402c-0.448,0-0.812,0.361-0.812,0.812
					c0,0.447,0.365,0.812,0.812,0.812c0.446,0,0.81-0.362,0.81-0.812C11.587,20.766,11.224,20.402,10.778,20.402L10.778,20.402z"/>
			</g>
			<g>
				<path d="M12.864,18.27c-0.971,0-1.76-0.789-1.76-1.756c0-0.969,0.789-1.756,1.76-1.756c0.97,0,1.759,0.787,1.759,1.756
					C14.623,17.48,13.833,18.27,12.864,18.27L12.864,18.27z M12.864,15.705c-0.448,0-0.812,0.362-0.812,0.809
					c0,0.445,0.364,0.81,0.812,0.81c0.446,0,0.811-0.362,0.811-0.81C13.674,16.067,13.311,15.705,12.864,15.705L12.864,15.705z"/>
			</g>
			<g>
				<path d="M8.917,14.575c-0.969,0-1.758-0.789-1.758-1.759c0-0.97,0.789-1.759,1.758-1.759c0.971,0,1.761,0.79,1.761,1.759
					C10.677,13.786,9.887,14.575,8.917,14.575L8.917,14.575z M8.917,12.006c-0.446,0-0.81,0.364-0.81,0.811
					c0,0.448,0.363,0.811,0.81,0.811c0.448,0,0.812-0.363,0.812-0.811C9.729,12.369,9.365,12.006,8.917,12.006L8.917,12.006z"/>
			</g>
		</g>
		<path fill="#F7981D" d="M21.948,11.101c-0.073-0.523-0.218-1.126-0.499-1.584l0.392,0.17c-0.032-1.017-1-2.219-1.846-2.686
			c-0.254-0.141-0.539-0.236-0.831-0.285c0.057-0.342-0.583-0.594-1.032-0.724l0.071-0.043c-0.161,0.027-0.238-0.093-0.366-0.167
			c-0.331-0.197-0.664-0.386-1.026-0.523c-0.256-0.097-0.541-0.172-0.828-0.238c-0.379-0.224-0.765-0.524-1.104-0.748
			c-0.591-0.389-1.122-0.868-1.591-1.394c-0.107-0.119-0.209-0.255-0.312-0.394l1.146,0.718c-0.261-0.453-0.81-0.954-1.363-1.012
			c-0.312-0.434-0.637-0.875-1.063-1.116c-0.628-0.358-1.41-0.08-1.749,0.533c-0.461,0.833-0.032,2.013,0.32,2.8
			c0.219,0.489,0.448,1.039,0.713,1.572c-0.088,0.433-0.054,0.879,0.208,1.326c0.076,0.13,0.207,0.316,0.361,0.478
			c-0.278,0.84-0.143,1.891,0.357,2.635c0.131,0.195,0.354,0.455,0.612,0.655c0.008,0.134,0.018,0.269,0.027,0.397
			c0.061,0.808,0.285,1.534,0.633,2.26l0.105-0.087c0.042,0.104,0.078,0.211,0.121,0.316c-0.039,0.325-0.041,0.66,0.007,1.035
			c0.075,0.612,0.187,1.377,0.565,1.885c0.108,0.146,0.25,0.246,0.397,0.313c0.095,0.691,0.313,1.353,0.585,1.992
			c0.008,0.016,0.018,0.031,0.023,0.047c0.009,0.285,0.055,0.562,0.177,0.787c-0.078,0.022-0.167,0.031-0.239,0.062
			c0.016,0.023,0.025,0.051,0.039,0.074c0.256,0.459-0.066,0.941-0.587,0.893c-0.048-0.004-0.093-0.012-0.14-0.02
			c-0.073-0.014-0.131-0.038-0.186-0.066c-0.088,0.152-0.167,0.312-0.238,0.467c-2.567,0.203-5.083,2.078-5.381,4.682
			c-0.089,0.084-0.182,0.164-0.258,0.269c-0.444,0.601-0.209,1.425,0.043,2.062c0.368,0.931,1.178,2.088,2.265,2.246l0.03-0.078
			c0.015,0.009,0.026,0.019,0.039,0.024c0.734,0.402,1.665,0.239,2.457,0.109c1.688-0.271,3.255-0.765,4.512-1.962l-0.193-0.055
			c0.414-0.369,0.775-0.803,1.062-1.295c0.239-0.412,0.594-0.967,0.602-1.461c-0.069,0.004-0.067,0.062-0.098,0.141l-0.074-0.018
			c0.041-0.082,0.146-0.324,0.27-0.537l0.146-0.021c-0.006-0.025-0.012-0.056-0.018-0.082l0.318,0.114
			c-0.078-0.098-0.104-0.219-0.113-0.348c0.021,0.002,0.045,0.002,0.064,0.021l-0.065-0.025c-0.015-0.181,0.009-0.369,0.007-0.525
			c-0.009-0.557-0.05-1.068-0.229-1.6c-0.211-0.623-0.492-1.246-0.868-1.795l0.276,0.064c-0.506-1.588-1.039-3.137-1.676-4.682
			c-0.141-0.348-0.318-1.062-0.604-1.683l0.114-0.11c-0.16-1.079-0.539-2.076-1.004-3.043l0.225-0.188
			c-0.146-0.139-0.201-0.431-0.262-0.617c-0.172-0.511-0.328-1.028-0.502-1.54c-0.09-0.257-0.17-0.579-0.305-0.854
			c0.448,0.062,0.873,0.031,1.035-0.229c0.622,0.341,1.4,0.559,2.036,0.581c0.338,0.535,0.897,0.909,1.438,1.224
			c0.187,0.109,0.395,0.248,0.608,0.355c0.205,0.571,0.519,1.165,0.733,1.595c-0.344,0.722-0.422,1.567-0.359,2.354
			c0.021,0.294-0.018,1.155,0.479,1.019c0.279-0.076,0.562-0.493,0.521-0.774l1.186-2.55C22.245,11.88,22.279,11.34,21.948,11.101z"
			/>
		<path d="M22.243,8.867c-0.237-0.686-0.671-1.292-1.222-1.829c-1.037-1-2.559-1.667-4.073-2.435
			c-0.189-0.077-0.396-0.192-0.611-0.323c-0.002-0.002-0.002-0.003-0.002-0.005C16.3,4.258,16.264,4.231,16.229,4.21
			c-0.475-0.301-0.981-0.692-1.444-1.085c0,0.005,0,0.013,0.002,0.018c-0.72-0.633-1.354-1.318-1.634-1.697
			c-0.32-0.415-0.637-0.818-1.049-1.109C11.7,0.041,11.126-0.108,10.555,0.09c-0.215,0.071-0.418,0.175-0.596,0.309
			C9.911,0.436,9.857,0.481,9.8,0.533C9.602,0.717,9.435,0.945,9.311,1.202L9.292,1.238l-0.013,0.05
			c-0.23,0.935-0.105,1.803,0.132,2.614c0.188,0.645,1.128,3.507,1.194,3.732c1.357,4.535,3.286,10.972,3.875,12.941
			c-1.051,0.098-2.148,0.425-3.193,1.004c-0.369,0.198-0.711,0.424-1.032,0.665c-0.719,0.541-1.32,1.171-1.786,1.852
			c-0.222,0.323-0.415,0.661-0.572,1.012c-0.876,1.586-0.478,3.472,0.52,4.8c0.243,0.319,0.519,0.612,0.837,0.864
			c0.331,0.229,0.661,0.39,1.002,0.512c1.706,0.604,3.855,0.378,5.832-0.705c0.365-0.2,0.708-0.428,1.03-0.669
			c1.991-1.503,3.11-3.701,2.815-5.728c-0.008-0.106-0.024-0.175-0.024-0.193c-0.009-0.023-0.013-0.076-0.028-0.139
			c-0.004-0.039-0.013-0.091-0.031-0.147l-4.304-14.39c0.533,0.159,1.108,0.339,1.7,0.534c0-0.002-0.002-0.004-0.002-0.007
			c0.33,0.124,0.648,0.268,0.904,0.471c0.129,0.099,0.367,0.263,0.475,0.367c0.926,0.913,0.977,1.776,0.898,2.805
			c-0.037,0.508-0.125,0.985-0.182,1.398c-0.021,0.406-0.137,0.777,0.227,1.202c0.076,0.079,0.188,0.144,0.289,0.175
			c0.529,0.159,1-0.129,1.343-0.479C22.318,14.594,23.212,11.762,22.243,8.867z M20.514,15.108c-0.095,0.095-0.18,0.156-0.24,0.193
			c0.021-0.327,0.166-1.135,0.229-1.98c0.062-1.095-0.134-2.315-1.266-3.416c-0.131-0.131-0.272-0.25-0.435-0.373
			c-0.409-0.306-1.059-0.543-1.761-0.76V8.771c-0.747-0.237-1.455-0.45-2.076-0.63L14.11,7.898l4.81,16.071l0.002,0.053l0.016,0.051
			c0,0.017,0.01,0.051,0.019,0.101c0.011,0.048,0.019,0.065,0.021,0.078l-0.002,0.024l0.006,0.033
			c0.252,1.563-0.651,3.5-2.438,4.836c-0.285,0.217-0.587,0.416-0.911,0.596c-1.751,0.97-3.648,1.132-5.035,0.642
			c-0.278-0.1-0.532-0.225-0.758-0.375c-0.222-0.179-0.446-0.418-0.645-0.681c-0.824-1.098-1.105-2.602-0.434-3.797
			c0.152-0.326,0.315-0.614,0.507-0.896c0.398-0.586,0.928-1.141,1.563-1.618c0.281-0.214,0.587-0.408,0.915-0.589
			c1.121-0.625,2.3-0.913,3.368-0.911l0.66,0.004l-0.188-0.629c0,0-2.293-7.664-3.912-13.063c-0.048-0.161-0.703-2.442-0.937-3.071
			c-0.413-1.122-0.807-2.171-0.537-3.184c0.067-0.128,0.154-0.243,0.258-0.335c0.028-0.024,0.048-0.046,0.076-0.068
			c0.094-0.07,0.199-0.123,0.312-0.159c0.289-0.084,0.436-0.044,0.696,0.123c0.252,0.17,0.537,0.507,0.837,0.908
			c0.453,0.564,1.389,1.563,2.453,2.351c0,0.002,0,0.005,0,0.007c1.574,1.254,4.372,2.202,5.513,3.332
			c0.479,0.466,0.812,0.957,0.987,1.463C22.212,11.688,21.311,14.326,20.514,15.108z"/>
	</g>
</g>
</svg>
