<?xml version="1.0" encoding="utf-8"?>
<!-- Generator: Adobe Illustrator 14.0.0, SVG Export Plug-In . SVG Version: 6.00 Build 43363)  -->
<!DOCTYPE svg PUBLIC "-//W3C//DTD SVG 1.1//EN" "http://www.w3.org/Graphics/SVG/1.1/DTD/svg11.dtd">
<svg version="1.1" id="Layer_1" xmlns="http://www.w3.org/2000/svg" xmlns:xlink="http://www.w3.org/1999/xlink" x="0px" y="0px"
	 width="32px" height="32px" viewBox="0 0 32 32" enable-background="new 0 0 32 32" xml:space="preserve">
<g>
	<g>
		<g>
			<path fill="#C2D139" d="M27.461,29.488l3.991-5.831c0,0,0.231-0.329-0.052-0.418c-0.213-0.068-1.574-0.072-2.094-0.071
				c-0.173,0.003-0.328-0.131-0.318-0.354c0.131-2.508,0.15-2.905,0.199-5.348c-0.004-0.219-0.088-0.348-0.235-0.341
				c-1.589,0.017-2.312,0.017-3.902,0c-0.147-0.007-0.231,0.123-0.235,0.343c0.047,2.438,0.066,2.838,0.194,5.346
				c0.017,0.226-0.142,0.355-0.313,0.354c-0.52-0.001-1.971,0.004-2.182,0.072c-0.285,0.089-0.053,0.417-0.053,0.417l3.989,5.831
				C26.719,29.876,27.131,29.911,27.461,29.488z"/>
			<path d="M26.943,30.221L26.943,30.221c-0.326,0-0.627-0.175-0.846-0.486L22.105,23.9c-0.055-0.076-0.235-0.369-0.131-0.683
				c0.062-0.185,0.207-0.319,0.408-0.385c0.08-0.024,0.279-0.092,2.133-0.092h0.062l-0.002-0.06
				c-0.12-2.381-0.142-2.811-0.188-5.205c0.016-0.543,0.338-0.776,0.649-0.776c1.621,0.018,2.327,0.018,3.912,0l0,0
				c0.333,0,0.655,0.233,0.665,0.759c-0.047,2.439-0.066,2.848-0.193,5.282h0.062c1.763,0,1.963,0.063,2.05,0.092
				c0.196,0.062,0.342,0.198,0.403,0.383c0.104,0.312-0.076,0.604-0.135,0.688l-3.988,5.826
				C27.561,30.055,27.26,30.221,26.943,30.221L26.943,30.221z M22.958,23.622l3.844,5.626c0.105,0.15,0.14,0.216,0.322-0.021
				l3.838-5.605c-0.297-0.014-0.792-0.023-1.479-0.023h-0.176c-0.207,0-0.402-0.084-0.539-0.229
				c-0.145-0.15-0.216-0.354-0.205-0.576c0.127-2.474,0.148-2.883,0.196-5.233c-1.399,0.015-2.122,0.015-3.513,0
				c0.04,2.303,0.062,2.758,0.181,5.084l0.007,0.153c0.018,0.213-0.056,0.418-0.197,0.569c-0.137,0.146-0.334,0.23-0.537,0.23
				l-0.184-0.002C23.794,23.596,23.271,23.605,22.958,23.622L22.958,23.622z"/>
		</g>
	</g>
	<g>
		<g>
			<path fill="#FFE600" d="M29.945,2.926L27.09,3.449l-1.5-1.675l0,0l-0.331-0.368c-0.228-0.255-0.45-0.196-0.516,0.144
				l-0.228,1.206l0,0l-0.281,1.489l-2.371,1.046l-0.164,0.071c-0.313,0.141-0.322,0.347-0.021,0.513l0.286,0.157l2.146,1.172
				l0.119,1.152l0.156,1.557c0.033,0.344,0.27,0.43,0.52,0.195l0.214-0.2h0.002l1.053-0.994l0.05-0.046l0.668-0.63l2.772,0.757
				C30,9.068,30.206,8.85,30.059,8.538L28.73,5.917l1.551-2.512C30.453,3.106,30.286,2.884,29.945,2.926z"/>
			<path d="M24.635,10.667c-0.3,0-0.626-0.22-0.674-0.713l-0.254-2.483l-2.234-1.222c-0.396-0.219-0.447-0.506-0.438-0.657
				c0.005-0.151,0.075-0.433,0.489-0.619l2.334-1.028l0.47-2.475c0.089-0.478,0.399-0.649,0.663-0.649
				c0.146,0,0.365,0.052,0.589,0.3l1.67,1.864l2.778-0.492c0.291,0,0.531,0.127,0.66,0.349c0.131,0.227,0.117,0.509-0.039,0.776
				l-1.431,2.319l1.22,2.407c0.129,0.274,0.123,0.548-0.014,0.762c-0.166,0.262-0.496,0.382-0.854,0.305l-2.565-0.7l-1.81,1.707
				C24.979,10.623,24.77,10.667,24.635,10.667L24.635,10.667z M22.133,5.637l2.376,1.299l0.275,2.695l1.983-1.87l2.803,0.766
				l-1.329-2.631l1.544-2.501l-2.854,0.516l-1.812-2.024l-0.506,2.657L22.133,5.637L22.133,5.637z"/>
		</g>
	</g>
	<g>
		<g>
			<g>
				<path fill="#FFFFFF" d="M16.091,17.361c0,4.312-3.495,7.81-7.807,7.81c-4.313,0-7.81-3.496-7.81-7.81
					c0-4.304,3.496-7.8,7.81-7.8C12.596,9.561,16.091,13.057,16.091,17.361z"/>
				<path d="M8.284,25.645C3.716,25.645,0,21.93,0,17.361c0-4.562,3.716-8.274,8.284-8.274c4.566,0,8.28,3.712,8.28,8.274
					C16.564,21.93,12.85,25.645,8.284,25.645L8.284,25.645z M8.284,10.035c-4.045,0-7.335,3.287-7.335,7.326
					c0,4.043,3.29,7.334,7.335,7.334c4.044,0,7.333-3.291,7.333-7.334C15.617,13.322,12.328,10.035,8.284,10.035L8.284,10.035z"/>
			</g>
			<g>
				<path d="M4.054,17.596c-0.97,0-1.759-0.789-1.759-1.756c0-0.969,0.79-1.757,1.759-1.757c0.97,0,1.759,0.788,1.759,1.757
					C5.813,16.807,5.024,17.596,4.054,17.596L4.054,17.596z M4.054,15.031c-0.447,0-0.811,0.363-0.811,0.809
					c0,0.445,0.363,0.809,0.811,0.809c0.448,0,0.811-0.362,0.811-0.809C4.865,15.394,4.501,15.031,4.054,15.031L4.054,15.031z"/>
			</g>
			<g>
				<path d="M5.312,22.6c-0.969,0-1.758-0.789-1.758-1.761c0-0.971,0.789-1.761,1.758-1.761c0.971,0,1.76,0.79,1.76,1.761
					C7.072,21.811,6.282,22.6,5.312,22.6L5.312,22.6z M5.312,20.027c-0.447,0-0.81,0.361-0.81,0.812c0,0.447,0.363,0.812,0.81,0.812
					c0.448,0,0.812-0.362,0.812-0.812C6.124,20.391,5.76,20.027,5.312,20.027L5.312,20.027z"/>
			</g>
			<g>
				<path d="M10.778,22.973c-0.971,0-1.76-0.789-1.76-1.761c0-0.97,0.79-1.759,1.76-1.759c0.969,0,1.758,0.789,1.758,1.759
					C12.536,22.184,11.747,22.973,10.778,22.973L10.778,22.973z M10.778,20.402c-0.448,0-0.812,0.361-0.812,0.812
					c0,0.447,0.365,0.812,0.812,0.812c0.446,0,0.81-0.362,0.81-0.812C11.587,20.766,11.224,20.402,10.778,20.402L10.778,20.402z"/>
			</g>
			<g>
				<path d="M12.864,18.27c-0.971,0-1.76-0.789-1.76-1.756c0-0.969,0.789-1.756,1.76-1.756c0.97,0,1.759,0.787,1.759,1.756
					C14.623,17.48,13.833,18.27,12.864,18.27L12.864,18.27z M12.864,15.705c-0.448,0-0.812,0.362-0.812,0.809
					c0,0.445,0.364,0.809,0.812,0.809c0.447,0,0.811-0.362,0.811-0.809C13.674,16.067,13.311,15.705,12.864,15.705L12.864,15.705z"
					/>
			</g>
			<g>
				<path d="M8.917,14.575c-0.969,0-1.758-0.789-1.758-1.759c0-0.97,0.789-1.759,1.758-1.759c0.971,0,1.761,0.79,1.761,1.759
					C10.677,13.786,9.887,14.575,8.917,14.575L8.917,14.575z M8.917,12.006c-0.446,0-0.81,0.364-0.81,0.811
					c0,0.448,0.363,0.811,0.81,0.811c0.448,0,0.812-0.363,0.812-0.811C9.729,12.369,9.365,12.006,8.917,12.006L8.917,12.006z"/>
			</g>
		</g>
		<path fill="#F7981D" d="M21.948,11.101c-0.073-0.523-0.218-1.126-0.499-1.584l0.392,0.17c-0.032-1.017-1-2.219-1.846-2.686
			c-0.254-0.141-0.539-0.236-0.831-0.285c0.057-0.342-0.583-0.594-1.032-0.724l0.071-0.043c-0.161,0.027-0.238-0.093-0.366-0.167
			c-0.331-0.197-0.664-0.386-1.026-0.523c-0.256-0.097-0.541-0.172-0.829-0.238c-0.379-0.224-0.764-0.524-1.104-0.748
			c-0.591-0.389-1.122-0.868-1.591-1.394c-0.107-0.119-0.209-0.255-0.312-0.394l1.145,0.718c-0.26-0.453-0.81-0.954-1.363-1.012
			c-0.312-0.434-0.637-0.875-1.063-1.116c-0.628-0.358-1.41-0.08-1.749,0.533c-0.461,0.833-0.032,2.013,0.32,2.8
			c0.219,0.489,0.448,1.039,0.713,1.572c-0.088,0.433-0.054,0.879,0.208,1.326c0.076,0.13,0.207,0.316,0.361,0.478
			c-0.278,0.84-0.143,1.891,0.357,2.635c0.131,0.195,0.354,0.455,0.611,0.655c0.009,0.134,0.018,0.269,0.028,0.397
			c0.061,0.808,0.285,1.534,0.633,2.26l0.105-0.087c0.042,0.104,0.078,0.211,0.121,0.316c-0.039,0.325-0.041,0.66,0.007,1.035
			c0.076,0.612,0.186,1.377,0.565,1.885c0.109,0.146,0.25,0.246,0.398,0.313c0.095,0.691,0.313,1.353,0.585,1.992
			c0.008,0.016,0.017,0.031,0.023,0.047c0.009,0.285,0.055,0.562,0.177,0.787c-0.078,0.023-0.167,0.031-0.239,0.063
			c0.015,0.024,0.026,0.05,0.039,0.074c0.256,0.459-0.066,0.942-0.587,0.892c-0.048-0.004-0.092-0.011-0.139-0.02
			c-0.074-0.012-0.132-0.037-0.186-0.066c-0.088,0.153-0.167,0.312-0.239,0.467c-2.567,0.203-5.082,2.078-5.38,4.682
			c-0.089,0.084-0.182,0.164-0.258,0.269c-0.444,0.601-0.209,1.425,0.043,2.06c0.368,0.932,1.178,2.09,2.265,2.248l0.03-0.078
			c0.015,0.008,0.026,0.018,0.039,0.024c0.734,0.402,1.665,0.239,2.457,0.109c1.688-0.271,3.255-0.765,4.512-1.962l-0.193-0.055
			c0.414-0.369,0.775-0.803,1.062-1.295c0.239-0.412,0.594-0.967,0.602-1.461c-0.07,0.004-0.068,0.062-0.098,0.141l-0.074-0.018
			c0.041-0.082,0.145-0.324,0.269-0.537l0.147-0.021c-0.006-0.026-0.012-0.056-0.018-0.082l0.318,0.114
			c-0.078-0.096-0.104-0.217-0.113-0.346c0.021,0.002,0.045,0.002,0.064,0.021l-0.065-0.025c-0.015-0.181,0.009-0.368,0.007-0.526
			c-0.009-0.556-0.05-1.068-0.229-1.599c-0.211-0.622-0.492-1.245-0.868-1.795l0.276,0.063c-0.506-1.588-1.039-3.137-1.675-4.682
			c-0.141-0.346-0.319-1.062-0.604-1.681l0.115-0.11c-0.162-1.079-0.54-2.076-1.005-3.043l0.225-0.188
			c-0.146-0.139-0.201-0.431-0.262-0.617c-0.172-0.511-0.328-1.028-0.502-1.54c-0.089-0.257-0.17-0.579-0.304-0.854
			c0.448,0.062,0.873,0.031,1.035-0.228c0.622,0.341,1.4,0.559,2.036,0.581c0.338,0.535,0.897,0.909,1.438,1.224
			c0.187,0.109,0.395,0.248,0.609,0.355c0.205,0.571,0.518,1.165,0.734,1.595c-0.344,0.722-0.422,1.567-0.36,2.354
			c0.021,0.294-0.017,1.155,0.479,1.019c0.279-0.076,0.562-0.493,0.521-0.774l1.186-2.55C22.245,11.88,22.279,11.34,21.948,11.101z"
			/>
		<path d="M22.243,8.867c-0.237-0.686-0.671-1.292-1.222-1.829c-1.037-1-2.558-1.667-4.073-2.435
			c-0.189-0.077-0.396-0.192-0.611-0.323c-0.002-0.002-0.002-0.003-0.002-0.005C16.3,4.258,16.264,4.231,16.229,4.21
			c-0.475-0.301-0.981-0.692-1.444-1.085c0,0.005,0,0.013,0.002,0.018c-0.72-0.633-1.354-1.318-1.634-1.697
			c-0.32-0.415-0.637-0.818-1.048-1.109c-0.405-0.296-0.979-0.445-1.55-0.247c-0.215,0.071-0.418,0.175-0.596,0.309
			C9.911,0.436,9.857,0.481,9.8,0.533C9.602,0.717,9.435,0.945,9.311,1.202L9.292,1.238l-0.013,0.05
			c-0.23,0.935-0.105,1.803,0.132,2.614c0.188,0.645,1.128,3.507,1.194,3.732c1.357,4.535,3.286,10.972,3.875,12.941
			c-1.05,0.098-2.148,0.425-3.193,1.004c-0.369,0.198-0.711,0.424-1.032,0.665c-0.719,0.541-1.32,1.171-1.786,1.852
			c-0.222,0.323-0.415,0.661-0.572,1.01c-0.876,1.588-0.478,3.473,0.52,4.801c0.243,0.32,0.519,0.613,0.837,0.865
			C9.585,31,9.915,31.16,10.256,31.282c1.706,0.603,3.856,0.378,5.832-0.705c0.365-0.2,0.708-0.429,1.03-0.669
			c1.991-1.504,3.11-3.701,2.815-5.727c-0.007-0.107-0.024-0.175-0.024-0.195c-0.009-0.023-0.013-0.075-0.028-0.137
			c-0.004-0.039-0.013-0.091-0.031-0.148L15.546,9.312c0.533,0.159,1.108,0.339,1.7,0.534c0-0.002-0.002-0.004-0.002-0.007
			c0.33,0.124,0.648,0.268,0.904,0.471c0.129,0.099,0.367,0.263,0.475,0.367c0.926,0.913,0.977,1.776,0.898,2.805
			c-0.037,0.508-0.125,0.985-0.181,1.398c-0.021,0.406-0.137,0.777,0.226,1.202c0.076,0.079,0.188,0.144,0.289,0.175
			c0.53,0.159,1-0.129,1.343-0.479C22.318,14.594,23.212,11.762,22.243,8.867z M20.514,15.108c-0.095,0.095-0.18,0.156-0.24,0.193
			c0.02-0.327,0.166-1.135,0.228-1.98c0.062-1.095-0.134-2.315-1.265-3.416c-0.131-0.131-0.273-0.25-0.435-0.373
			c-0.409-0.306-1.059-0.543-1.761-0.76V8.771c-0.747-0.237-1.455-0.45-2.076-0.63l-0.856-0.243l4.81,16.071l0.002,0.053
			l0.015,0.051c0,0.017,0.01,0.051,0.019,0.101c0.011,0.048,0.019,0.065,0.021,0.078l-0.002,0.024l0.006,0.033
			c0.252,1.564-0.652,3.5-2.438,4.836c-0.285,0.217-0.587,0.416-0.911,0.596c-1.751,0.97-3.648,1.132-5.035,0.642
			c-0.278-0.1-0.532-0.225-0.758-0.375c-0.222-0.179-0.446-0.418-0.645-0.681c-0.824-1.096-1.105-2.602-0.434-3.797
			c0.152-0.326,0.315-0.614,0.507-0.896c0.398-0.586,0.928-1.141,1.563-1.618c0.281-0.214,0.587-0.408,0.915-0.589
			c1.121-0.625,2.3-0.913,3.369-0.911l0.659,0.004l-0.187-0.629c0,0-2.293-7.664-3.912-13.064c-0.048-0.161-0.703-2.442-0.937-3.071
			c-0.413-1.122-0.807-2.171-0.537-3.184c0.067-0.128,0.154-0.243,0.258-0.335c0.028-0.024,0.048-0.046,0.076-0.068
			c0.094-0.07,0.199-0.123,0.312-0.159c0.289-0.084,0.436-0.044,0.696,0.123c0.252,0.17,0.537,0.507,0.837,0.908
			c0.453,0.565,1.388,1.564,2.453,2.352c0,0.002,0,0.005,0,0.007c1.574,1.254,4.372,2.202,5.513,3.332
			c0.479,0.466,0.812,0.957,0.987,1.463C22.212,11.688,21.311,14.326,20.514,15.108z"/>
	</g>
</g>
</svg>
