<?xml version="1.0" encoding="utf-8"?>
<!-- Generator: Adobe Illustrator 14.0.0, SVG Export Plug-In . SVG Version: 6.00 Build 43363)  -->
<!DOCTYPE svg PUBLIC "-//W3C//DTD SVG 1.1//EN" "http://www.w3.org/Graphics/SVG/1.1/DTD/svg11.dtd">
<svg version="1.1"
	 id="svg3426" xmlns:svg="http://www.w3.org/2000/svg" xmlns:rdf="http://www.w3.org/1999/02/22-rdf-syntax-ns#" xmlns:cc="http://creativecommons.org/ns#" xmlns:dc="http://purl.org/dc/elements/1.1/"
	 xmlns="http://www.w3.org/2000/svg" xmlns:xlink="http://www.w3.org/1999/xlink" x="0px" y="0px" width="32px" height="32px"
	 viewBox="0 0 32 32" enable-background="new 0 0 32 32" xml:space="preserve">
<path id="path3151" fill="#FFFFFF" d="M19.945,15.325c-0.414-0.13-3.027-0.135-4.024-0.135c-0.329,0-0.631-0.249-0.607-0.68
	c0.248-4.816,0.287-5.576,0.383-10.262c-0.017-0.421-0.176-0.67-0.454-0.652c-3.054,0.033-4.615,0.033-7.665,0
	C7.3,3.577,7.139,3.826,7.131,4.247c0.086,4.687,0.131,5.448,0.372,10.262c0.027,0.433-0.278,0.68-0.605,0.68
	c-0.993,0-3.608,0.006-4.023,0.135c-0.541,0.174-0.096,0.8-0.096,0.8l7.662,11.199c0.52,0.746,1.312,0.814,1.944,0l7.662-11.199
	C20.043,16.125,20.49,15.5,19.945,15.325z"/>
</svg>
