<?xml version="1.0" encoding="UTF-8" standalone="no"?>
<!-- Created with Inkscape (http://www.inkscape.org/) -->

<svg
   xmlns:dc="http://purl.org/dc/elements/1.1/"
   xmlns:cc="http://creativecommons.org/ns#"
   xmlns:rdf="http://www.w3.org/1999/02/22-rdf-syntax-ns#"
   xmlns:svg="http://www.w3.org/2000/svg"
   xmlns="http://www.w3.org/2000/svg"
   version="1.1"
   width="32"
   height="32"
   viewBox="0 0 32 32"
   id="svg3426"
   xml:space="preserve"><metadata
   id="metadata3305"><rdf:RDF><cc:Work
       rdf:about=""><dc:format>image/svg+xml</dc:format><dc:type
         rdf:resource="http://purl.org/dc/dcmitype/StillImage" /><dc:title></dc:title></cc:Work></rdf:RDF></metadata><defs
   id="defs3303" />


<g
   transform="matrix(2.1478172,0,0,2.1478172,-6.2900995,-20.002774)"
   id="g3293">
	<circle
   cx="15.433"
   cy="12.156"
   r="1.226"
   id="circle3295"
   style="fill:#f1f2f2" />
	<circle
   cx="15.433"
   cy="16.646"
   r="1.226"
   id="circle3297"
   style="fill:#f1f2f2" />
	<circle
   cx="15.433"
   cy="21.136999"
   r="1.227"
   id="circle3299"
   style="fill:#f1f2f2" />
</g><path
   d="m 19.944737,15.324689 c -0.413331,-0.130194 -3.027307,-0.13525 -4.023348,-0.13525 -0.328644,0 -0.630741,-0.249011 -0.606726,-0.680038 0.247746,-4.815884 0.286931,-5.5755555 0.382996,-10.2625105 -0.01644,-0.4209159 -0.175697,-0.6699262 -0.45378,-0.65223 -3.053852,0.032864 -4.614907,0.032864 -7.6649676,0 -0.279346,-0.017696 -0.439876,0.2313141 -0.44746,0.65223 0.08595,4.686955 0.131457,5.4478905 0.371619,10.2625105 0.02654,0.432292 -0.278082,0.680038 -0.605461,0.680038 -0.993513,0 -3.608753,0.0063 -4.023349,0.13525 -0.540997,0.174433 -0.09607,0.800118 -0.09607,0.800118 L 10.44063,27.32395 c 0.519509,0.747032 1.312044,0.815288 1.944049,0 l 7.662444,-11.199143 c -0.0037,0 0.442404,-0.624421 -0.10239,-0.800118 z"
   id="path3151"
   style="fill:#f1f2f2" /></svg>