<?xml version="1.0" encoding="utf-8"?>
<!-- Generator: Adobe Illustrator 14.0.0, SVG Export Plug-In . SVG Version: 6.00 Build 43363)  -->
<!DOCTYPE svg PUBLIC "-//W3C//DTD SVG 1.1//EN" "http://www.w3.org/Graphics/SVG/1.1/DTD/svg11.dtd">
<svg version="1.1"
	 id="svg3426" xmlns:svg="http://www.w3.org/2000/svg" xmlns:rdf="http://www.w3.org/1999/02/22-rdf-syntax-ns#" xmlns:cc="http://creativecommons.org/ns#" xmlns:dc="http://purl.org/dc/elements/1.1/" xmlns:sodipodi="http://sodipodi.sourceforge.net/DTD/sodipodi-0.dtd" sodipodi:docname="tab_feeds.svg" xmlns:inkscape="http://www.inkscape.org/namespaces/inkscape" inkscape:version="0.48.0 r9654"
	 xmlns="http://www.w3.org/2000/svg" xmlns:xlink="http://www.w3.org/1999/xlink" x="0px" y="0px" width="32px" height="32px"
	 viewBox="0 0 32 32" enable-background="new 0 0 32 32" xml:space="preserve">
<defs>
	
	
		<sodipodi:namedview  id="namedview3470" inkscape:zoom="10.44997" inkscape:window-y="0" inkscape:window-x="300" inkscape:cx="16.00177" inkscape:window-height="659" bordercolor="#666666" inkscape:window-width="885" inkscape:current-layer="svg3426" objecttolerance="10" inkscape:pageopacity="0" inkscape:cy="16.00177" pagecolor="#ffffff" gridtolerance="10" guidetolerance="10" inkscape:pageshadow="2" borderopacity="1" showgrid="false" inkscape:window-maximized="0">
		</sodipodi:namedview>
	<defs>
		
		
			<inkscape:perspective  id="perspective3474" inkscape:vp_z="32 : 16 : 1" inkscape:persp3d-origin="16 : 10.666667 : 1" inkscape:vp_x="0 : 16 : 1" sodipodi:type="inkscape:persp3d" inkscape:vp_y="0 : 1000 : 0">
			</inkscape:perspective>
		
			<inkscape:perspective  id="perspective3984" inkscape:vp_z="1 : 0.5 : 1" inkscape:persp3d-origin="0.5 : 0.33333333 : 1" inkscape:vp_x="0 : 0.5 : 1" sodipodi:type="inkscape:persp3d" inkscape:vp_y="0 : 1000 : 0">
			</inkscape:perspective>
	</defs>
</defs>
<sodipodi:namedview  id="namedview3077" inkscape:zoom="8.0625" inkscape:window-y="55" inkscape:window-x="320" inkscape:cx="16" inkscape:window-height="480" bordercolor="#666666" inkscape:window-width="640" inkscape:current-layer="svg3426" objecttolerance="10" inkscape:pageopacity="0" inkscape:cy="16" pagecolor="#ffffff" gridtolerance="10" guidetolerance="10" inkscape:pageshadow="2" borderopacity="1" showgrid="false" inkscape:window-maximized="0">
	</sodipodi:namedview>
<path id="path3069" inkscape:connector-curvature="0" fill="#FFFFFF" d="M27.617,30.062L27.617,30.062
	c-1.277,0-2.318-1.037-2.318-2.318c0-5.567-2.17-10.803-6.109-14.741c-3.935-3.938-9.17-6.108-14.741-6.108
	c-1.283,0-2.319-1.037-2.319-2.317c0-1.278,1.037-2.317,2.319-2.317c6.809,0,13.208,2.651,18.016,7.464
	c4.816,4.812,7.467,11.213,7.465,18.019C29.934,29.025,28.898,30.062,27.617,30.062L27.617,30.062z"/>
<path id="path3071" inkscape:connector-curvature="0" fill="#FFFFFF" d="M18.471,30.062c-1.282,0-2.32-1.037-2.32-2.318
	c0-3.123-1.217-6.064-3.427-8.275c-2.21-2.21-5.15-3.428-8.275-3.428c-0.001,0-0.001,0-0.002,0c-1.283,0-2.319-1.04-2.319-2.319
	c0-1.281,1.037-2.318,2.319-2.318c0,0,0,0,0.002,0c4.364,0,8.465,1.699,11.55,4.788c3.086,3.085,4.787,7.188,4.787,11.552
	C20.788,29.025,19.75,30.062,18.471,30.062L18.471,30.062L18.471,30.062z"/>
<circle id="circle3073" sodipodi:ry="2.6719999" sodipodi:cy="27.408001" sodipodi:rx="2.6719999" sodipodi:cx="6.0580001" fill="#FFFFFF" cx="5.864" cy="26.368" r="3.133">
</circle>
</svg>
