<?xml version="1.0" encoding="utf-8"?>
<!-- Generator: Adobe Illustrator 14.0.0, SVG Export Plug-In . SVG Version: 6.00 Build 43363)  -->
<!DOCTYPE svg PUBLIC "-//W3C//DTD SVG 1.1//EN" "http://www.w3.org/Graphics/SVG/1.1/DTD/svg11.dtd">
<svg version="1.1" id="settings" xmlns="http://www.w3.org/2000/svg" xmlns:xlink="http://www.w3.org/1999/xlink" x="0px" y="0px"
	 width="32px" height="32px" viewBox="0 0 32 32" enable-background="new 0 0 32 32" xml:space="preserve">
<path fill="#FFFFFF" d="M13.867,3.132c-0.251-0.008-0.497-0.009-0.731-0.008l-0.014,0.027V3.124c-0.234-0.001-0.48,0-0.731,0.008
	C3.214,3.513,2.232,7.154,2.232,7.154s2.121,19.991,2.167,20.214c0.059,0.284,0.133,0.386,0.409,0.565
	c0.951,0.604,4.592,1.738,8.312,1.756h0.014c3.722-0.018,7.363-1.151,8.314-1.756c0.274-0.182,0.35-0.281,0.409-0.565
	c0.045-0.224,2.166-20.214,2.166-20.214S23.044,3.513,13.867,3.132z M13.135,9.12c0,0-0.006,0.036-0.014,0.091V9.12
	c-5.28-0.002-8.648-1.201-8.648-2.027c0-0.827,3.368-2.025,8.648-2.028V5.044l0.014,0.021c5.281,0.002,8.65,1.201,8.65,2.028
	C21.785,7.919,18.416,9.117,13.135,9.12z"/>
<g>
	<circle fill="#FFFFFF" cx="28.051" cy="11.46" r="1.486"/>
	<circle fill="#FFFFFF" cx="28.051" cy="17.144" r="1.485"/>
	<circle fill="#FFFFFF" cx="28.051" cy="22.827" r="1.487"/>
</g>
</svg>
