<?xml version="1.0" encoding="utf-8"?>
<!-- Generator: Adobe Illustrator 14.0.0, SVG Export Plug-In . SVG Version: 6.00 Build 43363)  -->
<!DOCTYPE svg PUBLIC "-//W3C//DTD SVG 1.1//EN" "http://www.w3.org/Graphics/SVG/1.1/DTD/svg11.dtd">
<svg version="1.1" id="download_x5F_pause" xmlns="http://www.w3.org/2000/svg" xmlns:xlink="http://www.w3.org/1999/xlink" x="0px"
	 y="0px" width="32px" height="32px" viewBox="0 0 32 32" enable-background="new 0 0 32 32" xml:space="preserve">
<g>
	<path fill="#F1F2F2" d="M21.233,17.186c-0.814,0-1.475-0.75-1.475-1.673V7.608c0-0.924,0.66-1.674,1.475-1.674
		c0.815,0,1.474,0.75,1.474,1.674v7.905C22.707,16.437,22.049,17.186,21.233,17.186L21.233,17.186z"/>
	<path fill="#F1F2F2" d="M26.976,17.186c-0.812,0-1.474-0.75-1.474-1.673V7.608c0-0.924,0.662-1.674,1.474-1.674
		c0.814,0,1.475,0.75,1.475,1.674v7.905C28.45,16.437,27.787,17.186,26.976,17.186L26.976,17.186z"/>
	<g>
		<path fill="#F1F2F2" d="M10.121,26.201l6.425-9.384c0,0,0.373-0.528-0.084-0.672c-0.343-0.11-2.536-0.119-3.371-0.114
			c-0.275,0.002-0.528-0.211-0.509-0.57c0.208-4.036,0.24-4.677,0.317-8.604c-0.006-0.352-0.14-0.561-0.377-0.549
			c-2.558,0.029-3.721,0.029-6.281,0c-0.236-0.01-0.37,0.198-0.379,0.55c0.077,3.927,0.111,4.567,0.316,8.603
			c0.023,0.36-0.229,0.572-0.507,0.57c-0.833-0.005-3.17,0.004-3.512,0.115c-0.458,0.143-0.083,0.671-0.083,0.671l6.418,9.384
			C8.926,26.823,9.591,26.881,10.121,26.201z"/>
	</g>
</g>
</svg>
