<?xml version="1.0" encoding="UTF-8" standalone="no"?>
<!-- Generator: Adobe Illustrator 14.0.0, SVG Export Plug-In . SVG Version: 6.00 Build 43363)  -->

<svg
   xmlns:dc="http://purl.org/dc/elements/1.1/"
   xmlns:cc="http://creativecommons.org/ns#"
   xmlns:rdf="http://www.w3.org/1999/02/22-rdf-syntax-ns#"
   xmlns:svg="http://www.w3.org/2000/svg"
   xmlns="http://www.w3.org/2000/svg"
   xmlns:sodipodi="http://sodipodi.sourceforge.net/DTD/sodipodi-0.dtd"
   xmlns:inkscape="http://www.inkscape.org/namespaces/inkscape"
   version="1.1"
   id="download"
   x="0px"
   y="0px"
   width="32px"
   height="32px"
   viewBox="0 0 32 32"
   enable-background="new 0 0 32 32"
   xml:space="preserve"
   inkscape:version="0.48.0 r9654"
   sodipodi:docname="download.svg"><metadata
   id="metadata3091"><rdf:RDF><cc:Work
       rdf:about=""><dc:format>image/svg+xml</dc:format><dc:type
         rdf:resource="http://purl.org/dc/dcmitype/StillImage" /></cc:Work></rdf:RDF></metadata><defs
   id="defs3089" /><sodipodi:namedview
   pagecolor="#ffffff"
   bordercolor="#666666"
   borderopacity="1"
   objecttolerance="10"
   gridtolerance="10"
   guidetolerance="10"
   inkscape:pageopacity="0"
   inkscape:pageshadow="2"
   inkscape:window-width="640"
   inkscape:window-height="480"
   id="namedview3087"
   showgrid="false"
   inkscape:zoom="8.0625"
   inkscape:cx="16"
   inkscape:cy="16"
   inkscape:window-x="0"
   inkscape:window-y="0"
   inkscape:window-maximized="0"
   inkscape:current-layer="download" />
<path
   d="m 16.493093,26.2 6.425,-9.384 c 0,0 0.374,-0.527 -0.083,-0.672 -0.344,-0.109 -2.535,-0.118 -3.371,-0.113 -0.276,0.002 -0.529,-0.212 -0.509,-0.572 0.208,-4.034 0.239,-4.675 0.317,-8.602 -0.007,-0.352 -0.139,-0.561 -0.377,-0.549 -2.559,0.029 -3.721,0.029 -6.282,0 -0.236,-0.01 -0.37,0.199 -0.379,0.55 0.076,3.927 0.111,4.567 0.316,8.603 0.023,0.36 -0.229,0.572 -0.507,0.57 -0.833,-0.005 -3.17,0.004 -3.512,0.115 -0.458,0.143 -0.083,0.67 -0.083,0.67 l 6.418,9.384 c 0.433,0.623 1.097,0.68 1.627,0 z"
   id="path3085"
   style="fill:#ffffff"
   inkscape:connector-curvature="0" />
</svg>