<?xml version="1.0" encoding="utf-8"?>
<!-- Generator: Adobe Illustrator 14.0.0, SVG Export Plug-In . SVG Version: 6.00 Build 43363)  -->
<!DOCTYPE svg PUBLIC "-//W3C//DTD SVG 1.1//EN" "http://www.w3.org/Graphics/SVG/1.1/DTD/svg11.dtd">
<svg version="1.1" id="download_x5F_play" xmlns="http://www.w3.org/2000/svg" xmlns:xlink="http://www.w3.org/1999/xlink" x="0px"
	 y="0px" width="32px" height="32px" viewBox="0 0 32 32" enable-background="new 0 0 32 32" xml:space="preserve">
<g>
	<path fill="#FFFFFF" d="M26.559,24.782c1.864-2.327,3-5.265,3-8.48c0-7.518-6.096-13.613-13.614-13.613
		c-7.519,0-13.614,6.096-13.614,13.613c0,4.384,2.068,8.288,5.305,10.749c0.518,0.395,2.708,1.629,3.684,1.909
		c0.601,0.185,0.895-0.151,1.018-0.37c0.052-0.093,0.101-0.406,0.101-0.406l0.235-2.022c0,0,0.045-0.338-0.085-0.582
		c-0.108-0.209-0.383-0.325-0.497-0.367c-0.234-0.08-0.204-0.097-0.414-0.177c-3.231-1.587-5.468-4.896-5.468-8.732
		c0-5.369,4.367-9.736,9.736-9.736c5.371,0,9.736,4.367,9.736,9.736c0,2.261-0.779,4.335-2.076,5.99
		c-1.461-1.229-2.641-2.215-2.679-2.232c-0.286-0.14-0.501-0.05-0.601,0.019c-0.289,0.178-0.317,0.532-0.317,0.644l0.011,7.512
		c0,0.084,0.004,0.168,0.017,0.25c0.104,0.643,0.659,1.021,1.364,0.926l7.418-1.26c0.412-0.075,0.67-0.381,0.613-0.73
		c-0.02-0.097-0.055-0.191-0.121-0.284C29.284,27.096,28.061,26.055,26.559,24.782z"/>
</g>
</svg>
