<?xml version="1.0" encoding="UTF-8" standalone="no"?>
<!-- Created with Inkscape (http://www.inkscape.org/) -->

<svg
   xmlns:dc="http://purl.org/dc/elements/1.1/"
   xmlns:cc="http://creativecommons.org/ns#"
   xmlns:rdf="http://www.w3.org/1999/02/22-rdf-syntax-ns#"
   xmlns:svg="http://www.w3.org/2000/svg"
   xmlns="http://www.w3.org/2000/svg"
   version="1.1"
   width="32"
   height="32"
   viewBox="0 0 32 32"
   id="svg3426"
   xml:space="preserve"><metadata
   id="metadata3064"><rdf:RDF><cc:Work
       rdf:about=""><dc:format>image/svg+xml</dc:format><dc:type
         rdf:resource="http://purl.org/dc/dcmitype/StillImage" /><dc:title></dc:title></cc:Work></rdf:RDF></metadata><defs
   id="defs3062" />

<g
   transform="matrix(1.6922196,0,0,1.6922196,-1.3441909,-12.542473)"
   id="g3095"><circle
     cx="15.433"
     cy="12.156"
     r="1.226"
     id="circle3097"
     style="fill:#f1f2f2" /><circle
     cx="15.433"
     cy="16.646"
     r="1.226"
     id="circle3099"
     style="fill:#f1f2f2" /><circle
     cx="15.433"
     cy="21.136999"
     r="1.227"
     id="circle3101"
     style="fill:#f1f2f2" /></g><path
   d="m 12.33319,25.01588 6.198938,-9.053726 c 0,0 0.359154,-0.512148 -0.08029,-0.64995 -0.330943,-0.107421 -2.445721,-0.112846 -3.251919,-0.111761 -0.26584,0.0022 -0.509978,-0.203991 -0.491532,-0.550125 0.202906,-3.892104 0.232203,-4.510587 0.307072,-8.2996103 -0.0065,-0.3396232 -0.135633,-0.541444 -0.36458,-0.5295084 -2.468507,0.027126 -3.592628,0.027126 -6.0611352,0 -0.2278622,-0.00977 -0.3569841,0.1920553 -0.3667497,0.5316786 0.071614,3.7890231 0.1074208,4.4064211 0.3027313,8.2996101 0.022786,0.348304 -0.2180967,0.55121 -0.4871912,0.54904 -0.8040281,-0.0043 -3.0587781,0.0043 -3.3886358,0.112846 -0.4416187,0.137802 -0.080294,0.648865 -0.080294,0.648865 l 6.1945966,9.052641 c 0.416662,0.602207 1.057931,0.657545 1.568994,0 z"
   id="path3027"
   style="fill:#f1f2f2" /></svg>