<?xml version="1.0" encoding="utf-8"?>
<!-- Generator: Adobe Illustrator 14.0.0, SVG Export Plug-In . SVG Version: 6.00 Build 43363)  -->
<!DOCTYPE svg PUBLIC "-//W3C//DTD SVG 1.1//EN" "http://www.w3.org/Graphics/SVG/1.1/DTD/svg11.dtd">
<svg version="1.1"
	 id="svg3426" xmlns:dc="http://purl.org/dc/elements/1.1/" xmlns:inkscape="http://www.inkscape.org/namespaces/inkscape" sodipodi:docname="Audio_downloading.svg" xmlns:sodipodi="http://sodipodi.sourceforge.net/DTD/sodipodi-0.dtd" xmlns:cc="http://creativecommons.org/ns#" xmlns:rdf="http://www.w3.org/1999/02/22-rdf-syntax-ns#" xmlns:svg="http://www.w3.org/2000/svg" inkscape:version="0.47 r22583"
	 xmlns="http://www.w3.org/2000/svg" xmlns:xlink="http://www.w3.org/1999/xlink" x="0px" y="0px" width="32px" height="32px"
	 viewBox="0 0 32 32" enable-background="new 0 0 32 32" xml:space="preserve">
<sodipodi:namedview  inkscape:current-layer="svg3426" inkscape:window-y="0" inkscape:window-x="300" inkscape:cy="16.00177" inkscape:cx="16.00177" inkscape:zoom="10.44997" showgrid="false" inkscape:window-height="659" inkscape:window-width="885" inkscape:pageshadow="2" inkscape:pageopacity="0" gridtolerance="10" objecttolerance="10" borderopacity="1" guidetolerance="10" pagecolor="#ffffff" bordercolor="#666666" inkscape:window-maximized="0" id="namedview3470">
	</sodipodi:namedview>
<defs>
	
	
		<inkscape:perspective  inkscape:persp3d-origin="16 : 10.666667 : 1" inkscape:vp_z="32 : 16 : 1" inkscape:vp_y="0 : 1000 : 0" inkscape:vp_x="0 : 16 : 1" sodipodi:type="inkscape:persp3d" id="perspective3474">
		</inkscape:perspective>
	
		<inkscape:perspective  inkscape:persp3d-origin="0.5 : 0.33333333 : 1" inkscape:vp_z="1 : 0.5 : 1" inkscape:vp_y="0 : 1000 : 0" inkscape:vp_x="0 : 0.5 : 1" sodipodi:type="inkscape:persp3d" id="perspective3984">
		</inkscape:perspective>
</defs>
<g>
	<path fill="#484748" d="M9.931,25.9l5.713-8.344c0,0,0.331-0.47-0.074-0.597c-0.305-0.098-2.254-0.105-2.997-0.102
		c-0.245,0.002-0.47-0.188-0.453-0.508c0.185-3.587,0.214-4.157,0.283-7.649c-0.006-0.313-0.125-0.499-0.336-0.488
		c-2.275,0.025-3.309,0.025-5.586,0c-0.21-0.01-0.329,0.176-0.338,0.489c0.068,3.492,0.099,4.061,0.281,7.649
		c0.021,0.321-0.203,0.51-0.451,0.508c-0.741-0.004-2.819,0.003-3.123,0.102c-0.407,0.127-0.074,0.597-0.074,0.597l5.709,8.344
		C8.869,26.455,9.46,26.506,9.931,25.9z"/>
	<path fill="#484748" d="M20.854,19.526c-0.979,0.619-1.78,0.176-1.78-0.981V9.16c0-1.159,0.8-1.598,1.78-0.981l7.197,4.55
		c0.979,0.618,0.979,1.632,0,2.25L20.854,19.526z"/>
</g>
</svg>
