<?xml version="1.0" encoding="utf-8"?>
<!-- Generator: Adobe Illustrator 14.0.0, SVG Export Plug-In . SVG Version: 6.00 Build 43363)  -->
<!DOCTYPE svg PUBLIC "-//W3C//DTD SVG 1.1//EN" "http://www.w3.org/Graphics/SVG/1.1/DTD/svg11.dtd">
<svg version="1.1"
	 id="svg3426" xmlns:dc="http://purl.org/dc/elements/1.1/" xmlns:svg="http://www.w3.org/2000/svg" inkscape:version="0.47 r22583" xmlns:rdf="http://www.w3.org/1999/02/22-rdf-syntax-ns#" xmlns:inkscape="http://www.inkscape.org/namespaces/inkscape" xmlns:sodipodi="http://sodipodi.sourceforge.net/DTD/sodipodi-0.dtd" xmlns:cc="http://creativecommons.org/ns#" sodipodi:docname="Audio_downloading.svg"
	 xmlns="http://www.w3.org/2000/svg" xmlns:xlink="http://www.w3.org/1999/xlink" x="0px" y="0px" width="32px" height="32px"
	 viewBox="0 0 32 32" enable-background="new 0 0 32 32" xml:space="preserve">
<sodipodi:namedview  id="namedview3470" bordercolor="#666666" pagecolor="#ffffff" guidetolerance="10" inkscape:zoom="10.44997" gridtolerance="10" inkscape:current-layer="svg3426" inkscape:pageopacity="0" borderopacity="1" inkscape:window-y="0" objecttolerance="10" inkscape:cx="16.00177" inkscape:cy="16.00177" inkscape:window-x="300" inkscape:pageshadow="2" inkscape:window-width="885" inkscape:window-height="659" showgrid="false" inkscape:window-maximized="0">
	</sodipodi:namedview>
<defs>
	
	
		<inkscape:perspective  id="perspective3474" sodipodi:type="inkscape:persp3d" inkscape:vp_x="0 : 16 : 1" inkscape:vp_y="0 : 1000 : 0" inkscape:vp_z="32 : 16 : 1" inkscape:persp3d-origin="16 : 10.666667 : 1">
		</inkscape:perspective>
	
		<inkscape:perspective  id="perspective3984" sodipodi:type="inkscape:persp3d" inkscape:vp_x="0 : 0.5 : 1" inkscape:vp_y="0 : 1000 : 0" inkscape:vp_z="1 : 0.5 : 1" inkscape:persp3d-origin="0.5 : 0.33333333 : 1">
		</inkscape:perspective>
</defs>
<g>
	<g>
		<path fill="#F1F2F2" d="M21.015,20.438c-0.993,0-1.803-0.806-1.803-1.799v-8.498c0-0.993,0.81-1.8,1.803-1.8
			c0.998,0,1.804,0.807,1.804,1.8v8.498C22.818,19.633,22.013,20.438,21.015,20.438L21.015,20.438z"/>
		<path fill="#F1F2F2" d="M26.848,20.438c-0.993,0-1.804-0.806-1.804-1.799v-8.498c0-0.993,0.811-1.8,1.804-1.8
			c0.992,0,1.801,0.807,1.801,1.8v8.498C28.648,19.633,27.841,20.438,26.848,20.438L26.848,20.438z"/>
	</g>
	<path fill="#F1F2F2" d="M10.07,25.9l5.71-8.346c0,0,0.331-0.472-0.074-0.599c-0.306-0.097-2.254-0.104-2.998-0.103
		c-0.247,0.002-0.47-0.187-0.453-0.506c0.186-3.587,0.213-4.156,0.28-7.648c-0.004-0.313-0.123-0.499-0.332-0.486
		c-2.277,0.024-3.438,0.024-5.717,0C6.28,8.201,6.161,8.386,6.151,8.7c0.068,3.492,0.103,4.061,0.284,7.648
		c0.018,0.321-0.208,0.509-0.453,0.507c-0.743-0.002-2.692,0.006-2.997,0.102c-0.404,0.127-0.073,0.598-0.073,0.598l5.71,8.346
		C9.009,26.454,9.6,26.508,10.07,25.9z"/>
</g>
</svg>
