<?xml version="1.0" encoding="utf-8"?>
<!-- Generator: Adobe Illustrator 14.0.0, SVG Export Plug-In . SVG Version: 6.00 Build 43363)  -->
<!DOCTYPE svg PUBLIC "-//W3C//DTD SVG 1.1//EN" "http://www.w3.org/Graphics/SVG/1.1/DTD/svg11.dtd">
<svg version="1.1"
	 id="svg3426" xmlns:dc="http://purl.org/dc/elements/1.1/" xmlns:svg="http://www.w3.org/2000/svg" inkscape:version="0.47 r22583" xmlns:rdf="http://www.w3.org/1999/02/22-rdf-syntax-ns#" xmlns:inkscape="http://www.inkscape.org/namespaces/inkscape" xmlns:sodipodi="http://sodipodi.sourceforge.net/DTD/sodipodi-0.dtd" xmlns:cc="http://creativecommons.org/ns#" sodipodi:docname="Audio_downloading.svg"
	 xmlns="http://www.w3.org/2000/svg" xmlns:xlink="http://www.w3.org/1999/xlink" x="0px" y="0px" width="32px" height="32px"
	 viewBox="0 0 32 32" enable-background="new 0 0 32 32" xml:space="preserve">
<sodipodi:namedview  id="namedview3470" bordercolor="#666666" pagecolor="#ffffff" guidetolerance="10" inkscape:zoom="10.44997" gridtolerance="10" inkscape:current-layer="svg3426" inkscape:pageopacity="0" borderopacity="1" inkscape:window-y="0" objecttolerance="10" inkscape:cx="16.00177" inkscape:cy="16.00177" inkscape:window-x="300" inkscape:pageshadow="2" inkscape:window-width="885" inkscape:window-height="659" showgrid="false" inkscape:window-maximized="0">
	</sodipodi:namedview>
<defs>
	
	
		<inkscape:perspective  id="perspective3474" sodipodi:type="inkscape:persp3d" inkscape:vp_x="0 : 16 : 1" inkscape:vp_y="0 : 1000 : 0" inkscape:vp_z="32 : 16 : 1" inkscape:persp3d-origin="16 : 10.666667 : 1">
		</inkscape:perspective>
	
		<inkscape:perspective  id="perspective3984" sodipodi:type="inkscape:persp3d" inkscape:vp_x="0 : 0.5 : 1" inkscape:vp_y="0 : 1000 : 0" inkscape:vp_z="1 : 0.5 : 1" inkscape:persp3d-origin="0.5 : 0.33333333 : 1">
		</inkscape:perspective>
</defs>
<g>
	<path fill="#F1F2F2" d="M9.931,25.9l5.713-8.344c0,0,0.331-0.472-0.074-0.599c-0.305-0.099-2.254-0.104-2.997-0.103
		c-0.245,0.002-0.47-0.188-0.453-0.507c0.187-3.587,0.214-4.157,0.283-7.649c-0.006-0.313-0.125-0.499-0.336-0.488
		c-2.275,0.025-3.311,0.025-5.586,0C6.271,8.201,6.152,8.387,6.143,8.7c0.066,3.492,0.099,4.061,0.279,7.649
		c0.021,0.321-0.201,0.508-0.449,0.506c-0.741-0.004-2.819,0.004-3.123,0.104c-0.407,0.127-0.074,0.598-0.074,0.598L8.485,25.9
		C8.869,26.455,9.46,26.506,9.931,25.9z"/>
	<path fill="#F1F2F2" d="M20.854,19.525c-0.979,0.619-1.78,0.177-1.78-0.98V9.16c0-1.159,0.8-1.598,1.78-0.981l7.195,4.55
		c0.979,0.618,0.979,1.632,0,2.25L20.854,19.525z"/>
</g>
</svg>
