<?xml version="1.0" encoding="utf-8"?>
<!-- Generator: Adobe Illustrator 14.0.0, SVG Export Plug-In . SVG Version: 6.00 Build 43363)  -->
<!DOCTYPE svg PUBLIC "-//W3C//DTD SVG 1.1//EN" "http://www.w3.org/Graphics/SVG/1.1/DTD/svg11.dtd">
<svg version="1.1"
	 id="svg3426" xmlns:dc="http://purl.org/dc/elements/1.1/" xmlns:inkscape="http://www.inkscape.org/namespaces/inkscape" sodipodi:docname="Audio_downloading.svg" xmlns:sodipodi="http://sodipodi.sourceforge.net/DTD/sodipodi-0.dtd" xmlns:cc="http://creativecommons.org/ns#" xmlns:rdf="http://www.w3.org/1999/02/22-rdf-syntax-ns#" xmlns:svg="http://www.w3.org/2000/svg" inkscape:version="0.47 r22583"
	 xmlns="http://www.w3.org/2000/svg" xmlns:xlink="http://www.w3.org/1999/xlink" x="0px" y="0px" width="32px" height="32px"
	 viewBox="0 0 32 32" enable-background="new 0 0 32 32" xml:space="preserve">
<path fill="#484748" d="M26.776,12.168l-7.302-0.466l-2.644-5.007h-0.004l-0.58-1.1c-0.406-0.769-0.987-0.757-1.35,0.034
	l-1.295,2.81l0,0l-1.596,3.468l-6.433,1.113l-0.446,0.078c-0.856,0.149-0.997,0.65-0.361,1.24l0.601,0.555l4.527,4.175l-0.413,2.887
	l-0.565,3.905c-0.125,0.859,0.397,1.215,1.153,0.788l0.641-0.359l0.002,0.002l3.182-1.786l0.146-0.083l2.016-1.132l6.322,3.54
	c0.779,0.383,1.414-0.023,1.244-0.876l-1.646-7.215l5.326-5.197C27.906,12.919,27.639,12.271,26.776,12.168z M19.424,20.883
	c-0.393,0.392-0.926,0.441-1.275,0.093l-2.146-2.102l-2.111,2.102c-0.347,0.349-0.884,0.299-1.275-0.092
	c-0.34-0.34-0.499-0.866-0.091-1.274l2.101-2.111l-2.142-2.101c-0.41-0.408-0.251-0.935,0.091-1.274
	c0.39-0.392,0.926-0.44,1.276-0.092l2.143,2.101l2.114-2.101c0.349-0.348,0.883-0.298,1.273,0.091
	c0.34,0.339,0.499,0.867,0.093,1.274l-2.101,2.111l2.142,2.102C19.924,20.018,19.764,20.543,19.424,20.883z"/>
</svg>
