<?xml version="1.0" encoding="utf-8"?>
<!-- Generator: Adobe Illustrator 14.0.0, SVG Export Plug-In . SVG Version: 6.00 Build 43363)  -->
<!DOCTYPE svg PUBLIC "-//W3C//DTD SVG 1.1//EN" "http://www.w3.org/Graphics/SVG/1.1/DTD/svg11.dtd">
<svg version="1.1"
	 id="svg3426" xmlns:dc="http://purl.org/dc/elements/1.1/" xmlns:inkscape="http://www.inkscape.org/namespaces/inkscape" sodipodi:docname="Audio_downloading.svg" xmlns:sodipodi="http://sodipodi.sourceforge.net/DTD/sodipodi-0.dtd" xmlns:cc="http://creativecommons.org/ns#" xmlns:rdf="http://www.w3.org/1999/02/22-rdf-syntax-ns#" xmlns:svg="http://www.w3.org/2000/svg" inkscape:version="0.47 r22583"
	 xmlns="http://www.w3.org/2000/svg" xmlns:xlink="http://www.w3.org/1999/xlink" x="0px" y="0px" width="32px" height="32px"
	 viewBox="0 0 32 32" enable-background="new 0 0 32 32" xml:space="preserve">
<path fill="#474748" d="M27.755,23.594c-0.062-0.09-1.094-1.004-2.39-2.127c1.516-2.916,1.695-6.363,0.438-9.444
	c-2.344-5.746-8.925-8.514-14.67-6.168c-5.746,2.344-8.515,8.925-6.17,14.67c1.305,3.194,3.742,5.453,7.042,6.406
	c0.821,0.25,1.045-0.511,1.045-0.511l0.488-2.116c0,0,0.043-0.324-0.081-0.558c-0.104-0.201-0.369-0.313-0.478-0.353
	c-2.056-0.696-3.729-2.254-4.557-4.28c-1.566-3.839,0.282-8.236,4.119-9.801c3.84-1.566,8.235,0.282,9.802,4.121
	c0.728,1.778,0.734,3.737,0.07,5.496c-1.302-1.109-2.354-1.992-2.454-2.039c-0.266-0.132-0.468-0.05-0.562,0.012
	c-0.271,0.164-0.301,0.496-0.303,0.6l-0.058,7.039c-0.002,0.08,0.002,0.158,0.013,0.234c0.092,0.604,0.609,0.965,1.271,0.879
	l6.964-1.113c0.386-0.068,0.63-0.352,0.581-0.68C27.848,23.77,27.814,23.682,27.755,23.594z"/>
<g>
	<circle fill="#474748" cx="15.433" cy="12.156" r="1.226"/>
	<circle fill="#474748" cx="15.433" cy="16.646" r="1.226"/>
	<circle fill="#474748" cx="15.433" cy="21.137" r="1.227"/>
</g>
</svg>
