<?xml version="1.0" encoding="utf-8"?>
<!-- Generator: Adobe Illustrator 14.0.0, SVG Export Plug-In . SVG Version: 6.00 Build 43363)  -->
<!DOCTYPE svg PUBLIC "-//W3C//DTD SVG 1.1//EN" "http://www.w3.org/Graphics/SVG/1.1/DTD/svg11.dtd">
<svg version="1.1" id="add_x5F_feed" xmlns="http://www.w3.org/2000/svg" xmlns:xlink="http://www.w3.org/1999/xlink" x="0px"
	 y="0px" width="32px" height="32px" viewBox="0 0 32 32" enable-background="new 0 0 32 32" xml:space="preserve">
<g>
	
		<sodipodi:namedview  id="namedview3470" inkscape:cx="16.00177" inkscape:window-height="659" inkscape:zoom="10.44997" inkscape:window-y="0" inkscape:window-x="300" showgrid="false" inkscape:window-maximized="0" inkscape:pageopacity="0" inkscape:pageshadow="2" inkscape:cy="16.00177" borderopacity="1" bordercolor="#666666" pagecolor="#ffffff" inkscape:window-width="885" inkscape:current-layer="svg3426" guidetolerance="10" objecttolerance="10" gridtolerance="10">
		</sodipodi:namedview>
	<defs>
		
		
			<inkscape:perspective  id="perspective3474" inkscape:persp3d-origin="16 : 10.666667 : 1" inkscape:vp_x="0 : 16 : 1" sodipodi:type="inkscape:persp3d" inkscape:vp_z="32 : 16 : 1" inkscape:vp_y="0 : 1000 : 0">
			</inkscape:perspective>
		
			<inkscape:perspective  id="perspective3984" inkscape:persp3d-origin="0.5 : 0.33333333 : 1" inkscape:vp_x="0 : 0.5 : 1" sodipodi:type="inkscape:persp3d" inkscape:vp_z="1 : 0.5 : 1" inkscape:vp_y="0 : 1000 : 0">
			</inkscape:perspective>
	</defs>
	<path fill="#F1F2F2" d="M23.967,30.689L23.967,30.689c-1.086,0-1.969-0.88-1.969-1.968c0-4.725-1.841-9.17-5.184-12.512
		c-3.341-3.344-7.785-5.186-12.513-5.186c-1.088,0-1.969-0.879-1.969-1.966c0-1.085,0.88-1.966,1.969-1.966
		c5.779,0,11.211,2.25,15.292,6.335c4.087,4.085,6.337,9.519,6.335,15.294C25.931,29.81,25.053,30.689,23.967,30.689L23.967,30.689z
		"/>
	<path fill="#F1F2F2" d="M16.203,30.689c-1.087,0-1.969-0.88-1.969-1.968c0-2.651-1.033-5.147-2.909-7.023s-4.371-2.909-7.023-2.909
		c-0.002,0-0.002,0-0.002,0c-1.088,0-1.969-0.883-1.969-1.968c0-1.089,0.88-1.97,1.969-1.97c0,0,0,0,0.002,0
		c3.704,0,7.185,1.442,9.804,4.067c2.62,2.616,4.063,6.1,4.063,9.803C18.17,29.81,17.287,30.689,16.203,30.689L16.203,30.689z"/>
	<circle fill="#F1F2F2" cx="5.502" cy="27.554" r="2.66"/>
	<path fill="#F1F2F2" d="M27.381,4.913h-2.129v-2.13c0-0.668-0.545-1.075-1.217-1.075c-0.669,0-1.211,0.406-1.211,1.075v2.132h-2.13
		c-0.672,0-1.076,0.543-1.076,1.212c0,0.671,0.404,1.214,1.076,1.214h2.13v2.13c0,0.669,0.542,1.077,1.211,1.077
		c0.672,0,1.217-0.407,1.217-1.077V7.339h2.129c0.67,0,1.077-0.543,1.077-1.215C28.458,5.455,28.051,4.913,27.381,4.913z"/>
</g>
</svg>
