<?xml version="1.0" encoding="utf-8"?>
<!-- Generator: Adobe Illustrator 14.0.0, SVG Export Plug-In . SVG Version: 6.00 Build 43363)  -->
<!DOCTYPE svg PUBLIC "-//W3C//DTD SVG 1.1//EN" "http://www.w3.org/Graphics/SVG/1.1/DTD/svg11.dtd">
<svg version="1.1" id="download_x5F_play" xmlns="http://www.w3.org/2000/svg" xmlns:xlink="http://www.w3.org/1999/xlink" x="0px"
	 y="0px" width="32px" height="32px" viewBox="0 0 32 32" enable-background="new 0 0 32 32" xml:space="preserve">
<g>
	
		<sodipodi:namedview  id="namedview3470" inkscape:zoom="10.44997" inkscape:window-y="0" inkscape:window-x="300" inkscape:cx="16.00177" inkscape:window-height="659" bordercolor="#666666" inkscape:window-width="885" inkscape:current-layer="svg3426" objecttolerance="10" inkscape:pageopacity="0" inkscape:cy="16.00177" pagecolor="#ffffff" gridtolerance="10" guidetolerance="10" inkscape:pageshadow="2" borderopacity="1" showgrid="false" inkscape:window-maximized="0">
		</sodipodi:namedview>
	<defs>
		
		
			<inkscape:perspective  id="perspective3474" inkscape:vp_z="32 : 16 : 1" inkscape:persp3d-origin="16 : 10.666667 : 1" inkscape:vp_x="0 : 16 : 1" sodipodi:type="inkscape:persp3d" inkscape:vp_y="0 : 1000 : 0">
			</inkscape:perspective>
		
			<inkscape:perspective  id="perspective3984" inkscape:vp_z="1 : 0.5 : 1" inkscape:persp3d-origin="0.5 : 0.33333333 : 1" inkscape:vp_x="0 : 0.5 : 1" sodipodi:type="inkscape:persp3d" inkscape:vp_y="0 : 1000 : 0">
			</inkscape:perspective>
	</defs>
	<path fill="#F1F2F2" d="M24.708,30.377L24.708,30.377c-1.086,0-1.969-0.881-1.969-1.969c0-4.725-1.841-9.17-5.184-12.505
		c-3.341-3.344-7.784-5.186-12.513-5.186c-1.088,0-1.969-0.879-1.969-1.966c0-1.085,0.881-1.966,1.969-1.966
		c5.779,0,11.212,2.25,15.292,6.335c4.087,4.082,6.337,9.513,6.335,15.288C26.672,29.496,25.794,30.377,24.708,30.377L24.708,30.377
		z"/>
	<path fill="#F1F2F2" d="M16.944,30.377c-1.087,0-1.968-0.881-1.968-1.969c0-2.65-1.033-5.146-2.91-7.023
		c-1.876-1.875-4.37-2.908-7.023-2.908c-0.002,0-0.002,0-0.002,0c-1.088,0-1.969-0.881-1.969-1.962c0-1.088,0.881-1.97,1.969-1.97
		c0,0,0,0,0.002,0c3.704,0,7.186,1.442,9.805,4.061c2.618,2.615,4.062,6.1,4.062,9.803C18.911,29.496,18.028,30.377,16.944,30.377
		L16.944,30.377z"/>
	<circle fill="#F1F2F2" cx="6.244" cy="27.241" r="2.659"/>
	<path fill="#F1F2F2" d="M28.122,4.606h-2.129v-2.13c0-0.668-0.545-1.075-1.217-1.075c-0.669,0-1.211,0.406-1.211,1.075v2.132h-2.13
		c-0.672,0-1.076,0.543-1.076,1.212c0,0.671,0.404,1.214,1.076,1.214h2.13v2.13c0,0.669,0.542,1.077,1.211,1.077
		c0.672,0,1.217-0.407,1.217-1.077V7.033h2.129c0.67,0,1.077-0.543,1.077-1.215C29.199,5.148,28.792,4.606,28.122,4.606z"/>
</g>
</svg>
