<?xml version="1.0" encoding="utf-8"?>
<!-- Generator: Adobe Illustrator 14.0.0, SVG Export Plug-In . SVG Version: 6.00 Build 43363)  -->
<!DOCTYPE svg PUBLIC "-//W3C//DTD SVG 1.1//EN" "http://www.w3.org/Graphics/SVG/1.1/DTD/svg11.dtd">
<svg version="1.1" id="Layer_2" xmlns="http://www.w3.org/2000/svg" xmlns:xlink="http://www.w3.org/1999/xlink" x="0px" y="0px"
	 width="64px" height="64px" viewBox="0 0 64 64" enable-background="new 0 0 64 64" xml:space="preserve">
<g>
	<path fill="#494947" d="M58.553,30.663c0.004-0.16,0.006-0.318,0.006-0.474c0-13.929-11.922-25.263-26.576-25.263
		C17.33,4.926,5.407,16.26,5.407,30.189c0,0.156,0.002,0.314,0.007,0.474C2.651,33.701,1.1,37.66,1.1,41.812
		c0,9.149,7.446,16.598,16.598,16.598h4.057v-1.973c1.062,0.477,2.236,0.746,3.474,0.746h13.509c1.238,0,2.414-0.271,3.476-0.748
		v1.975h4.058c9.149,0,16.596-7.447,16.596-16.598C62.865,37.66,61.312,33.701,58.553,30.663z"/>
	<rect x="22.141" y="33.977" fill="#FFFFFF" width="18.864" height="18.01"/>
	<g>
		
			<linearGradient id="SVGID_1_" gradientUnits="userSpaceOnUse" x1="481.7061" y1="-424.9644" x2="481.7061" y2="-480.897" gradientTransform="matrix(0.8112 0 0 -0.8112 -358.7811 -335.7503)">
			<stop  offset="0" style="stop-color:#CEDADE"/>
			<stop  offset="1" style="stop-color:#919191"/>
		</linearGradient>
		<path fill="url(#SVGID_1_)" d="M54.379,32.259c0.072-0.689,0.121-1.377,0.121-2.071c0-11.692-10.102-21.207-22.519-21.207
			c-12.417,0-22.52,9.515-22.52,21.207c0,0.693,0.05,1.382,0.121,2.071c-2.706,2.3-4.43,5.726-4.43,9.554
			c0,6.922,5.615,12.541,12.542,12.541V29.273c-1.087,0-2.134,0.152-3.138,0.412c0.29-8.66,7.993-15.621,17.424-15.621
			s17.133,6.961,17.424,15.621c-1.004-0.258-2.053-0.412-3.139-0.412v25.081c6.926,0,12.541-5.617,12.541-12.541
			C58.809,37.984,57.086,34.559,54.379,32.259L54.379,32.259z"/>
		<path fill="#F7981D" d="M37.178,30.607H26.974c-3.662,0-6.64,2.979-6.64,6.641v10.205c0,3.662,2.978,6.641,6.64,6.641h10.204
			c3.662,0,6.643-2.979,6.643-6.641V37.248C43.818,33.588,40.839,30.607,37.178,30.607z M26.067,50.891
			c-1.023,0-1.854-0.83-1.854-1.854c0-1.025,0.831-1.852,1.854-1.852c1.022,0,1.852,0.825,1.852,1.852
			C27.918,50.061,27.089,50.891,26.067,50.891z M33.521,51.223c-0.76,0-1.373-0.613-1.373-1.371c0-1.848-0.72-3.584-2.026-4.893
			c-1.308-1.307-3.046-2.027-4.894-2.027c0,0,0,0-0.002,0c-0.758,0-1.356-0.615-1.371-1.373c-0.019-1.139,1.117-1.348,1.373-1.369
			c0.256-0.022,0.287,0.002,0.429,0.009c2.419,0.104,4.678,1.098,6.401,2.823c1.824,1.824,2.83,4.25,2.83,6.83
			C34.889,50.609,34.275,51.223,33.521,51.223z M38.93,51.223c-0.759,0-1.373-0.613-1.373-1.371c0-3.293-1.283-6.387-3.611-8.717
			c-2.326-2.328-5.423-3.611-8.715-3.611c-0.76,0-1.372-0.612-1.372-1.371c0-0.756,0.612-1.37,1.372-1.37
			c4.026,0,7.81,1.567,10.651,4.413c2.85,2.847,4.416,6.632,4.416,10.658C40.297,50.609,39.686,51.223,38.93,51.223z"/>
	</g>
</g>
</svg>
