<?xml version="1.0" encoding="utf-8"?>
<!-- Generator: Adobe Illustrator 14.0.0, SVG Export Plug-In . SVG Version: 6.00 Build 43363)  -->
<!DOCTYPE svg PUBLIC "-//W3C//DTD SVG 1.1//EN" "http://www.w3.org/Graphics/SVG/1.1/DTD/svg11.dtd">
<svg version="1.1" id="delete" xmlns="http://www.w3.org/2000/svg" xmlns:xlink="http://www.w3.org/1999/xlink" x="0px" y="0px"
	 width="32px" height="32px" viewBox="0 0 32 32" enable-background="new 0 0 32 32" xml:space="preserve">
<g>
	<path fill="#F1F2F2" d="M13.868,3.132c-0.251-0.007-0.497-0.009-0.733-0.007l-0.012,0.026V3.125c-0.236-0.002-0.482,0-0.733,0.007
		C3.214,3.513,2.23,7.154,2.23,7.154S4.353,27.146,4.4,27.368c0.057,0.286,0.132,0.386,0.408,0.565
		c0.952,0.606,4.592,1.742,8.313,1.756h0.012c3.722-0.014,7.361-1.149,8.315-1.756c0.274-0.18,0.35-0.279,0.406-0.565
		c0.048-0.223,2.17-20.214,2.17-20.214S23.044,3.513,13.868,3.132z M13.134,9.121c0,0-0.005,0.035-0.012,0.09v-0.09
		C7.841,9.119,4.474,7.919,4.474,7.093c0-0.826,3.367-2.025,8.648-2.028V5.044l0.012,0.021c5.282,0.002,8.648,1.202,8.648,2.028
		C21.782,7.919,18.416,9.119,13.134,9.121z"/>
</g>
</svg>
