<?xml version="1.0" encoding="utf-8"?>
<!-- Generator: Adobe Illustrator 14.0.0, SVG Export Plug-In . SVG Version: 6.00 Build 43363)  -->
<!DOCTYPE svg PUBLIC "-//W3C//DTD SVG 1.1//EN" "http://www.w3.org/Graphics/SVG/1.1/DTD/svg11.dtd">
<svg version="1.1" id="download_x5F_all" xmlns="http://www.w3.org/2000/svg" xmlns:xlink="http://www.w3.org/1999/xlink" x="0px"
	 y="0px" width="32px" height="32px" viewBox="0 0 32 32" enable-background="new 0 0 32 32" xml:space="preserve">
<g>
	<path fill="#FDFFFF" d="M10.121,26.2l6.426-9.384c0,0,0.372-0.527-0.084-0.671c-0.343-0.11-2.535-0.118-3.371-0.113
		c-0.276,0.002-0.529-0.213-0.51-0.573c0.208-4.034,0.241-4.675,0.318-8.602c-0.006-0.352-0.141-0.561-0.377-0.549
		c-2.558,0.029-3.722,0.029-6.282,0c-0.235-0.01-0.369,0.199-0.378,0.55c0.076,3.927,0.111,4.567,0.314,8.604
		c0.024,0.359-0.227,0.572-0.506,0.57c-0.833-0.005-3.17,0.003-3.511,0.114c-0.46,0.144-0.085,0.67-0.085,0.67L8.494,26.2
		C8.926,26.824,9.591,26.881,10.121,26.2z"/>
</g>
<g>
	<path fill="#FDFFFF" d="M10.121,26.2l6.426-9.384c0,0,0.372-0.527-0.084-0.671c-0.343-0.11-2.535-0.118-3.371-0.113
		c-0.276,0.002-0.529-0.213-0.51-0.573c0.208-4.034,0.241-4.675,0.318-8.602c-0.006-0.352-0.141-0.561-0.377-0.549
		c-2.558,0.029-3.722,0.029-6.282,0c-0.235-0.01-0.369,0.199-0.378,0.55c0.076,3.927,0.111,4.567,0.314,8.604
		c0.024,0.359-0.227,0.572-0.506,0.57c-0.833-0.005-3.17,0.003-3.512,0.114c-0.459,0.144-0.084,0.67-0.084,0.67L8.494,26.2
		C8.926,26.824,9.591,26.881,10.121,26.2z"/>
</g>
<g>
	<circle fill="#FDFFFF" cx="21.156" cy="9.692" r="1.485"/>
	<circle fill="#FDFFFF" cx="21.156" cy="15.376" r="1.487"/>
	<circle fill="#FDFFFF" cx="21.156" cy="21.061" r="1.486"/>
</g>
</svg>
