<?xml version="1.0" encoding="utf-8"?>
<!-- Generator: Adobe Illustrator 14.0.0, SVG Export Plug-In . SVG Version: 6.00 Build 43363)  -->
<!DOCTYPE svg PUBLIC "-//W3C//DTD SVG 1.1//EN" "http://www.w3.org/Graphics/SVG/1.1/DTD/svg11.dtd">
<svg version="1.1" id="download" xmlns="http://www.w3.org/2000/svg" xmlns:xlink="http://www.w3.org/1999/xlink" x="0px" y="0px"
	 width="32px" height="32px" viewBox="0 0 32 32" enable-background="new 0 0 32 32" xml:space="preserve">
<path fill="#F1F2F2" d="M16.811,26.2l6.425-9.384c0,0,0.374-0.527-0.083-0.672c-0.344-0.109-2.535-0.118-3.371-0.113
	c-0.276,0.002-0.529-0.212-0.509-0.572c0.208-4.034,0.238-4.675,0.316-8.602c-0.007-0.352-0.139-0.561-0.377-0.549
	c-2.559,0.029-3.721,0.029-6.281,0c-0.236-0.01-0.37,0.199-0.379,0.55c0.076,3.927,0.111,4.567,0.316,8.603
	c0.023,0.36-0.229,0.572-0.507,0.57c-0.833-0.005-3.17,0.004-3.512,0.115c-0.458,0.143-0.083,0.67-0.083,0.67l6.418,9.384
	C15.616,26.823,16.28,26.88,16.811,26.2z"/>
</svg>
