<?xml version="1.0" encoding="utf-8"?>
<!-- Generator: Adobe Illustrator 14.0.0, SVG Export Plug-In . SVG Version: 6.00 Build 43363)  -->
<!DOCTYPE svg PUBLIC "-//W3C//DTD SVG 1.1//EN" "http://www.w3.org/Graphics/SVG/1.1/DTD/svg11.dtd">
<svg version="1.1" id="mark_x5F_new_x5F_all" xmlns="http://www.w3.org/2000/svg" xmlns:xlink="http://www.w3.org/1999/xlink"
	 x="0px" y="0px" width="32px" height="32px" viewBox="0 0 32 32" enable-background="new 0 0 32 32" xml:space="preserve">
<g>
	<g>
		<path fill="#F1F2F2" d="M24.07,12.057l-7.214-0.459L14.242,6.65h-0.005l-0.572-1.089c-0.402-0.759-0.975-0.748-1.334,0.035
			l-1.278,2.777l0,0l-1.579,3.426L3.118,12.9l-0.439,0.078c-0.847,0.146-0.987,0.642-0.357,1.225l0.594,0.548l4.472,4.127
			l-0.408,2.851l-0.557,3.858c-0.124,0.85,0.393,1.201,1.138,0.779l0.634-0.354l0.002,0.001l3.143-1.764l0.145-0.082l1.991-1.12
			l6.249,3.5c0.771,0.377,1.398-0.024,1.23-0.866l-1.628-7.13l5.262-5.135C25.187,12.801,24.922,12.158,24.07,12.057z"/>
	</g>
	<g>
		<circle fill="#F1F2F2" cx="28.431" cy="13.312" r="1.485"/>
		<circle fill="#F1F2F2" cx="28.431" cy="18.996" r="1.486"/>
		<circle fill="#F1F2F2" cx="28.431" cy="24.679" r="1.486"/>
	</g>
</g>
</svg>
