<?xml version="1.0" encoding="utf-8"?>
<!-- Generator: Adobe Illustrator 14.0.0, SVG Export Plug-In . SVG Version: 6.00 Build 43363)  -->
<!DOCTYPE svg PUBLIC "-//W3C//DTD SVG 1.1//EN" "http://www.w3.org/Graphics/SVG/1.1/DTD/svg11.dtd">
<svg version="1.1" id="mark_x5F_new" xmlns="http://www.w3.org/2000/svg" xmlns:xlink="http://www.w3.org/1999/xlink" x="0px"
	 y="0px" width="32px" height="32px" viewBox="0 0 32 32" enable-background="new 0 0 32 32" xml:space="preserve">
<g>
	<path fill="#F1F2F2" d="M24.07,12.059l-7.213-0.46l-2.617-4.948h-0.002l-0.574-1.087c-0.401-0.759-0.975-0.748-1.333,0.035
		l-1.28,2.775l0,0l-1.578,3.427l-6.355,1.101l-0.44,0.078c-0.845,0.146-0.985,0.642-0.356,1.226l0.593,0.548l4.473,4.126
		l-0.408,2.853L6.42,25.589c-0.123,0.85,0.393,1.2,1.139,0.779l0.633-0.355l0.004,0.003l3.143-1.766l0.145-0.08l1.992-1.121
		l6.248,3.499c0.771,0.378,1.398-0.024,1.23-0.866l-1.626-7.128l5.263-5.137C25.187,12.802,24.924,12.161,24.07,12.059z"/>
</g>
</svg>
