<?xml version="1.0" encoding="UTF-8" standalone="no"?>
<!-- Generator: Adobe Illustrator 14.0.0, SVG Export Plug-In . SVG Version: 6.00 Build 43363)  -->

<svg
   xmlns:dc="http://purl.org/dc/elements/1.1/"
   xmlns:cc="http://creativecommons.org/ns#"
   xmlns:rdf="http://www.w3.org/1999/02/22-rdf-syntax-ns#"
   xmlns:svg="http://www.w3.org/2000/svg"
   xmlns="http://www.w3.org/2000/svg"
   xmlns:sodipodi="http://sodipodi.sourceforge.net/DTD/sodipodi-0.dtd"
   xmlns:inkscape="http://www.inkscape.org/namespaces/inkscape"
   version="1.1"
   id="svg3426"
   inkscape:version="0.48.0 r9654"
   sodipodi:docname="tab_feeds.svg"
   x="0px"
   y="0px"
   width="32px"
   height="32px"
   viewBox="0 0 32 32"
   enable-background="new 0 0 32 32"
   xml:space="preserve"><metadata
   id="metadata3081"><rdf:RDF><cc:Work
       rdf:about=""><dc:format>image/svg+xml</dc:format><dc:type
         rdf:resource="http://purl.org/dc/dcmitype/StillImage" /><dc:title></dc:title></cc:Work></rdf:RDF></metadata><defs
   id="defs3079">
	
		<sodipodi:namedview
   inkscape:window-maximized="0"
   showgrid="false"
   inkscape:window-height="659"
   inkscape:window-width="885"
   inkscape:pageshadow="2"
   inkscape:window-x="300"
   inkscape:cy="16.00177"
   inkscape:cx="16.00177"
   objecttolerance="10"
   inkscape:window-y="0"
   borderopacity="1"
   inkscape:pageopacity="0"
   inkscape:current-layer="svg3426"
   gridtolerance="10"
   inkscape:zoom="10.44997"
   guidetolerance="10"
   pagecolor="#ffffff"
   bordercolor="#666666"
   id="namedview3470">
		</sodipodi:namedview>
	<defs
   id="defs3065">
		
		
			<inkscape:perspective
   inkscape:persp3d-origin="16 : 10.666667 : 1"
   inkscape:vp_z="32 : 16 : 1"
   inkscape:vp_y="0 : 1000 : 0"
   inkscape:vp_x="0 : 16 : 1"
   sodipodi:type="inkscape:persp3d"
   id="perspective3474">
			</inkscape:perspective>
		
			<inkscape:perspective
   inkscape:persp3d-origin="0.5 : 0.33333333 : 1"
   inkscape:vp_z="1 : 0.5 : 1"
   inkscape:vp_y="0 : 1000 : 0"
   inkscape:vp_x="0 : 0.5 : 1"
   sodipodi:type="inkscape:persp3d"
   id="perspective3984">
			</inkscape:perspective>
	</defs>
	
	
	
	
</defs><sodipodi:namedview
   pagecolor="#ffffff"
   bordercolor="#666666"
   borderopacity="1"
   objecttolerance="10"
   gridtolerance="10"
   guidetolerance="10"
   inkscape:pageopacity="0"
   inkscape:pageshadow="2"
   inkscape:window-width="640"
   inkscape:window-height="480"
   id="namedview3077"
   showgrid="false"
   inkscape:zoom="8.0625"
   inkscape:cx="16"
   inkscape:cy="16"
   inkscape:window-x="320"
   inkscape:window-y="55"
   inkscape:window-maximized="0"
   inkscape:current-layer="svg3426" />
<path
   style="fill:#f1f2f2"
   inkscape:connector-curvature="0"
   id="path3069"
   d="m 27.617745,30.062876 0,0 c -1.278173,0 -2.319474,-1.037783 -2.319474,-2.318301 0,-5.567675 -2.169376,-10.803494 -6.10826,-14.741205 C 15.254645,9.0656586 10.018826,6.8951096 4.448806,6.8951096 c -1.282864,0 -2.319474,-1.0366101 -2.319474,-2.3171284 0,-1.2781731 1.03661,-2.3171285 2.319474,-2.3171285 6.808323,0 13.20857,2.6513297 18.016377,7.4638273 4.816015,4.812497 7.466172,11.212744 7.463827,18.018722 0.0047,1.281691 -1.030747,2.319474 -2.311265,2.319474 l 0,0 z" /><path
   style="fill:#f1f2f2"
   inkscape:connector-curvature="0"
   id="path3071"
   d="m 18.470012,30.062876 c -1.281691,0 -2.319473,-1.037783 -2.319473,-2.318301 0,-3.123902 -1.217196,-6.064873 -3.427615,-8.275291 -2.210418,-2.210419 -5.150216,-3.428787 -8.275291,-3.428787 -0.0012,0 -0.0012,0 -0.0023,0 -1.282859,0 -2.319469,-1.040128 -2.319469,-2.319474 0,-1.280518 1.03661,-2.318301 2.319474,-2.318301 0,0 0,0 0.0023,0 4.36455,0 8.465258,1.699149 11.550463,4.787872 3.086378,3.085205 4.7867,7.187085 4.7867,11.551636 0.0035,1.282863 -1.035438,2.320646 -2.314784,2.320646 l 0,0 z" /><circle
   style="fill:#f1f2f2"
   sodipodi:ry="2.6719999"
   sodipodi:rx="2.6719999"
   sodipodi:cy="27.408001"
   sodipodi:cx="6.0580001"
   id="circle3073"
   r="2.6719999"
   cy="27.408001"
   cx="6.0580001"
   transform="matrix(1.1726358,0,0,1.1726358,-1.239651,-5.7717028)" />
</svg>