<?xml version="1.0" encoding="utf-8"?>
<!-- Generator: Adobe Illustrator 14.0.0, SVG Export Plug-In . SVG Version: 6.00 Build 43363)  -->
<!DOCTYPE svg PUBLIC "-//W3C//DTD SVG 1.1//EN" "http://www.w3.org/Graphics/SVG/1.1/DTD/svg11.dtd">
<svg version="1.1" id="update_x5F_cancel" xmlns="http://www.w3.org/2000/svg" xmlns:xlink="http://www.w3.org/1999/xlink" x="0px"
	 y="0px" width="32px" height="32px" viewBox="0 0 32 32" enable-background="new 0 0 32 32" xml:space="preserve">
<g>
	<g>
		<g>
			<path fill="#F1F2F2" d="M7.42,30.398c-0.974-0.65-1.094-2.177-0.271-3.409L23.025,3.256c0.82-1.233,2.28-1.703,3.251-1.055
				c0.97,0.652,1.091,2.177,0.268,3.407L10.673,29.343C9.848,30.576,8.392,31.047,7.42,30.398L7.42,30.398z"/>
		</g>
	</g>
	<g>
		<path fill="#F1F2F2" d="M26.561,24.783c1.864-2.326,3-5.263,3-8.479c0-2.954-0.951-5.68-2.549-7.91l-2.373,3.548
			c0.663,1.314,1.044,2.792,1.044,4.362c0,2.261-0.781,4.336-2.075,5.988c-1.463-1.229-2.641-2.214-2.682-2.232
			c-0.283-0.14-0.499-0.05-0.601,0.019c-0.286,0.178-0.314,0.532-0.314,0.642l0.009,7.512c0,0.086,0.003,0.169,0.017,0.251
			c0.104,0.642,0.66,1.021,1.366,0.926l7.418-1.259c0.409-0.077,0.669-0.382,0.612-0.73c-0.019-0.099-0.055-0.192-0.12-0.285
			C29.286,27.098,28.062,26.057,26.561,24.783z"/>
		<path fill="#F1F2F2" d="M8.125,22.043C6.934,20.435,6.21,18.46,6.21,16.305c0-5.37,4.367-9.738,9.736-9.738
			c0.807,0,1.585,0.11,2.335,0.296l2.25-3.364c-1.435-0.514-2.974-0.808-4.585-0.808c-7.518,0-13.613,6.094-13.613,13.614
			c0,3.515,1.344,6.706,3.54,9.107L8.125,22.043z"/>
	</g>
</g>
</svg>
