<?xml version="1.0" encoding="utf-8"?>
<!-- Generator: Adobe Illustrator 14.0.0, SVG Export Plug-In . SVG Version: 6.00 Build 43363)  -->
<!DOCTYPE svg PUBLIC "-//W3C//DTD SVG 1.1//EN" "http://www.w3.org/Graphics/SVG/1.1/DTD/svg11.dtd">
<svg version="1.1" id="update_x5F_all" xmlns="http://www.w3.org/2000/svg" xmlns:xlink="http://www.w3.org/1999/xlink" x="0px"
	 y="0px" width="32px" height="32px" viewBox="0 0 32 32" enable-background="new 0 0 32 32" xml:space="preserve">
<g>
	<path fill="#F1F2F2" d="M26.579,24.782c1.867-2.327,3-5.264,3-8.48c0-7.518-6.093-13.613-13.612-13.613
		c-7.519,0-13.613,6.096-13.613,13.613c0,4.384,2.065,8.288,5.303,10.749c0.518,0.394,2.709,1.628,3.687,1.909
		c0.601,0.184,0.895-0.152,1.015-0.37c0.053-0.093,0.102-0.406,0.102-0.406l0.235-2.023c0,0,0.045-0.338-0.084-0.582
		c-0.109-0.209-0.386-0.325-0.499-0.367c-0.234-0.08-0.201-0.097-0.414-0.177c-3.23-1.587-5.469-4.896-5.469-8.732
		c0-5.369,4.368-9.736,9.737-9.736c5.369,0,9.737,4.367,9.737,9.736c0,2.261-0.781,4.336-2.078,5.99
		c-1.46-1.229-2.639-2.215-2.679-2.232c-0.283-0.14-0.499-0.05-0.601,0.018c-0.286,0.178-0.314,0.532-0.314,0.643l0.009,7.512
		c-0.002,0.085,0.003,0.169,0.017,0.25c0.102,0.643,0.66,1.022,1.365,0.926l7.418-1.259c0.41-0.076,0.668-0.381,0.611-0.731
		c-0.02-0.097-0.053-0.191-0.119-0.284C29.308,27.096,28.084,26.054,26.579,24.782z"/>
	<g>
		<circle fill="#F1F2F2" cx="15.967" cy="10.903" r="1.485"/>
		<circle fill="#F1F2F2" cx="15.967" cy="16.585" r="1.486"/>
		<circle fill="#F1F2F2" cx="15.967" cy="22.27" r="1.487"/>
	</g>
</g>
</svg>
