<?xml version="1.0" encoding="utf-8"?>
<!-- Generator: Adobe Illustrator 14.0.0, SVG Export Plug-In . SVG Version: 6.00 Build 43363)  -->
<!DOCTYPE svg PUBLIC "-//W3C//DTD SVG 1.1//EN" "http://www.w3.org/Graphics/SVG/1.1/DTD/svg11.dtd">
<svg version="1.1" id="update_x5F_cancel" xmlns="http://www.w3.org/2000/svg" xmlns:xlink="http://www.w3.org/1999/xlink" x="0px"
	 y="0px" width="32px" height="32px" viewBox="0 0 32 32" enable-background="new 0 0 32 32" xml:space="preserve">
<g>
	<g>
		<g>
			<path fill="#FDFFFF" d="M7.42,30.398c-0.974-0.65-1.094-2.178-0.271-3.409L23.025,3.256c0.82-1.233,2.279-1.703,3.25-1.055
				c0.971,0.652,1.092,2.177,0.269,3.407L10.673,29.343C9.848,30.576,8.392,31.047,7.42,30.398L7.42,30.398z"/>
		</g>
	</g>
	<g>
		<path fill="#FDFFFF" d="M26.561,24.783c1.864-2.326,3-5.264,3-8.479c0-2.954-0.951-5.68-2.549-7.91l-2.373,3.548
			c0.663,1.314,1.045,2.792,1.045,4.362c0,2.26-0.781,4.336-2.076,5.988c-1.463-1.229-2.641-2.214-2.682-2.231
			c-0.283-0.141-0.499-0.051-0.601,0.019c-0.286,0.178-0.313,0.532-0.313,0.642l0.008,7.512c0,0.086,0.004,0.17,0.018,0.252
			c0.104,0.642,0.66,1.021,1.365,0.926l7.418-1.26c0.41-0.076,0.67-0.381,0.613-0.729c-0.02-0.099-0.056-0.192-0.121-0.285
			C29.286,27.098,28.062,26.057,26.561,24.783z"/>
		<path fill="#FDFFFF" d="M8.125,22.043C6.934,20.436,6.21,18.46,6.21,16.305c0-5.37,4.367-9.738,9.736-9.738
			c0.807,0,1.585,0.11,2.335,0.296l2.25-3.364c-1.436-0.514-2.975-0.808-4.585-0.808c-7.518,0-13.613,6.094-13.613,13.614
			c0,3.515,1.344,6.706,3.54,9.107L8.125,22.043z"/>
	</g>
</g>
</svg>
