<?xml version="1.0" encoding="utf-8"?>
<!-- Generator: Adobe Illustrator 14.0.0, SVG Export Plug-In . SVG Version: 6.00 Build 43363)  -->
<!DOCTYPE svg PUBLIC "-//W3C//DTD SVG 1.1//EN" "http://www.w3.org/Graphics/SVG/1.1/DTD/svg11.dtd">
<svg version="1.1"
	 id="svg3426" xmlns:dc="http://purl.org/dc/elements/1.1/" xmlns:inkscape="http://www.inkscape.org/namespaces/inkscape" sodipodi:docname="Audio_downloading.svg" xmlns:sodipodi="http://sodipodi.sourceforge.net/DTD/sodipodi-0.dtd" xmlns:cc="http://creativecommons.org/ns#" xmlns:rdf="http://www.w3.org/1999/02/22-rdf-syntax-ns#" xmlns:svg="http://www.w3.org/2000/svg" inkscape:version="0.47 r22583"
	 xmlns="http://www.w3.org/2000/svg" xmlns:xlink="http://www.w3.org/1999/xlink" x="0px" y="0px" width="32px" height="32px"
	 viewBox="0 0 32 32" enable-background="new 0 0 32 32" xml:space="preserve">
<g>
	
		<sodipodi:namedview  inkscape:current-layer="svg3426" inkscape:window-y="0" inkscape:window-x="300" inkscape:cy="16.00177" inkscape:cx="16.00177" inkscape:zoom="10.44997" showgrid="false" inkscape:window-height="659" inkscape:window-width="885" inkscape:pageshadow="2" inkscape:pageopacity="0" gridtolerance="10" objecttolerance="10" borderopacity="1" guidetolerance="10" pagecolor="#ffffff" bordercolor="#666666" inkscape:window-maximized="0" id="namedview3470">
		</sodipodi:namedview>
	<defs>
		
		
			<inkscape:perspective  inkscape:persp3d-origin="16 : 10.666667 : 1" inkscape:vp_z="32 : 16 : 1" inkscape:vp_y="0 : 1000 : 0" inkscape:vp_x="0 : 16 : 1" sodipodi:type="inkscape:persp3d" id="perspective3474">
			</inkscape:perspective>
		
			<inkscape:perspective  inkscape:persp3d-origin="0.5 : 0.33333333 : 1" inkscape:vp_z="1 : 0.5 : 1" inkscape:vp_y="0 : 1000 : 0" inkscape:vp_x="0 : 0.5 : 1" sodipodi:type="inkscape:persp3d" id="perspective3984">
			</inkscape:perspective>
	</defs>
	<path fill="#474748" d="M24.609,30.559L24.609,30.559c-1.09,0-1.975-0.885-1.975-1.977c0-4.748-1.85-9.213-5.209-12.571
		s-7.824-5.209-12.574-5.209c-1.091,0-1.975-0.884-1.975-1.976c0-1.09,0.884-1.976,1.975-1.976c5.806,0,11.264,2.261,15.367,6.365
		c4.107,4.104,6.367,9.562,6.365,15.366C26.584,29.674,25.701,30.559,24.609,30.559L24.609,30.559z"/>
	<path fill="#474748" d="M16.808,30.559c-1.09,0-1.975-0.885-1.975-1.977c0-2.664-1.038-5.172-2.923-7.057s-4.392-2.924-7.057-2.924
		c-0.001,0-0.001,0-0.002,0c-1.091,0-1.975-0.884-1.975-1.975c0-1.092,0.884-1.977,1.975-1.977c0,0,0,0,0.002,0
		c3.722,0,7.219,1.449,9.85,4.081c2.632,2.632,4.082,6.13,4.082,9.851C18.785,29.674,17.899,30.559,16.808,30.559L16.808,30.559z"/>
	<circle fill="#474748" cx="6.058" cy="27.408" r="2.672"/>
	<path fill="#474748" d="M28.041,4.662h-2.14V2.521c0-0.672-0.547-1.079-1.221-1.079c-0.672,0-1.217,0.407-1.217,1.079v2.142h-2.139
		c-0.675,0-1.082,0.545-1.082,1.218c0,0.674,0.407,1.22,1.082,1.22h2.139v2.139c0,0.674,0.545,1.082,1.217,1.082
		c0.674,0,1.221-0.408,1.221-1.082V7.1h2.14c0.672,0,1.082-0.546,1.082-1.22C29.123,5.207,28.713,4.662,28.041,4.662z"/>
</g>
</svg>
