<?xml version="1.0" encoding="utf-8"?>
<!-- Generator: Adobe Illustrator 14.0.0, SVG Export Plug-In . SVG Version: 6.00 Build 43363)  -->
<!DOCTYPE svg PUBLIC "-//W3C//DTD SVG 1.1//EN" "http://www.w3.org/Graphics/SVG/1.1/DTD/svg11.dtd">
<svg version="1.1"
	 id="svg3426" xmlns:dc="http://purl.org/dc/elements/1.1/" xmlns:inkscape="http://www.inkscape.org/namespaces/inkscape" sodipodi:docname="Audio_downloading.svg" xmlns:sodipodi="http://sodipodi.sourceforge.net/DTD/sodipodi-0.dtd" xmlns:cc="http://creativecommons.org/ns#" xmlns:rdf="http://www.w3.org/1999/02/22-rdf-syntax-ns#" xmlns:svg="http://www.w3.org/2000/svg" inkscape:version="0.47 r22583"
	 xmlns="http://www.w3.org/2000/svg" xmlns:xlink="http://www.w3.org/1999/xlink" x="0px" y="0px" width="32px" height="32px"
	 viewBox="0 0 32 32" enable-background="new 0 0 32 32" xml:space="preserve">
<g>
	<path fill="#474748" d="M8.084,27.637C7.281,27.1,7.181,25.84,7.861,24.822L20.965,5.234c0.678-1.018,1.882-1.406,2.683-0.871
		c0.802,0.538,0.902,1.796,0.221,2.813l-13.1,19.589C10.088,27.783,8.886,28.172,8.084,27.637L8.084,27.637z"/>
	<g>
		<path fill="#474748" d="M8.891,20.043c-0.175-0.297-0.335-0.605-0.469-0.928c-1.566-3.84,0.282-8.236,4.12-9.802
			c1.264-0.515,2.584-0.654,3.847-0.481L18.615,5.5c-2.377-0.716-5.009-0.657-7.484,0.354c-5.745,2.345-8.512,8.925-6.169,14.671
			c0.436,1.068,1.003,2.029,1.683,2.875L8.891,20.043z"/>
		<path fill="#474748" d="M27.865,23.859c-0.013-0.09-0.051-0.178-0.109-0.266c-0.062-0.09-1.097-1.004-2.393-2.127
			c1.518-2.918,1.698-6.364,0.439-9.445c-0.362-0.889-0.826-1.705-1.371-2.442l-2.292,3.423c0.069,0.143,0.143,0.283,0.205,0.431
			c0.726,1.778,0.732,3.736,0.069,5.494c-1.301-1.109-2.355-1.99-2.453-2.037c-0.268-0.131-0.468-0.051-0.564,0.012
			c-0.271,0.164-0.297,0.496-0.304,0.6l-0.056,7.037c-0.003,0.082,0.002,0.16,0.012,0.234c0.094,0.605,0.61,0.967,1.271,0.881
			l6.965-1.115C27.669,24.473,27.914,24.188,27.865,23.859z"/>
	</g>
</g>
</svg>
