<?xml version="1.0" encoding="utf-8"?>
<!-- Generator: Adobe Illustrator 14.0.0, SVG Export Plug-In . SVG Version: 6.00 Build 43363)  -->
<!DOCTYPE svg PUBLIC "-//W3C//DTD SVG 1.1//EN" "http://www.w3.org/Graphics/SVG/1.1/DTD/svg11.dtd">
<svg version="1.1"
	 id="svg3426" xmlns:dc="http://purl.org/dc/elements/1.1/" xmlns:inkscape="http://www.inkscape.org/namespaces/inkscape" sodipodi:docname="Audio_downloading.svg" xmlns:sodipodi="http://sodipodi.sourceforge.net/DTD/sodipodi-0.dtd" xmlns:cc="http://creativecommons.org/ns#" xmlns:rdf="http://www.w3.org/1999/02/22-rdf-syntax-ns#" xmlns:svg="http://www.w3.org/2000/svg" inkscape:version="0.47 r22583"
	 xmlns="http://www.w3.org/2000/svg" xmlns:xlink="http://www.w3.org/1999/xlink" x="0px" y="0px" width="32px" height="32px"
	 viewBox="0 0 32 32" enable-background="new 0 0 32 32" xml:space="preserve">
<g>
	<path fill="#474748" d="M16,4.985C7.811,5.158,6.952,8.342,6.952,8.342l2.755,17.215c0,0,2.801,1.465,6.369,1.465
		c3.572,0,6.296-1.465,6.296-1.465l2.674-17.215C25.047,8.342,24.189,5.158,16,4.985z M16,9.973c-4.389,0-7.188-0.996-7.188-1.682
		c0-0.686,2.8-1.682,7.188-1.682c4.388,0,7.187,0.996,7.187,1.682C23.187,8.977,20.388,9.973,16,9.973z"/>
	<path fill="#474748" d="M15.574,4.978c0.146,0,0.284,0.005,0.426,0.008c0.141-0.003,0.278-0.007,0.423-0.008H15.574z"/>
</g>
</svg>
