<?xml version="1.0" encoding="utf-8"?>
<!-- Generator: Adobe Illustrator 14.0.0, SVG Export Plug-In . SVG Version: 6.00 Build 43363)  -->
<!DOCTYPE svg PUBLIC "-//W3C//DTD SVG 1.1//EN" "http://www.w3.org/Graphics/SVG/1.1/DTD/svg11.dtd">
<svg version="1.1"
	 id="svg3426" xmlns:dc="http://purl.org/dc/elements/1.1/" xmlns:inkscape="http://www.inkscape.org/namespaces/inkscape" sodipodi:docname="Audio_downloading.svg" xmlns:sodipodi="http://sodipodi.sourceforge.net/DTD/sodipodi-0.dtd" xmlns:cc="http://creativecommons.org/ns#" xmlns:rdf="http://www.w3.org/1999/02/22-rdf-syntax-ns#" xmlns:svg="http://www.w3.org/2000/svg" inkscape:version="0.47 r22583"
	 xmlns="http://www.w3.org/2000/svg" xmlns:xlink="http://www.w3.org/1999/xlink" x="0px" y="0px" width="32px" height="32px"
	 viewBox="0 0 32 32" enable-background="new 0 0 32 32" xml:space="preserve">
<sodipodi:namedview  inkscape:current-layer="svg3426" inkscape:window-y="0" inkscape:window-x="300" inkscape:cy="16.00177" inkscape:cx="16.00177" inkscape:zoom="10.44997" showgrid="false" inkscape:window-height="659" inkscape:window-width="885" inkscape:pageshadow="2" inkscape:pageopacity="0" gridtolerance="10" objecttolerance="10" borderopacity="1" guidetolerance="10" pagecolor="#ffffff" bordercolor="#666666" inkscape:window-maximized="0" id="namedview3470">
	</sodipodi:namedview>
<defs>
	
	
		<inkscape:perspective  inkscape:persp3d-origin="16 : 10.666667 : 1" inkscape:vp_z="32 : 16 : 1" inkscape:vp_y="0 : 1000 : 0" inkscape:vp_x="0 : 16 : 1" sodipodi:type="inkscape:persp3d" id="perspective3474">
		</inkscape:perspective>
	
		<inkscape:perspective  inkscape:persp3d-origin="0.5 : 0.33333333 : 1" inkscape:vp_z="1 : 0.5 : 1" inkscape:vp_y="0 : 1000 : 0" inkscape:vp_x="0 : 0.5 : 1" sodipodi:type="inkscape:persp3d" id="perspective3984">
		</inkscape:perspective>
</defs>
<g>
	<g>
		<path fill="#484748" d="M21.015,20.438c-0.993,0-1.801-0.806-1.801-1.8v-8.497c0-0.993,0.808-1.8,1.801-1.8
			c0.998,0,1.804,0.807,1.804,1.8v8.497C22.818,19.633,22.013,20.438,21.015,20.438L21.015,20.438z"/>
		<path fill="#484748" d="M26.848,20.438c-0.993,0-1.802-0.806-1.802-1.8v-8.497c0-0.993,0.809-1.8,1.802-1.8
			c0.994,0,1.801,0.807,1.801,1.8v8.497C28.648,19.633,27.841,20.438,26.848,20.438L26.848,20.438z"/>
	</g>
	<path fill="#484748" d="M10.07,25.9l5.71-8.346c0,0,0.331-0.47-0.074-0.597c-0.306-0.096-2.254-0.104-2.998-0.101
		c-0.247,0.002-0.47-0.187-0.453-0.508c0.184-3.587,0.213-4.156,0.28-7.648c-0.004-0.313-0.123-0.499-0.332-0.486
		c-2.277,0.024-3.438,0.024-5.717,0C6.28,8.201,6.161,8.386,6.151,8.7c0.068,3.492,0.103,4.061,0.284,7.648
		c0.018,0.321-0.208,0.51-0.453,0.508c-0.743-0.003-2.692,0.005-2.997,0.101c-0.404,0.127-0.073,0.597-0.073,0.597l5.71,8.346
		C9.009,26.454,9.6,26.508,10.07,25.9z"/>
</g>
</svg>
