<?xml version="1.0" encoding="utf-8"?>
<!-- Generator: Adobe Illustrator 14.0.0, SVG Export Plug-In . SVG Version: 6.00 Build 43363)  -->
<!DOCTYPE svg PUBLIC "-//W3C//DTD SVG 1.1//EN" "http://www.w3.org/Graphics/SVG/1.1/DTD/svg11.dtd">
<svg version="1.1"
	 id="svg3426" xmlns:dc="http://purl.org/dc/elements/1.1/" xmlns:svg="http://www.w3.org/2000/svg" inkscape:version="0.47 r22583" xmlns:rdf="http://www.w3.org/1999/02/22-rdf-syntax-ns#" xmlns:inkscape="http://www.inkscape.org/namespaces/inkscape" xmlns:sodipodi="http://sodipodi.sourceforge.net/DTD/sodipodi-0.dtd" xmlns:cc="http://creativecommons.org/ns#" sodipodi:docname="Audio_downloading.svg"
	 xmlns="http://www.w3.org/2000/svg" xmlns:xlink="http://www.w3.org/1999/xlink" x="0px" y="0px" width="32px" height="32px"
	 viewBox="0 0 32 32" enable-background="new 0 0 32 32" xml:space="preserve">
<path fill="#F1F2F2" d="M26.776,12.168l-7.302-0.466L16.83,6.695h-0.004l-0.58-1.1c-0.406-0.769-0.987-0.757-1.35,0.034l-1.295,2.81
	l0,0l-1.598,3.468L5.572,13.02l-0.446,0.078c-0.854,0.149-0.997,0.65-0.359,1.24l0.601,0.555l4.527,4.175L9.48,21.955l-0.565,3.904
	c-0.125,0.858,0.397,1.216,1.153,0.789l0.641-0.359l0.002,0.002l3.184-1.786l0.146-0.083l2.018-1.132l6.32,3.54
	c0.779,0.383,1.414-0.023,1.244-0.876l-1.646-7.215l5.324-5.197C27.906,12.919,27.639,12.271,26.776,12.168z M19.424,20.883
	c-0.393,0.393-0.926,0.441-1.273,0.094l-2.146-2.103l-2.109,2.103c-0.349,0.35-0.886,0.299-1.275-0.093
	c-0.34-0.34-0.499-0.866-0.091-1.274l2.101-2.109l-2.142-2.101c-0.41-0.408-0.251-0.935,0.091-1.274
	c0.39-0.392,0.926-0.44,1.276-0.092l2.143,2.101l2.114-2.101c0.349-0.348,0.883-0.298,1.271,0.091
	c0.342,0.339,0.499,0.867,0.095,1.274l-2.103,2.111l2.144,2.103C19.924,20.018,19.764,20.543,19.424,20.883z"/>
</svg>
