<?xml version="1.0" encoding="UTF-8" standalone="no"?>
<!-- Created with Inkscape (http://www.inkscape.org/) -->

<svg
   xmlns:dc="http://purl.org/dc/elements/1.1/"
   xmlns:cc="http://creativecommons.org/ns#"
   xmlns:rdf="http://www.w3.org/1999/02/22-rdf-syntax-ns#"
   xmlns:svg="http://www.w3.org/2000/svg"
   xmlns="http://www.w3.org/2000/svg"
   version="1.1"
   width="32"
   height="32"
   viewBox="0 0 32 32"
   id="svg3426"
   xml:space="preserve"><metadata
   id="metadata3064"><rdf:RDF><cc:Work
       rdf:about=""><dc:format>image/svg+xml</dc:format><dc:type
         rdf:resource="http://purl.org/dc/dcmitype/StillImage" /><dc:title></dc:title></cc:Work></rdf:RDF></metadata><defs
   id="defs3062" />
<path
   d="m 22.625268,12.226679 -6.60105,-0.421267 -2.390191,-4.5263567 h -0.0036 L 13.106088,6.284649 C 12.739061,5.5894686 12.213834,5.6003167 11.88568,6.3153852 l -1.170687,2.5402558 0,0 -1.4446015,3.135092 -5.8136608,1.006158 -0.4031865,0.07051 c -0.7720209,0.134697 -0.9012937,0.587604 -0.3245381,1.120967 l 0.5433074,0.501723 4.0924339,3.774224 -0.3751623,2.609865 -0.5107633,3.529238 c -0.1130007,0.775637 0.3588903,1.099271 1.0423186,0.71326 l 0.5794677,-0.324538 0.00181,0.0018 2.8783539,-1.614554 0.131985,-0.07503 1.824284,-1.023335 5.713316,3.20018 c 0.70422,0.346235 1.278264,-0.02079 1.124583,-0.791909 l -1.487993,-6.522401 4.812926,-4.698118 c 0.546923,-0.563195 0.305554,-1.148991 -0.474603,-1.242103 z m -6.64625,7.878409 c -0.355274,0.355275 -0.837109,0.398667 -1.150799,0.08498 l -1.939997,-1.901124 -1.906548,1.901124 C 10.666176,20.506467 10.180725,20.460363 9.829067,20.105992 9.5217051,19.798631 9.3779682,19.323124 9.7468025,18.954289 L 11.646119,17.047741 9.7097383,15.148425 c -0.3706424,-0.368834 -0.2269055,-0.845245 0.082265,-1.151703 0.3525617,-0.35437 0.8371097,-0.397763 1.1535117,-0.08317 l 1.937284,1.899316 1.911068,-1.899316 c 0.315498,-0.314594 0.798237,-0.269393 1.148992,0.08227 0.30917,0.306458 0.451098,0.783773 0.08588,1.151703 l -1.901123,1.908356 1.938187,1.901124 c 0.365219,0.366123 0.220578,0.840726 -0.08678,1.148087 z"
   id="path3058"
   style="fill:#f1f2f2" />
<g
   transform="matrix(1.6922196,0,0,1.6922196,0.65580907,-12.542473)"
   id="g3095"><circle
     cx="15.433"
     cy="12.156"
     r="1.226"
     id="circle3097"
     style="fill:#f1f2f2" /><circle
     cx="15.433"
     cy="16.646"
     r="1.226"
     id="circle3099"
     style="fill:#f1f2f2" /><circle
     cx="15.433"
     cy="21.136999"
     r="1.227"
     id="circle3101"
     style="fill:#f1f2f2" /></g></svg>