<?xml version="1.0" encoding="utf-8"?>
<!-- Generator: Adobe Illustrator 14.0.0, SVG Export Plug-In . SVG Version: 6.00 Build 43363)  -->
<!DOCTYPE svg PUBLIC "-//W3C//DTD SVG 1.1//EN" "http://www.w3.org/Graphics/SVG/1.1/DTD/svg11.dtd">
<svg version="1.1"
	 id="svg3426" xmlns:dc="http://purl.org/dc/elements/1.1/" xmlns:inkscape="http://www.inkscape.org/namespaces/inkscape" sodipodi:docname="Audio_downloading.svg" xmlns:sodipodi="http://sodipodi.sourceforge.net/DTD/sodipodi-0.dtd" xmlns:cc="http://creativecommons.org/ns#" xmlns:rdf="http://www.w3.org/1999/02/22-rdf-syntax-ns#" xmlns:svg="http://www.w3.org/2000/svg" inkscape:version="0.47 r22583"
	 xmlns="http://www.w3.org/2000/svg" xmlns:xlink="http://www.w3.org/1999/xlink" x="0px" y="0px" width="32px" height="32px"
	 viewBox="0 0 32 32" enable-background="new 0 0 32 32" xml:space="preserve">
<path fill="#484748" d="M19.475,11.701l-2.643-5.007c0,0-0.004,0-0.004-0.001l-0.58-1.1c-0.406-0.768-0.987-0.756-1.35,0.035
	l-1.295,2.81l0,0l-1.595,3.469l-6.433,1.115l0,0L5.13,13.098c-0.856,0.149-0.997,0.65-0.361,1.24l0.601,0.554l0,0l4.527,4.177
	l-0.414,2.887l-0.566,3.903c-0.124,0.859,0.397,1.216,1.154,0.791l0.64-0.36h0.002l3.181-1.784l0.146-0.082l0,0l2.016-1.132
	l6.319,3.537c0.781,0.384,1.415-0.021,1.244-0.873l-1.646-7.218l5.327-5.193c0.602-0.624,0.335-1.27-0.525-1.373L19.475,11.701z"/>
</svg>
