<?xml version="1.0" encoding="utf-8"?>
<!-- Generator: Adobe Illustrator 14.0.0, SVG Export Plug-In . SVG Version: 6.00 Build 43363)  -->
<!DOCTYPE svg PUBLIC "-//W3C//DTD SVG 1.1//EN" "http://www.w3.org/Graphics/SVG/1.1/DTD/svg11.dtd">
<svg version="1.1"
	 id="svg3426" xmlns:dc="http://purl.org/dc/elements/1.1/" xmlns:inkscape="http://www.inkscape.org/namespaces/inkscape" sodipodi:docname="Audio_downloading.svg" xmlns:sodipodi="http://sodipodi.sourceforge.net/DTD/sodipodi-0.dtd" xmlns:cc="http://creativecommons.org/ns#" xmlns:rdf="http://www.w3.org/1999/02/22-rdf-syntax-ns#" xmlns:svg="http://www.w3.org/2000/svg" inkscape:version="0.47 r22583"
	 xmlns="http://www.w3.org/2000/svg" xmlns:xlink="http://www.w3.org/1999/xlink" x="0px" y="0px" width="32px" height="32px"
	 viewBox="0 0 32 32" enable-background="new 0 0 32 32" xml:space="preserve">
<path fill="#474748" d="M27.865,23.861c-0.013-0.092-0.049-0.18-0.11-0.268c-0.06-0.09-1.093-1.004-2.389-2.127
	c1.517-2.916,1.696-6.363,0.439-9.444c-2.344-5.746-8.927-8.514-14.672-6.168c-5.747,2.345-8.515,8.926-6.17,14.671
	c1.305,3.195,3.742,5.453,7.042,6.406c0.821,0.25,1.047-0.51,1.047-0.51l0.487-2.117c0,0,0.042-0.324-0.081-0.557
	c-0.105-0.201-0.369-0.314-0.475-0.352c-2.059-0.697-3.732-2.254-4.56-4.281c-1.567-3.839,0.281-8.236,4.121-9.801
	c3.838-1.566,8.235,0.282,9.802,4.121c0.726,1.778,0.735,3.737,0.068,5.495c-1.3-1.109-2.354-1.992-2.452-2.039
	c-0.267-0.131-0.467-0.049-0.563,0.012c-0.271,0.164-0.297,0.496-0.303,0.6l-0.057,7.039c-0.003,0.08,0.001,0.158,0.013,0.234
	c0.091,0.604,0.608,0.965,1.271,0.879l6.964-1.113C27.671,24.473,27.915,24.189,27.865,23.861z"/>
</svg>
