<?xml version="1.0" encoding="utf-8"?>
<!-- Generator: Adobe Illustrator 14.0.0, SVG Export Plug-In . SVG Version: 6.00 Build 43363)  -->
<!DOCTYPE svg PUBLIC "-//W3C//DTD SVG 1.1//EN" "http://www.w3.org/Graphics/SVG/1.1/DTD/svg11.dtd">
<svg version="1.1"
	 id="svg3426" xmlns:dc="http://purl.org/dc/elements/1.1/" xmlns:svg="http://www.w3.org/2000/svg" inkscape:version="0.47 r22583" xmlns:rdf="http://www.w3.org/1999/02/22-rdf-syntax-ns#" xmlns:inkscape="http://www.inkscape.org/namespaces/inkscape" xmlns:sodipodi="http://sodipodi.sourceforge.net/DTD/sodipodi-0.dtd" xmlns:cc="http://creativecommons.org/ns#" sodipodi:docname="Audio_downloading.svg"
	 xmlns="http://www.w3.org/2000/svg" xmlns:xlink="http://www.w3.org/1999/xlink" x="0px" y="0px" width="32px" height="32px"
	 viewBox="0 0 32 32" enable-background="new 0 0 32 32" xml:space="preserve">
<sodipodi:namedview  id="namedview3470" bordercolor="#666666" pagecolor="#ffffff" guidetolerance="10" inkscape:zoom="10.44997" gridtolerance="10" inkscape:current-layer="svg3426" inkscape:pageopacity="0" borderopacity="1" inkscape:window-y="0" objecttolerance="10" inkscape:cx="16.00177" inkscape:cy="16.00177" inkscape:window-x="300" inkscape:pageshadow="2" inkscape:window-width="885" inkscape:window-height="659" showgrid="false" inkscape:window-maximized="0">
	</sodipodi:namedview>
<defs>
	
	
		<inkscape:perspective  id="perspective3474" sodipodi:type="inkscape:persp3d" inkscape:vp_x="0 : 16 : 1" inkscape:vp_y="0 : 1000 : 0" inkscape:vp_z="32 : 16 : 1" inkscape:persp3d-origin="16 : 10.666667 : 1">
		</inkscape:perspective>
	
		<inkscape:perspective  id="perspective3984" sodipodi:type="inkscape:persp3d" inkscape:vp_x="0 : 0.5 : 1" inkscape:vp_y="0 : 1000 : 0" inkscape:vp_z="1 : 0.5 : 1" inkscape:persp3d-origin="0.5 : 0.33333333 : 1">
		</inkscape:perspective>
</defs>
<g>
	<polygon fill="#F1F2F2" points="24.794,30.346 24.784,30.352 24.776,30.355 	"/>
	<path fill="#F1F2F2" d="M25.714,27.162c-0.062-0.1-8.522-13.596-8.561-13.686c-0.444-1.125-0.308-2.77-0.235-3.366
		c0.021-0.126,0.122-0.358,0.187-0.457c1.14-1.88,0.831-3.9,0.518-4.476c-1.178-2.179-5.446-3.779-5.586-3.752
		c0,0-0.722-0.172-0.534,0.455c0.19,0.624,2.109,4.028,2.046,4.437c-0.058,0.375-0.731,1.239-1.438,1.691l0.006-0.004L12.11,8.006
		c-0.001,0-0.001,0.001-0.003,0.001l0,0h-0.001c0,0.001-0.001,0.001-0.002,0.002c-0.752,0.372-1.837,0.511-2.188,0.367
		C9.532,8.218,7.593,4.827,7.154,4.343C6.713,3.861,6.49,4.567,6.49,4.567c-0.093,0.112-0.909,4.596,0.356,6.724
		c0.334,0.563,1.909,1.867,4.107,1.85c0.115,0,0.368,0.027,0.485,0.079c0.549,0.242,2.03,0.969,2.769,1.928
		c0.091,0.174,7.309,14.26,7.357,14.366c0.021,0.034,1.584,1.7,3.217,0.834C26.364,29.395,25.733,27.201,25.714,27.162z
		 M12.098,8.013l0.007-0.003c-0.001,0.001-0.001,0.001-0.004,0.001L12.098,8.013z"/>
</g>
</svg>
